<mxfile host="app.diagrams.net" modified="2023-06-01T08:38:16.978Z" agent="Mozilla/5.0 (Macintosh; Intel Mac OS X 10_15_7) AppleWebKit/537.36 (KHTML, like Gecko) Chrome/113.0.0.0 Safari/537.36" etag="VlE1A3uOhkINbYDM6-Ab" version="21.3.3" type="github">
  <diagram name="Pagina-1" id="lDi1VzPB_kH_Ddmma1Xz">
    <mxGraphModel dx="636" dy="363" grid="1" gridSize="10" guides="1" tooltips="1" connect="1" arrows="1" fold="1" page="1" pageScale="1" pageWidth="827" pageHeight="1169" math="0" shadow="0">
      <root>
        <mxCell id="0" />
        <mxCell id="1" parent="0" />
        <mxCell id="FhLRkZk7MeBzpykhbY_E-4" value="" style="shape=image;verticalLabelPosition=bottom;labelBackgroundColor=default;verticalAlign=top;aspect=fixed;imageAspect=0;image=data:image/png,iVBORw0KGgoAAAANSUhEUgAABNwAAAF4CAYAAACPeeRPAAAMPGlDQ1BJQ0MgUHJvZmlsZQAASImVlwdYU8kWgOeWJCSQBAhEOqE3QaQXKSG0CAJSBRshCRBKiIGgYkcWFVy7iIANXRVRdC2ArBWxuyj2viiioqyLBXt5kwK67Cvfm++bO/89c+acM+fO3HsHAPoxnkSSg2oCkCsukMaGBbHGJaewSE8AAlBAAyzgyOPnS9gxMZEAloH27+XtdagNyxVHua1/9v/XoiUQ5vMBQGIgpwny+bmQ9wOA1/Al0gIAiHK5xdQCiZxhBTpSGCDkhXLOUHKNnNOUvEehEx/LgdwGgJoGjyfNAIB2CcpZhfwMaIPWB9lZLBCJAaCzIPvn5uYJIKdCtoU6Eshy+15pP9jJ+JvNtEGbPF7GICvnoihqwaJ8SQ5v+v+Zjv9dcnNkAz6sYdXIlIbHyucM83YzOy9CzhqQe8VpUdGQtSG/FwkU+pBRSqYsPEGpjxrx8zkwZ4AJ2VnAC46AbAQ5VJwTFamSp6WLQrmQ4QpBp4kKuPGQ9SAvFOaHxKl0NkrzYlW+0MZ0KYetkp/hSRV+5b7uy7IT2Cr7rzKFXJV9jFaUGZ8EmQLZslCUGAWZBtkpPzsuQqUzqiiTEzWgI5XFyuO3hBwrFIcFKe1jhenS0FiVfllu/sB8sY2ZIm6UivcWZMaHK/ODtfF5ivjhXLBLQjE7YcCOMH9c5MBcBMLgEOXcsadCcUKcys57SUFQrHIsTpHkxKj0cXNhTphcbg7ZLb8wTjUWTyyAC1JpH0+XFMTEK+PEi7J4o2OU8eDLQCTggGC442SwpoE8kAVE7b1NvfBO2RMKeEAKMoAQOKokAyOSFD1ieI0DReBPSEKQPzguSNErBIVQ/mVQqrw6gnRFb6FiRDZ4DDkXRIAceC9TjBIPeksEj6BE9A/vPFj5MN4cWOX9/14+IP0uYUNJpEoiG/DIog9oEkOIwcRwYijRDjfA/XFfPBJeA2F1wb1w74F5fNcnPCZ0EB4SrhE6Cbcmi4qlQ6IcAzqh/VBVLtJ+zAVuDW2640G4H7QOLeNM3AA44m7QDxsPgJ7doZSjilueFdYQ23+bwQ9PQ6VHdiaj5GHkQLLt0JE0e5r7oBV5rn/MjzLWtMF8cwZ7hvrn/JB9AWwjhmpiC7F92GnsOHYWO4Q1ARZ2FGvGLmCH5Ty4uh4pVteAt1hFPNnQjugf/gaerDyT+c71zj3On5V9BcJp8nc04ORJpktFGZkFLDb8IghZXDHfaTjLxdnFFQD590X5+nrNVHw3EOa577K8ewB4G8I9Vv1dlnofgEb4ztbW/C6zhjr0fgAOF/Nl0kKlDJdfCPAtQYc7TR+YAAtgC+fjAjyALwgEIWA0iAbxIBlMgtFnwnUuBVPBTDAPlIJysAysBlVgA9gMtoNdYC9oAofAcXAKnAeXwDVwB66ebvAc9IG34BOCICSEijAQfcQUsUIcEBfEC/FHQpBIJBZJRlKRDESMyJCZyHykHFmBVCGbkDrkV+Qgchw5i3Qgt5AHSA/yCvmIYqgGqoMao9boCNQLZaMRaDw6Ec1Ap6BFaAm6BK1Ea9GdaCN6HD2PXkM70edoPwYwdYyJmWGOmBfGwaKxFCwdk2KzsTKsAqvFGrAW+JyvYJ1YL/YBJ+IMnIU7whUcjifgfHwKPhtfjFfh2/FGvA2/gj/A+/CvBCrBiOBA8CFwCeMIGYSphFJCBWEr4QDhJNxL3YS3RCKRSbQhesK9mEzMIs4gLiauI+4mHiN2ELuI/SQSSZ/kQPIjRZN4pAJSKWktaSfpKOkyqZv0Xk1dzVTNRS1ULUVNrFasVqG2Q+2I2mW1J2qfyJpkK7IPOZosIE8nLyVvIbeQL5K7yZ8oWhQbih8lnpJFmUeppDRQTlLuUl6rq6ubq3urj1UXqc9Vr1Tfo35G/YH6Bw1tDXsNjsYEDZnGEo1tGsc0bmm8plKp1tRAagq1gLqEWkc9Qb1PfU9j0JxoXJqANodWTWukXaa9oJPpVnQ2fRK9iF5B30e/SO/VJGtaa3I0eZqzNas1D2re0OzXYmiN1IrWytVarLVD66zWU22StrV2iLZAu0R7s/YJ7S4GxrBgcBh8xnzGFsZJRrcOUcdGh6uTpVOus0unXadPV1vXTTdRd5pute5h3U4mxrRmcpk5zKXMvczrzI/DjIexhwmHLRrWMOzysHd6hnqBekK9Mr3detf0Puqz9EP0s/WX6zfp3zPADewNxhpMNVhvcNKg11DH0NeQb1hmuNfwthFqZG8UazTDaLPRBaN+YxPjMGOJ8VrjE8a9JkyTQJMsk1UmR0x6TBmm/qYi01WmR02fsXRZbFYOq5LVxuozMzILN5OZbTJrN/tkbmOeYF5svtv8ngXFwssi3WKVRatFn6Wp5RjLmZb1lretyFZeVplWa6xOW72ztrFOsl5g3WT91EbPhmtTZFNvc9eWahtgO8W21vaqHdHOyy7bbp3dJXvU3t0+077a/qID6uDhIHJY59AxnDDce7h4eO3wG44ajmzHQsd6xwdOTKdIp2KnJqcXIyxHpIxYPuL0iK/O7s45zluc74zUHjl6ZPHIlpGvXOxd+C7VLlddqa6hrnNcm11fujm4Cd3Wu910Z7iPcV/g3ur+xcPTQ+rR4NHjaemZ6lnjecNLxyvGa7HXGW+Cd5D3HO9D3h98PHwKfPb6/OXr6Jvtu8P36SibUcJRW0Z1+Zn78fw2+XX6s/xT/Tf6dwaYBfACagMeBloECgK3Bj5h27Gz2DvZL4Kcg6RBB4LecXw4szjHgrHgsOCy4PYQ7ZCEkKqQ+6HmoRmh9aF9Ye5hM8KOhRPCI8KXh9/gGnP53Dpu32jP0bNGt0VoRMRFVEU8jLSPlEa2jEHHjB6zcszdKKsocVRTNIjmRq+MvhdjEzMl5rexxLExY6vHPo4dGTsz9nQcI25y3I64t/FB8Uvj7yTYJsgSWhPpiRMS6xLfJQUnrUjqHDdi3Kxx55MNkkXJzSmklMSUrSn940PGrx7fPcF9QumE6xNtJk6beHaSwaScSYcn0yfzJu9LJaQmpe5I/cyL5tXy+tO4aTVpfXwOfw3/uSBQsErQI/QTrhA+SfdLX5H+NMMvY2VGT2ZAZkVmr4gjqhK9zArP2pD1Ljs6e1v2t5yknN25armpuQfF2uJscVueSd60vA6Jg6RU0jnFZ8rqKX3SCOnWfCR/Yn5zgQ78kb8gs5X9JHtQ6F9YXfh+auLUfdO0pomnXZhuP33R9CdFoUW/zMBn8Ge0zjSbOW/mg1nsWZtmI7PTZrfOsZhTMqd7btjc7fMo87Ln/V7sXLyi+M38pPktJcYlc0u6fgr7qb6UViotvbHAd8GGhfhC0cL2Ra6L1i76WiYoO1fuXF5R/nkxf/G5n0f+XPnztyXpS9qXeixdv4y4TLzs+vKA5dtXaK0oWtG1cszKxlWsVWWr3qyevPpshVvFhjWUNbI1nZWRlc1rLdcuW/u5KrPqWnVQ9e4ao5pFNe/WCdZdXh+4vmGD8YbyDR83ijbe3BS2qbHWurZiM3Fz4ebHWxK3nP7F65e6rQZby7d+2Sbe1rk9dntbnWdd3Q6jHUvr0XpZfc/OCTsv7Qre1dzg2LBpN3N3+R6wR7bn2a+pv17fG7G3dZ/Xvob9VvtrDjAOlDUijdMb+5oymzqbk5s7Do4+2Nri23LgN6ffth0yO1R9WPfw0iOUIyVHvh0tOtp/THKs93jG8a7Wya13Tow7cbVtbFv7yYiTZ06Fnjpxmn366Bm/M4fO+pw9eM7rXNN5j/ONF9wvHPjd/fcD7R7tjRc9LzZf8r7U0jGq48jlgMvHrwRfOXWVe/X8tahrHdcTrt+8MeFG503Bzae3cm69vF14+9OduXcJd8vuad6ruG90v/YPuz92d3p0Hn4Q/ODCw7iHd7r4Xc8f5T/63F3ymPq44onpk7qnLk8P9YT2XHo2/ln3c8nzT72lf2r9WfPC9sX+vwL/utA3rq/7pfTlt1eLX+u/3vbG7U1rf0z//be5bz+9K3uv/377B68Ppz8mfXzyaepn0ufKL3ZfWr5GfL37LffbNwlPylP8CmCwounpALzaBgA1GQAGPJ9RxivPf4qCKM+sCgL/iZVnREXxAGDzMQDi5wIgP05sCIT/IJDpsJX/wscHAtTVdbAOnNUU50p5IcJzwEZvOV1z0wFDi/LM+UPcQ1sgt+oGhrb/AotudvPaakMGAAAAimVYSWZNTQAqAAAACAAEARoABQAAAAEAAAA+ARsABQAAAAEAAABGASgAAwAAAAEAAgAAh2kABAAAAAEAAABOAAAAAAAAAJAAAAABAAAAkAAAAAEAA5KGAAcAAAASAAAAeKACAAQAAAABAAAE3KADAAQAAAABAAABeAAAAABBU0NJSQAAAFNjcmVlbnNob3SZA7zaAAAACXBIWXMAABYlAAAWJQFJUiTwAAAB12lUWHRYTUw6Y29tLmFkb2JlLnhtcAAAAAAAPHg6eG1wbWV0YSB4bWxuczp4PSJhZG9iZTpuczptZXRhLyIgeDp4bXB0az0iWE1QIENvcmUgNi4wLjAiPgogICA8cmRmOlJERiB4bWxuczpyZGY9Imh0dHA6Ly93d3cudzMub3JnLzE5OTkvMDIvMjItcmRmLXN5bnRheC1ucyMiPgogICAgICA8cmRmOkRlc2NyaXB0aW9uIHJkZjphYm91dD0iIgogICAgICAgICAgICB4bWxuczpleGlmPSJodHRwOi8vbnMuYWRvYmUuY29tL2V4aWYvMS4wLyI+CiAgICAgICAgIDxleGlmOlBpeGVsWURpbWVuc2lvbj4zNzY8L2V4aWY6UGl4ZWxZRGltZW5zaW9uPgogICAgICAgICA8ZXhpZjpQaXhlbFhEaW1lbnNpb24+MTI0NDwvZXhpZjpQaXhlbFhEaW1lbnNpb24+CiAgICAgICAgIDxleGlmOlVzZXJDb21tZW50PlNjcmVlbnNob3Q8L2V4aWY6VXNlckNvbW1lbnQ+CiAgICAgIDwvcmRmOkRlc2NyaXB0aW9uPgogICA8L3JkZjpSREY+CjwveDp4bXBtZXRhPgoQPThmAAAAHGlET1QAAAACAAAAAAAAALwAAAAoAAAAvAAAALwAAI0duyfjaAAAQABJREFUeAHsfQegFcXZ9su9VEFAMZ/+XxKNGhNTzWc0+uWzoCaxl2g0JCoWxG5UsCsgSBMEBZViAwXEmsRoNCpNLICCVKnS66X3doH532cOc+9yOFzOPfecs7Nnn4W9uzs75Z1nZp/zzjutmtFDeBABIkAEiAARIAJEgAgQASJABIgAESACKRFwzeadO3cK7nfs2CG7du2S0tJSe922bVvZM95v377d+kNkLmzyfcqE6EgEiEDBIFBNP34a3AqmOJkRIkAEiAARIAJEgAgQASJABIgAEcg2Aq7Z7AxuMLbBzRnWggY3vAv6C8ri4gm68Z4IEIHCRIAGt8IsV+aKCBABIkAEiAARIAJEgAgQASJABLKMgDOYOYOau2KkG965Z3dF8nCHEY4HESAC8UKABrd4lTdzSwSIABEgAkSACBABIkAEiAARIAIZIuAMbs6AhqmlzqCGa/Kz8+fCZZgsgxEBIhBBBGhwi2ChUWQiQASIABEgAkSACBABIkAEiAARCA8BZ0BzVzeiDc/uhHTufXiSMmUiQATCQoAGt7CQZ7pEgAgQASJABIgAESACRIAIEAEiEEkEnCHNXd1INnd1Rrdq1arR6BbJEqbQRKDqCNDgVnUMGQMRIAJEgAgQASJABIgAESACRIAIxBABZ3BzWXfP7prs7p55JQJEoPARoMGt8MuYOSQCRIAIEAEiQASIABEgAkSACBCBHCCQrmEt2V8ORGGURIAIeIYADW6eFQjFIQJEgAgQASJABIgAESACRIAIEIHCQICGtsIoR+aCCGSCAA1umaDGMESACBABIkAEiAARIAJEgAgQASJABPaDAA1u+wGIr4lAASNAg1sBFy6zRgSIABEgAkSACBABIkAEiAARIAJEgAgQASKQfwRocMs/5kyRCBABIkAEiAARIAJEgAgQASJABIgAESACRKCAEaDBrYALl1kjAkSACBABIkAEiAARIAJEgAgQASJABIgAEcg/AjS45R9zpkgEiAARIAJEgAgQASJABIgAESACRIAIEAEiUMAI0OBWwIXLrBEBIkAEiAARIAJEgAgQASJABIgAESACRIAI5B8BGtzyjzlTJAJEgAgQASJABIgAESACRIAIEAEiQASIABEoYARocCvgwmXWiAARIAJEgAgQASJABIgAESACRIAIEAEiQATyjwANbvnHnCkSASJABIgAESACRIAIEAEiQASIABEgAkSACBQwAjS4FXDhMmtEgAgQASJABIgAESACRIAIEAEiQASIABEgAvlHICsGt0suucRK/qtf/Sr/OQik2L9/f5k2baYUFxdJtWrVdl/F3ge88ZYIEAEiEBoCTz31lKxduza09F3CdevWk9tv/xv50gHCKxEgAt4hQL70rkgoEBEgAp4iQL70tGAoVuwRyIrB7dFHH7VAumtYqMLItmTJSqlZs6bUqVNDG5LVpUaNhPEN73gQASJABMJGADwZNlcCg5Yt75P773/Q8mSQL4uKisKGiOkTASJABCwC5EtWBCJABIhAegiQL9PDib6IQL4RKDiD2zfT5kn9enXU4FZH6tWrZRuTxcXVOMot3zWL6REBIpASAV8Uottuu0vuuKul1KtTq4wvq1evbke8pRScjkSACBCBPCNAvswz4EyOCBCByCJAvoxs0VHwAkeg4Axuo7+aJg0b1pOD6teVunXr6Ai3GmWj3Aq8LJk9IkAEIoBAmzZtpG3btqFL2qz5bXLrrXdJvQPrlPFlrVo1pHr14tBlowBEgAgQASBAvmQ9IAJEgAikh4C/fFlbatWqSf0yvWKkrwJEoOAMbsNHTJBGjQ6UgxoeKA0a1LXTS2vWLOYItwKsvMwSEYgiAr4oRE2vuUluvOkOaVD/gDK+rF27lnZQ0OAWxXpFmYlAISLgFV/erHx5IPmyEOsZ80QECgEBr/iS+mUhVCnmIUsIFJzBbciwcXLIIQ3k4Ib11eB2gFrUa6nRjQa3LNUXRkMEiEAVEfBFIbq66Y1yw423S0PtmHB8WadObRrcqli+DE4EiED2EPCJL5vfqAY31SvJl9krX8ZEBIhA9hDwiS+pX2avXBlT9BEoSINbo0PqS6OGDWhwi379ZA6IQMEh4JtChAak40sa3AquujFDRCDSCJAvI118FJ4IEIE8IkC+zCPYTIoIVAIBGtwqARa9EgEiQASqigAVoqoiyPBEgAjEBQHyZVxKmvkkAkSgqgiQL6uKIMMTgdwgQINbbnBlrESACBCBlAhQIUoJCx2JABEgAnshQL7cCxI6EAEiQARSIkC+TAkLHYlA6AgUrMHt4Ab1dbfSunYNtxo1iqSoqCh0sCkAESACRMBHhcjxJaaUVq9exE1mWE2JABHwAgHypRfFQCGIABGIAALkywgUEkWMJQIFZ3D7WDdNaNSoga5JhF1KE5smYNe9atViWb7MtEcIVNtdCd3VI9EoSh4R8Ekhatb8NuXJemV86QxueYSDSRGBlAg4nnTXlJ7oWPAI+MSXWAS8fv265MuCr3XRy6DjSXeNXg4ocTYQ8IkvqV9mo0QZRy4QcDzprrlIIznOrBjcGjRoYONdv359cvx8JgKxR+C0006Tjz8epqMsq+kpdvRQPj/y2BeAZwB069ZN7rnnHs+kojhEwA8Enn/+RWna9BrypR/FEboU5MvQi4ACeIwA+dLjwglBNPJlCKAzycggECZfZsXg9uijj1qw3TUyyFNQIpAHBGBc27Bhs2CkpUiRTtkrLjO85SF5JuEZAr70QHoGC8UhAhaBhx56WB5+uJWd2ky+ZKUgX7IOEIF9I0C+3Dc2cXxDvoxjqTPP6SIQJl/S4JZuKdEfEcgQARjclixZKTVr1pQ6dWpIcXF1Nb5xXcEM4Yx8MCpEkS9CZiCHCLRseZ/cf/+DlifJlzkEOiJRky8jUlAUMxQEyJehwO5touRLb4uGgnmAQJh8SYObBxWAIhQ2AjC4jZ84y679cmDdA6RevdpqcKuxewRHYeedudsbASpEe2NCFyLgELjp5jvktjtaSL26tYV86VCJ75V8Gd+yZ873jwD5cv8YxckH+TJOpc28VhaBMPmSBrfKlhb9E4FKIgCD24hPJ8ohB2Hn3Hq6SH1dqV27pp1aWsmo6L0AEKBClFkhnnnmmTJ8+PCywDfffLP07NnTGq/LHHN8s2XLFvnkk0/knHPOyXFK8Y3+mmtvlptuuUMa1KtLvoxvNSjLOfmyDIqs3gwaNEiuuuoquf766+XFF1+0cT/22GPSunVrwfWRRx7Zb3qff/65nHLKKfLZZ5/J//3f/6X03759eznyyCPlyiuvTPmejlVDgHxZNfwKLTT5MvclumrVKstnH374YVliAwcOrJDjSktLpXPnznLrrbfqxo6NysLxJr8IhMmXNLjlt6yZWgwRgMFt2PDxcnCjA6XRQdg9t54a3GrtXtMthoDEPMtUiDKrAM2bN7cKC5QV19CbOHGi/PKXv8wswgxCoSF66KGHyo033phBaAZJB4GmTW8S7AaJXcbJl+kgVth+yJe5KV9ncDvjjDNk2LBhgs6EFi1aSJ8+fWhwyw3kOYmVfJkTWCMbKfky90XnDG7oZGjVqlWZPlqR0Q0dtZ06dRLwLg1uuS+jfaUAvmx+0x0646xO/vVLk4VDP3CDkwcRIAJ7I6Afvhky7GszYdK3ZsGC5Wbduo1m+/Yde3ukSywQ0BEEschntjN5ww03mJUrV9poN2/ebHSEm3njjTfstUmTJganGt/M119/bfDN4Tz77LPLwrRr167MHWG3b99u38GP8z9//nwzffp0G0/37t1teG2Q2jRVmbL+1OBm/UAWF1ZHiVg/Luy9995rzj//fAM5eVQOgauubm50RDD5snKwFaxv8mVuitbx2TXXXGN5ynHXFVdcYbRjwSbq3MCPOoqtTBAX1nGqe9e3b98yLnVuiAv+eeQGAfJlbnCNaqzky9yXnNP9wH/uwL3TN0eMGFHGg87t0ksvtW7QUcGrOKFLglvJjw7F3F/Bl598OikU/VKykT0a3LKBIuMoVARAqEOGjTPjJ82iwa1QC7kS+aJCVAmwAl4rMrg5JQbeXQPPGeVgXJs9e7ZVbNAIdI3IcePGWWMd3sMvlB6Ede+d+y233GLdEDeUKjQqg3Hj3vkJhoVBj0flEXANSPJl5bErxBDky9yUqjOaoaMCvIVnNA7R0RDkQbjrSGLbCQF/juPQqAwa3BwnOi51nOz4ODe5YKzkS9aBIALkyyAaublPZXADTzrO69Wr1x6dGOBJ8KUzvjmuRAcv3rlwuZGWsQYRCJMvOaVUrSG+H/pxy8knnyzNmjWTe+65x65ZhOGpeH7nnXdk7ty5Ngvnnnuu7uxW7Ht2YicfppSqwU0aHVJfGjVsYKdK1amDjRNYVrGrDJph7aCQtm3bxjHrVcrzZZddJj/84Q91p986snDhQst7r7zyinTo0MHGqw1F+05HaNhpnxi2P3nyZFm2bJkdxn/55ZfL2LFj7ZpF3//+90UbmtK4cWO79tAvfvELwTSBbdu2ScuWLQVxYArr7bffbnkW6xxh+oA2Hm3cJ554ooBv4YawI0eOtOEgH8Led999Fa7nUSUgCjzw1U1vLJ9SSr4s8NLef/bIl/vHKBMfbkppx44dbfA5c+bIUUcdJYcddpgsXrxY109sKIMHD5bXXnvNToHSERqW7+CnS5cuMnToUJkxY0bZGm4HHHCAnWqvI3stl7755pt2bbjx48dzDbdMCijNMOTLNIGKiTfyZe4LOnlKKVIEn4IXddaFTJgwQWbOnCkbN26Ut99+W3QUsZx22mllU0qhw/7973+XefPmCfjx22+/teF+/OMf5174mKcQKl8GLX+Z3nOEW6bIpR8u2QqOURZwc5ZyNxoDV/2eyoapBnsmnV/0OLp7Fy59SeizsgigPDjCrbKoFa5/9kBmVrbBEW4uBowiA4cFecyNNnN+kq9uZIeup2F7FvEcPNwIDueO6aJuehQ4F9yb7MeF35e7e8/r/hEIswdy/9LRR74RIF/mBnHHg++9916Zzgieg7sbleZGXmzatMmOzgD/uXAYnQH/0G/cyGFwb/Lh4kp253N2ECBfZgfHQomFfJn7kkw1wg3ciBFsixYtKtNHg/6CI9wcb4JDwaeOZ3MvOVMIky85pTQi9c99oPg4cbhGYNBwNmTIkLIhq84/1jPCx4xw7uNHWHfv4osIDJEUkwa3SBZbzoSmQpQZtOka3FwDL8iNmD7qlBrn7tZ/c8Y6cCHCJhvNHNdCamdwc3G4sM7Ilxw2s5zGO1SYClG8kfcz9+TL3JQL+M4Zy3B1051S8WCw49ZxHKeU5qZcKhsr+bKyiBW2f/Jl7svXtZ+hD+JwnOja005XdRwLf0GDm/M/evRoy7tON8295EwhTL6kwS0i9c994K6B5z7oYMPv2WeftQ1CZMn5d+sU4YN3HzkWAYdBjh95fgqfBrf84ByVVKgQZVZSjvOCoVONcEOvIb65YCMSYcCBzh3ct2LFijKedO4I63jSKU9Bg5vryMDVcSzCwg+O5LDWkX8qhUCYClGlBKXnvCBAvswNzK4xCM6Csc3plnBHxwMOx2duoxgnieNBx6l4xsFNExxC+buSL/OHdRRSIl/mvpSCup/THZ2+iNTBn3CHnum41a0jDHfwpeNObFLj3HIvOVMIky+5hpvW9Kgc+hHb7Yd79uwpXbt2leeff75sK3fkQZWivdaGUqu6XV/o888/F/3w5cMPP5QTTjhBtKEqkyZN4hbFeSh8ruGWB5AjlATX2IhQYVHUvCMQ6hobec8tE9wfAuTL/SHE93FGgHwZ59LfO+/ky70xoQsRcAiEyZc0uLlSiMAVC9RiQdrDDz/cLlSrFvI9DG5YAFynlUqPHj1ELfDy0ksvyd13320XDdcRGFJSUiJ33XWXLF++3C7+PWDAALnqqqsikPNoi0iDW7TLL9vSUyHKNqKMr5AQCFMhKiQcCyUv5MtCKUnmIxcIkC9zgWp04yRfRrfsKHnuEQiTL2lwy335ZjUFjHLTIcOCkWunn376HgY37NLXokUL6dOnj01Th7iW7ZSHcG+99ZbdCWXatGl2p0TspsJdUbJaPCkjo8EtJSyxdaRCFNuiZ8bTQCBMhSgN8eglzwiQL/MMOJOLFALky0gVV86FJV/mHGImEGEEwuRLGtwiXHEoejQQoMEtGuWULympEOULaaYTRQTCVIiiiFehy0y+LPQSZv6qggD5siroFV5Y8mXhlSlzlD0EwuRLGtyyV46MiQikRIAGt5SwxNaRClFsi54ZTwOBMBWiNMSjlzwjQL7MM+BMLlIIkC8jVVw5F5Z8mXOImUCEEQiTL2lwi3DFoejRQIAGt2iUU76kpEKUL6SZThQRCFMhiiJehS4z+bLQS5j5qwoC5MuqoFd4YcmXhVemzFH2EAiTL2lwy145MiYikBIBGtxSwhJbRypEsS16ZjwNBMJUiNIQj17yjAD5Ms+AM7lIIUC+jFRx5VxY8mXOIWYCEUYgTL6kwS3CFYeiRwMBGtyiUU75kpIKUb6QZjpRRCBMhSiKeBW6zOTLQi9h5q8qCJAvq4Je4YUlXxZemTJH2UMgTL6kwS175ciYiEBKBGhwSwlLbB2pEMW26JnxNBAIUyFKQzx6yTMC5Ms8A87kIoUA+TJSxZVzYcmXOYeYCUQYgTD5kga3CFccih4NBGhwi0Y55UtKKkT5QprpRBGBMBWiKOJV6DKTLwu9hJm/qiBAvqwKeoUXlnxZeGXKHGUPgTD5sqAMbjBs8CACQQSMMcHHUO5pcAsFdm8T9UUhIl96W0VCE8wHvgxTIQoNeCa8TwTIl/uEhi9CRoB8GXIBMPm9EPCFL/cSjA5EwAMEwtQvC87g5sMPoAd1iiIoAo8++qg9wwaDBrewS8Cv9H1RiHz5PvwqnfhK40t9CFMhim/p+5tz8qW/ZRNnyciXcS59f/PuC1/6ixAlizMCYeqXNLjFueYVeN59UYhocCvwilbJ7PmiEPnyfVQSPnrPEQK+1IcwFaIcQctoq4AA+bIK4DFozhAgX+YMWkZcBQR84csqZIFBiUDOEAhTv6TBLWfFyojDRsAXhYgGt7Brgl/p+6IQ+fJ9+FU68ZXGl/oQpkIU39L3N+fkS3/LJs6SkS/jXPr+5t0XvvQXIUoWZwTC1C9pcItzzSvwvPuiENHgVuAVrZLZ80Uh8uX7qCR89J4jBHypD2EqRDmCltFWAQHyZRXAY9CcIUC+zBm0jLgKCPjCl1XIAoMSgZwhEKZ+SYNbzoqVEYeNgC8KEQ1uYdcEv9L3RSHy5fvwq3TiK40v9SFMhSi+pe9vzsmX/pZNnCUjX8a59P3Nuy98iXYPDyIQRMCHNfbD1C9pcAvWBt6HjsBTTz0la9eurbQcDRs2lLvuumuPcL4oRDS47VEssX/wRSHy5fuIfYWoAgCFyJdhKkRVKAoGzREC5MscARvDaI888ki55pprKp1zn/VL8mWli7OgA5AvC7p4I5s5X9obofKlWhyrfOgHbnCGfWhNDFsEpl9FBDKtR6nCpXKrongZBUe9HDJsnBk/aZZZsGC5Wbduo9m+fUdGcTFQ9BFo3bq1F5nw5fvwAoyICpFpGaYKl8otDFiuurq5GfHpRPJlGOB7mCb50sNCiahImbYRUnFjKrcwYCFfhoG6v2mSL/0tmzhLRr40JisWKgDpA5iZ/pjG+SPwLe+Z1qNU4VK5hZHfuBvcdu3atRfsqdz28lSgDlSICrRgQ8hWphyXKlwqtxCyZAqxAQm+Sz6rgq2LKxhHKrfg+6jeky+jWnL+yZ1pGyEVN6ZyCyPH+eJLxy/Baxj5zVeaLp/5Si9b6ZAvs4Uk48kmAnHjy1TY0eCWChW65RWBxo0bGyhCOOvXr192j2e8S+dI9TGncksnrmz7QT58HuHWrl072xjcuXOnwdm7d2+zYsWKjBuIn332mS3Dtm3b2vgQ5/Lly83ZZ59tT9y7tKDUVObo2bNnmaxUiCqD3N5+ffk+9paMLhUhUBFf9uvXr6KgZe9SlX0qt7IAebzJVwMymKUnn3zSTJs2rYxbwE+OaxzPVIarNm3aZLnO/a7heu21N5jS0p323LFjh+XA5DjBxRMmTCh759KGrJs3bzY33XSTOe6440xJSUkZhw4YMMDyrQsH2YPhgvnc1/0rr7yyR/4rG35f8WbDnQ3IbKAY3ziCfPm9731vD/2SfFlxvVi5cqU5+uij98CsTZsuFXJYcozTp083TZo0KdMpHT8l+8vkeX8cDT4FP7o0k/k2Oc3rr7/e8uvUqVON42gXNtmvr8/kS19LJt5yxVm/dCVPg5tDgtfQEEBjZF9HRe+CYVJ9zKncgmHydY88+Gxwg2EMyoVrDPbq1dc26Hbs2LVbsdq1h8LiGmP7un766afm97//vfnzn/9slixZabZuLTUjRowuc1u6dKXZtm2HnVbrlJp9xZXsDgXLyQV5ER5+onRQIYpSafkna0WcmC7npfKXyi2M3IdlcEMjy3Egrj169NiDF1NxFfBJ5ig8b9y40fzhD38wI0d+abluy5btpm3bx8znn48xm7eVWk5EGq4x5+IAF48fP6FMDnCd8wMj3o033miuuOIKM27cZBvvunWbTMuWLS23wg1cC251cbuwLv59XV9++WWTnH+E9eEgX/pQCtGVgXyZednB4Na+ffsyDlu3boO5/vq/mdlz5luuwdIo++NFdGRAF0QngeNXcEu63LQvzoJ7Qh8s112TZQGfwuDm0k1+nxy38wsOBZfidFya7Ded58yRzzwk+TJz7BgydwjEWb90qHLTBP015hEuAthUQCtkSiEqehcMkGpBxlRuwTD5uvd904S2bTvK/Q/cJ9pyVEiMvPRSP/njn/4k2zZvlp49n5NatXZKtWo15Y67/yYH1KklLz3/nCxfvlq2bt0iJ510klx0yUUy9suJ8uCDd+uCxNfJ0cf+XF4bMECOOuoI+f73j5Dzzz9P2nZ6XE47+X/ltdcGS48e3eXzz0fJ8OFD5cgjfyATJ34jR//kWPnZj34kUyZPloMOqq9uk2XduvXy69+cIBO/nij33HOXFFevLY+2eVBat24vP/v5T0SFkupF1aS4uFjPavoYjV2R9IdHVBHMV/XbZzq+fB/7FJAvUiJQESemW6ap/KVySylAjh3DWNRWR7jJ7353vhxzzA8ELFhNf476Pt9frrn2r/J8n/4yf/4M5aWGctQPfyhXXnmVjBj2mXz00X/kgANqypo16+Sh1q1k1ao1clOzpnLuuRfKKaeeIp06Pi4PP/yw/PrXx4n2C8iChQulY9cnpFunTrJp03rp/UI/qV28S+bMWSCXNfmzHH34D+T+++9WvrxILrjwQun13ItStHObplFHimvXkRZ3/E1atrxXTj/9dBvfpZdeJF999ZWMH/+VcuU65eHLpGRpifzzn+/JoYc2kHr16kr1mrXlnPMulLtuv0kuu6yJLFmyUFasWC3HHHuMzJs9W5Ti5dHHHpZO7dvL//t/h8q1N9wgjRoeJGDS6tWL9SySoqKiHJd4xdGTLyvGh28rRoB8WTE+Fb1Vg5v07v288k4LKS3dIZu2bJGH27SWW5vfKCOGf6rcNUMOOeQgWbxihdx20+2ys3SnvP76YOWsWrJly1Y546zfybTpU6XfC/3ltttukov+eKk88UR3qV2jmmzfXl02bFglXbt1lW7duqkuVyS//OUv5IQTTpKXX+4vK1euUH7aIJc2+aucfOKJ0rVzF+Uio27b5Y9XXCYnHn+89FaOvOWG62T06LFy6603SLNmzWXS5Cly3kUXl/EpNrx4rP3j8vpb/5AVS+eJzqLRuNfKnS3vlp7du0qNGgfIwQfXl9NOO01106fk9hYt5ajv/UD69n1Odu4sVTm36G/D2XLBBefJlBnT5V9vvyMbN66zfHnDDTfbtD/66APlZHB1PdWT75JDDmogRaqPFql+ivqXT92UfFlRjea7sBCIs35ZhrmzvFXlCsslzrAPzVTYIjD9DBAIDvnnlNIMAKxCEPTStWnTXqcrbTXr12+y5zPPPG+WLl1uPvnkc50GdbtOBVhjNmzYbE+4nXXWxfb94sVLzaWXNtWNIJZav3BftWqtjmb7zFxzzW06mmOsueiv15nRX03U0R2dzMSJ08wf/3i1mT17kenWrY/6XW83kBgw4DXtRe1iBg162wwc+Lqms8VMmjTdxr1s2Urz2GOPm5dfftX67dmztw23cuU6e4XfrdtLIzXKjT2QVaiwDGqn2eO3DmcyX3KKVGYVRBt8ZsK0WZZ7sKkN+K5Xr146QrfE8hC4y/Ej+A5c99lno3UExDYzePDfzfDhn1p+O/PMi8yUKdMsZ+J+6NDPzQrlxGXL15hps+aZi6+80nz77ULLXWvXbtCRcFss54H/kC647osvxtkw4Dj4gSzPPNNXp+Wvtrw6dOgnpnv3Xmb+ohJz662P6Ii4byx/Dh32ueXbL7+eaNas2WB5uUeP56xcZ5xxoeVU8OXTT/e1ac2bt9jy8YQJU03fvi+br7+eYlauXK/nOg2/UX8TtpWNQskM1eyEIl9mB8e4xhLULzmltHK1AEuLJE8pfe65gQkuu/hKAw4BL0Jfe/zxnpbLOnbsaNTYZnVKcBe4E3oi/H788afm5cFvW14DZ0JPBK+1bfu4WbRoqfLhZhvHddfdYf1A34QOOmvWfOWt58ymTVssZzp99JlnnrOcjbjAt+DmL7/82vIouBN82r//68rVY83VV99pli1bbeWFjvryy6/buKFzIl1wI/RL8PVSlamkRM8Va82oUWNtPJATsowc+YXNH2RZuHCZ/S2AG/gbckMWyLdJMXCj4yqHetV8ky+rhh9D5wYBH2xEyFkYMygcolmxUAFIH8Ckwc0Va3SvmdajVOFSuYWBDOqlr1NKncENygMUFJxPP/2CWbx4mVVMoKxA/osv/pNtiEFhwrM7f/rT35gx4yaZD4d9Ypo2vUsbmmutUnX1LXea6d8uMHff/YAqNm+aF1541YwdO9lccslV1v2RRzpZZQaNu379XjOPPtrR9B/8lvnoo5G20ffVV5Ns43TewhLTuvXjNvxy9YuGJhqvUIjwDCVnm07R8mX6Uzr1iwpROijRTzoIZMpxqcKlcktHhmz7CUMhgsFt6tQZlvNWr95geQUGNzTCYND62c9OspzXv//btsMABizHgbiC30aPTXDWnDmLlT9XqGH0AsuLjq8mTZ5hEG7u3CX2PfjSxQH+Q+MOXDdy5Bgzf/5Sc+VNfyt737jxWWbBouXmqpvvNB8MGWn6Pj/QjB493hrYYMBDh8Z7731szj33XDNKOzjQaLQdG0/2MjDAXayNYzzDoAYORVozNJztEFG5n3mhn5UfvIoTvLxp01YvpuyTL7P9hcU3PnxvmRypuDGVWyZxVzVMLvkS6+126NDJgBMtNyxdpUarVWb85Onm9PPPL+s8AOd165boDG3XrnMZb02ePNNAl4PeN2vOQvP884PMgIFvWN0NOiP0xIVLlpuu2gGL5UfQCQt90PEirkgHXPXQI+2tO3hz0aIVlst69OhtOxeGDPnM6p9LVT4Y17DOHDgOV6T5ySej94gT8T7+1NM2fei0rqOhe/c+1tAGjm7e/PayMG3adLAyNL7gAoO0nK4Mf6l+C8C/mO6PpQSwLAD07Hwd5Mt8Ic10KoNAHPhyf3hk9uuTFCuA9AHMTH9Mk7LDxxARyLQepQqXyi2MrKFe+mxwe+qp52yvIUY1QLFyvY1QKqCIQHno9+pb5v2PP7GNPfQUokFZoiPflixZpfcrzX/+84ltIC5WhQcNQjQW52nvX9++A8yddz6gStcE26BDA2/mzHmmSxdt9GkPIhqjaKyiofnSoDdtGlDs0Gj8y1+utb2iMM4hHvh/4oneiZ5HvQ8a3PKp0FS1DlEhqiqCDO8QyJTjUoVL5ebSyec1lw3IfeWjf//+1uAGzkOjr6RklR3VgJEK4ERw4PKVayz/oCMBI9XGjUuMCFumXAQOHDVqvOUs8NtcHWmBhiK4EByH84svvrIjJDBSAh0ZbsTFiy8ONq1adbZc+vDDHc2wYWNMnz6DdL22O8yCxctt2uA91wgE17700qumY8ceBtyIuNGwRGdFkybX6AiP8bZxjEZql559LZeCd6fpKBFwa9eu2mmhjeYZM+ZaeeH/mef6W46GO3iWBre9a4ov38fektElXQQybSOkKvtUbunKkU1/ueRLZ3BLcGKC56DzTZ85VznwemtEAzei0/Wxrt2tkQvPOGFgc/wDv+Cjjz4aoWuqvW45Bvqk0xM7q+EMHQowkkEfTBjMlDeVj8CtOJfoPbgOBjToi7h/8smEkQ9GM/ApjHcjP/3S8il4DLwK3XH48DGWK+GGE+sIz5+/zBrVPvxweMKYqNwIngVHIgz4Fzqsiw/8CzfIvWLlWqsboxMDxkT8FixX2WHws7IqRitXrbMjoLHOXT71U+qX2fy6GFe2EIgDX+4PKxrc9ocQ3+cVgUw/ylThUrnlNTO7E/Pd4PbAAw+YyZOn2mlEUBhatHjAjuzo33+QHXkG5Wngm+/YBhkaba4hOWLEGHPOOZdo2Fnm3/8eZpWXRdpAhEKCkRhQoHB//PG/UcPZEtsQhBFt+vQ5pnPnp+wzGqeIDwrUADW4fajKD5QsNALhd/78JWVKExQhpxDhHo1CNIi3cUppRtXal+8jI+EZyCKQaRmmCpfKLQyYc9mA3Fd+3nrrLdOpUyc7sg2NS0wFbdMmMQ3ejc5AYxDTqcA9aBBi1AMafQ880Na8++5Q8+mn43Rx8KbKb/Msb4HXMIoDHQMI+8gjHezUe0zBsgY3Hd0xR/kN/mBoW6ijeR98sL2mPdo2+NAYXbC4xMycvcBc3ewWO5qkWbNbzfvvD9fwiVEgML6BL9GwxMY0MMDhHo1KNEwfeOixss4LGNjgt2vXZ+17cC84Fp0hfXYb3BAOeQIGbkrpvjDLlzsbkPlCuvDTocGtcmUcNLg54xd0xPmLltkRvBiNBv0QfIhOWehx4B3wHTomnus/uMzgD4Mb9Me2bduXjeAFx2FqPAxuMG6BW9HZetp551mjHnixWbM7lRNHmd69+1n+AgfDIAa/3bv3tYYvdDa40XIwkEEOvHcGt+nTZ9vRv9ArYTB86KEOKuer5oYbbrN8Cjfkr1u3Z23HCox+ln9Vh+3xdK8yfkY4yASDI3gbhjaM6MM5Q92OPfYE+1sALsdsD0ytxQYM+ZyBQb6sXB2n7/wg0KZNm/wktJ9UwtAvnUjcNEF/gXmEi8CRRx6pi+1fY4WoVauWbNu2rUwg3T1N5s6dW/a8r5tUCzKmcttX+Fy6Y8FUHeEmjQ6prwtSN5AGDQ6QOnVq62KtxblMNq24lQhk9eq18uST3XWB2J2CfROaNr1GdK0TLYdS+fjjT2TSpDHyox8daxfyRqRrdIHud/7xrmzShWOvuKKJ5qe+bqKwQmbOnC6Nz2wsK1aukikTp+tCs6fJ9tJS+XLMGPnf//2tXdh79OjRcsYZjXXR2U3S7+UX5Kgjj5Jv5y+V7/3XoXLyb0+UunUOkMMOO1TWrV8vn2q48373exn/9QSbxo9+fIz861/vyI9//BP58bE/kuJqRVKzZg171qhRlNeFadMCdx+e9IeHmybsAxs67x+BivgSC0Tfdddd+40kFTemcttvRDnwEMamCToKQd5970MZN3aUcuAuXQj8u3LVVU10w5iaMm3aTPnnO2/ZnF506eVyjP5e7VA/w0Z+KhPHjpZjjj5WN0o4V9av36CbGHwpZ555hm5WUEP+9f57Mn/WTO3U1CHO+u9Xx/2PbohwPjo5ddOELfLOf96TNboo+Rmnnqm/cXPk//7vFJk9e758++103ejgHHnvw/dl3sxZcsQxx8iR/3248t6xMmrUGPnpT49Vzqup95/L2Wefrfe1NN1xcvTRR0q9A+vKfzTcrFmz5Oc/P15WrFstF559jowZNUp0LSuppZveTJk8TX71q1/Ilq3b5OPhw+XU//1fWbFqpXw+8nPdeOFCOVgX/K5eVF1/o2pp3MXcNGF3Hffl+8jBJ1fQUQb5sr4umL9edQt3kC8dEqmvutuyjB07Tvni17J9xw4lMqN8UCw1a1S3OL6lGxGUlCyU7x99jFxywUW6ccBOeVd5bb7yD44bb75NalSvbrkMzxecc4GMHDFMli5ZrlFVk0XLS+SBe++WKVOnys9+8hPrF5sNlKj7K/376cZbP1Y98izl4Vry/vvvy7ezp+smNCfJqaedoptoVZdvJk9VXv2FLNXNYiZOmypnnX6arF2zVubOmS2/Oek3Ml25+51/vSXXXtvcyj9wQD/dEMfYeP/whz8oh46Sn/3s53LYfx8qRcVFMm2KxverX+rGDFvlnQ/ek7kzZ8hJvz1Vtm7cLL/97f8hC/LFF5/L+AlfSdPrrpfvHfbf9vfio48+0c1rvtDfgT/qxjtHWl20Vu2aUq9ubd3Qq7puPoMNFPKz+Qz1S1tM/OMZAr78foahX7qioMHNIcFraAhUtItURe+CAqf6mFO5BcPk695ngxswgJIEYxsanbrIq20QOmwgOxQFNELRyMRRTbfwg/tOfTY77J5+6kd3YsJuodZ/+e5MNtxODasnFJ1duv1dkRrKWuquowN1Jyoc2htpd5hC9IhbVPGprmdxNTT2rI5n/eGPLoUBnc8e2Jm0hip+NWrU0JMGtwQq6f/15ftIX2L6BAIVcWK6ZZrKXyq3MBAPQyECr4D/du3aaXfjw66iMJMlDuwyl7jT1XhEvVqe0v07xShf7VQO3LUTnKgvwFvYOVm5y+2cvFPf7diFuPU1dlPWhqaLF4a4HZqm0fRgiLN8Cz9KfLhXxrMN013K0ZDRvke7Td8nuLGaypPgZXDtA/c+JgMG9LDR6/qa8ve/v6a78jWwz0gbgaprg1mpeo8DsiF+HEgWu5PCqAeDG9JMyLJHkLw9sAGZN6gLMiHUXXxbqY50OS+Vv1RuqdLItVsu+RK4bVd+K9XO15071eCmB3YvLqpeXdkP/GQsX4I7wWPKHpaXqpmEcUmZ0epr4Cq4zZ07T84771zdKXmx6PRMeeihB5VjalnOKdJ4E/qjcqhyFfhom+6MqsPDEvEqtxaBw/QAX+GAca4YkeuR4KhEOUMfxYE47AmOTDjZsIgTcVi5lAxxBZ+jE7ya6qdG/e9UnRVhka+dpchHOf9C103kCZEmfh+gD+8KxFuzVg3t4KgtNaEXg9NBrHk4yJd5AJlJVBqBOPDl/kChwW1/CPF9zhGoSCGq6F1QsFQfcyq3YJh83SMPvo5wAwZQLGBo27OxCWWkmm14QQHBO138dbfypErOboUIYdHohDJVjMamVSwSjUHkG41A+EGjM6iwIF30cMLQVxpocBap4ayGbRBqw1AVsET5w7c7EvG4uOAHPYg0uDl80r/68n2kLzF9AoGKODHdMk3lL5VbGIjnsgG5r/wkeAqNswQX7tDRHOAstJHAaW50AjonEg21BAciPvAi/uEADyZGMyQaWeApNNrArzu1EYf4glyJ96XamFMWtfyYaMSBP8sbZ7bBuLvhCqMeGoaQB341uI0faSMMzkSaKpcKumN7qX1v81BdR1poIDQqE/GXp4Ew7kzEVWz9JRqg+WssIu3kgw3IZET4XBkEyJeVQWtPv+AE1yELPQ5YKiFaIxJ8Wv3PoJMCHbY7Lb8FeSih9yGI4yvtoFBe3alhDK56gnOLYOAHP+kV+lyC29AJAt5MdAK7TgzwLzgRB3gNOiCMXsED4XHAL4xnSAP6JgyEjjNVK92DS4sDhjHLubvDJrg7NT8DH2DiuBh44B84umbN6rbTwo1us9hZqXL7h3yZW3wZe2YIxFm/dIjR4OaQ4DU0BM444wwZMWKETT95yH/jxo1l+PDh+5Ut1cecym2/EeXAA35ofTa4QWmA4gPFCsoJrpA5oVthpEXC4GY7GhUfKBeuYZdwg/KTUDrsaDgoIAl9SIw2AKtZZSehsADeRFgoa4k0MVVhF6YraBzVdURFQvFCg7VIVaI9FSltTmqDdXfkGsKoca6GpgG/+VJokIeqHFSIqoIew1bEl/369ZNrr712vyCl4sZUbvuNKAcewjC4gQMTRrdEAw0dAYkGZqKhmDBQJTgL9OM4EJxjDW5o2emRMIQpZykn6TA161bNdlaAYxMjRNCwQ3zgrESDFtyYCO84DNybOGBAS8iE58R7x7XuXYIP8Q7h0FiE7Gisbt9Rqnyp4TQt8CpGBBdro9ZmQOND+jZe/aPSlD/buGA8RP4T+bAeQ/hDvgwB9AJKMsiXWCpj0aJFZbkjX5ZBkfImwYvQ09SMVE0NbjpFAXygFGa5CLQHfVFZx/pRV0st5ToeeC3ZDQY67dhQjnUjzYp1ymVtnb6f6EAtTnCehjTKneAzyIF0HS/uplubVko9EaSH8Gpk09h2G9ysk/2D8OBc6LblXA4GhLS7Oy2USxE2yO+OY3FN8HIiTkeR5fGC39FpkTAe5pNDyZfl5cw7fxCIs37pSoEGN4cEr14gkOlHmSpcKrcwMokfZ98NbgnFKtFjqWqQhQlGM6fk2B6/3QpXQulIKCUIlzCqJXr68M41Th3WCIsDfvHe3UNJg+K1XUdhYDQGFJ3atdAoRI9loqG327sN4/5A0XEH3qOXM58KjUs70ysVokyRY7hkBDLluFThUrklp5eP5zAMbshXggMxGiLBg5j+bkeU6ag1x1t2pIQSo2t4gn8S3JhApppyneOiRKMTjUWND10H+g7xoBNBx+4mxZngRfjBAX+Qxx2QBQfkQdp472RKvCn/mxjNAW7dIdt0qhfsfhgdghEX1XQ0SHUN62R0oSyPlydnnRO8uu90XNhcX8mXuUY4PvEnf1fp5jwVN6ZySze+bPrLNV+CT8CJ7oBxyXFPgjN3G/l1JBqmywe5CaPTgm4Jnkl06mLkGKbawyhWQzsEauuaZwkDGHS/3UYv5UMY+qAPOv60cezu0S1Sbk7WNyFnUD48Ox0U9zis3MqpiMbJq7RYFs75AQUnOL+cn4Nxm92/BXu6we8u5XjlWjUkuvgRZz4O8mU+UGYalUUgLnxZIS5KPFU+9AM3OMM+NKNhi8D0q4hApvUoVbhUblUUL6PgqJdqcDPjJ80yCxYstzvh6ZoXGcWVq0CqVNity3Vkh9EeS3vqKAnrhnfOHW64d254hv+gu4uroivC6AgM3TZ9u9m0aavZsHGL2ajntm3b1X3H7jgT6aSKBzI4OfA+Sgd3kYpSafkta6YclypcKrcwch/mLlKOa1LxHd6Vu5fzj3NL8GC5ezAux5Pl3Lo3hwZ5FHEmTqSZ4Njk9y5+d3Vh1NCmPFqqO+RtMxs2Ka9u3qL3281W3c0Z7+DPhUm+ujicnzDKPzlN8mUyInzOFIFM2wipuDGVW6ZyVSVcrvkymSPwHDzwDL5I5qd9uamhzfKT1fuUn8BR2BE5ld6X4COnYzpODOqo++ayoNyJeMrDO05NR291+dg7f06uRP73lDXhloxVELdc3ZMvc4Us460KAnHhy4owyoqFCkD6AGamP6YVAcR3+UVAh/ijn73SJ8IlHz7UScgUBYNbMnb5eC5X1HZpQ3DnHo3BfKQfVhpUiMJCvvDSLUS+zHUDsvBqwZ45KufVHZZXdUrUHka2PX37/0S+9L+MoiJh48aNK61bQn/zWb+MGl+W85PT+xIGtDCMU1Gpt5WRk3xZGbToN18I+NIeD5MvOaVUf015FCYCvgxhxZByn6eUhln6SvZ7JO+G5u/hWGAP+sMjbdu2DT1XvnwfoQNBASwCvtSHXE+RiktxFwq3ki/jUmOjlU/yZdXKq1D4qWooZD80+TL7mDLGqiNAvlQMs2HdhOUSZ9hHlrKT92y0a9fODBw4MKfprly50px99tnms88+y2k6PkXuQ50EHqiXvk8p9ancCl0W9kD6WcLTp083r7zySlrCgUdvvvlmnQqzOS3/UfDkC1+G2QMZhXKKm4zky3BKHDppRRynG13lXG8NJ+fppUq+TA8n+sovAuTL/OLN1NJDgHyptoD0oKrYF4D0AUwa3PZdTjS47RubXL+hwS3XCEcrfipEfpYXDW5tvCgYGty8KAZvhCBfhlMUNLhVjLsPbR5ISL6suJzi9pZ8GbcSj0Z+yZe6PQyKSg0CVTowVBCHu9qHEP5gOloWspN3yR977DH59ttv5X/+539kzpw5cs8998jhhx8uQ4cOlbfeekt3F6spdevWlRYtWsiMGTNEFSHp2bOnvPHGG9Z/q1atBHFs2LBBtmzZInPnzrXvjzrqKHn66aelpKREvvvd70q3bt3k5ZdflqVLl8pXX30lderUsfFdfvnl0qhRI9F1KgTbpv/+97+X/v37S9euXWXVqlXy4osv2rI94IAD8o5NVRJEfQy7TkL+OE0pHTZsmEyZMkXWr18vDz308O7iS+zOF4fpounUV/3h4ZTSdICqpJ8FCxbIoEGDbN0DZ95xxx2yZMkSy4EHHnigbN26VR544AH5zne+Y7m0YcOGsnz5ctFRatKlSxd5++23ZfLkyZb3Hn74Yd1hrLrlxYsvvliee+45ew/uvOSSS+Tggw+2PNy9e3fLo5UU1UvvvvBlnKaUki/3/ymQL/ePUbZ8aMesgNPwW71x40bdQXy7fdaRv1ZvhH45f/586dixo9VNx4wZIyifFStWyIcffqg7jNeQ2bNn2/fQPwv5IF/mt3RLS0tFO8Vk2bJl9jf+0ksvte09p1e6a36l8i818qV/ZUKJEvYhH9rjoeqX2bCN6gducIZ9aKUOW4T9ph8caYappBMnTjS44sThnjFVCcP5MXVJlR57jx5HN5UJbnh24XDFEP9gONz36tXLxht0tw67/7g4ENbFhVdwd7K4aahqvLPpY2oq8uH74UOdBEaol4U+pVQbjubnP/+5ueeeB8306XPtzqPYGQ/ntm3lO+P5XmfyIR97IKuOsuPRAQMGlE1rAn+Bt4JH0A33OB0Xgt8QT5MmTbTOTrcnppS69y6uf/zjH2VT8fFOG5tlPIxn+IMcUeHFID7Be1/4Mg4jNsiXwZpX8T35smJ8qvIW3PX8889bDgQXBvVLdw+Oc4fjRryDzug40r13uqrTGR3/VjQ11YWN2pV8md8SO+WUU8xFF11kOnR4Spd+eMvqldAtseEWdgjlpguJ8iBf5rdeMrX0ECBfckppejUli76cAgJFBfc4nBvunZHLNSiTFRenBKUyuCFsUCFCHB06dEC0e7ijAQkjkDuRfrLyhAaojq6zhj7Eg8P5CcpuX3j6x5cPvNANbmg8Io+DBw82W7eW6rlNDW663fuGLWbjRt3yfctWu+U7laLEh0KFqOqE4TgTnQA4HO8FG4DJbo63nLuO1KjQ4Oa4t2/fvmUGN6TlOh6CjUi4ufjhJ4qHL3xZ6AY38mXlvg7yZeXwStc3dDx0NvTp08d2NiAcOAy8Bv3S6ZrgS51BUaYv4rce75w+iHCI65e//GWZH8edCItOX8fX8FsoB/kyPyWpIy3Nqaeeqka2QdbItnlbqXbkbrU65ubNW22nLo1u5WVBvizHgnf+IEC+pMEtr7URBjEoM+PHjy/rUYQAUEZw4oASg3vXKITi4noNoQw5JQhuwXC4Tza4OWUH8QbjwwgNPONwjcSg8gR3vO/UqVOZXHDbtGmTlRvyIx8I6/Phywde6AY3jGyDsQ29jQsWLTVXX32D0SnMVvnGtVev582mrYmRblSMjKFCVDXWcI1C8FBwkwNwYDInBd0cXzouTNfgtr8RbsgN5IgKL+4LfV/4stANbuTLfdXA1O7ky9S4VMU12KHrOi0QX1C/dPe6rIgd1Yv3jjvxzumMzg3c63RVvHcHDHq6FErBbdpFvnQlnNvrX/7yF6PL6Vj9ctKkb/bQL0855XQzYcKUvfTL3Erkd+zkS7/LJ67SkS9pcMt73XcNQCgnuMeBq5uOFBxNAXcYtnRNDNt7iF5EKDLoSdT1imyYYBzJBjfE7YxrCOd6Jp2bU7oQh1OeEMYdukaCTc89Oz9B2d07H6++fOCFbHDTNQHNueeea0ewwah22WVXWEPtvHnzbJXA9ayzzjKDBr1heySd4Q2j3eJ6UCGqesmDs8BDwcYinsGX69atK2vcwQ3cCr4Eb4IHXQMxXYMbeA/xIhzCY7QHrs4NueEIt6qXqYuhkA1u5EtXyulfyZfpY1UZn6lGuDmdEDon+A1n0OAW1COdPuj4FFwLTnV6JmTBO45wq0ypVN5vIfMl6tiPfvQjO210woSJtm5hIIDTL999913rFtQvt2/fEevppeTLyn9DDJF7BHxpj4fJl9w0QbWDfB6qgMjf//53Oe200+zmBscee6xdCBSLfGOxWSw6++c//9mKhEVCsRDt2LFj5frrr7cbKeDFJ598ImpckxNPPNEuanv66adbN8SFxbwRRhuX1r8qVfLaa6/JCSecILVq1ZIf//jHdoFb/aGSH/7wh9YdGzb89Kc/tYvkIpw7VFGSa6+9VtxmCV9++aUcdthhMnLkSMGCpc7d+fft6suitljMVddwk0aH1JdGDRtIgwYH6ELrtXVR9iK7OLFvuKUrj1K0oO61bt1RTjnlN7rpxgApLd0kf/vb3/aIYu3atfKnP/1JLrz4CvnLny+XWrVrSK2atXQzkOqa/8SmEnsEKOAHYIZ62bZt29Bz6cv3kQkQjkcdX7kruHH48OGWn/bl5nhVp6lYvn3//felcePGls/AzbpOjOU4hMfmNWoclg8++MDyMGS9++67RY16MmnSJFFjnkybNs1mAc9R4MV94e1LfdjXorbkS/LlvupuPtx9+T6ymVdw1o4dO+zmW+edd57lQGw+89JLL8mFF14oq1evttwIjtQRvHLGGWfY5A866CA59NBDpXfv3pbzsAENwhx55JHygx/8QPAe/Ak+xj3iBFdCvy2Uw5f6UMh8+cc//lGaNLlKLvnjJXLfvfdKy5Z3yRFHHLFHFVIjrzRr1kwuuOhy+WuTK6TOAbVVv6y5W7+mfrkHWHl88OX7yGOWmVQFCPhSH/bFlzVqFFcgfXZe0eCWHRwLLhbsegqF6sYbb4xs3nz5wMsNbg3l4Ab19jC4RRbc3YJj99yVK9fa3aKOPfaHdodSKN/JB5Sik09uLEOGjNAdd2tLw4PqSZ3atVQpKlajGzop43M8+mhbadeOBrf4lHg0cuoLX0Ihatb8NmnY8EDyJflSyJfR4I+4SekTX95w4+2qV9YL8GUd1a2qRb5DFwMI5sxZKLW1k7Zz546qN7VLWc2C+iV0y4Ma1pXi4urUL1OilR9HX76P/OSWqewPAV/qAw1u+yupNN/DsIERJDyIABDAB+7DSKJCLw1duFZHWpbaBnJF3x+3bferJugQb/uN+CUVpQkLAfJlfpAnX+YH52ynQr7MNqLRjg98OXXq1NAzMX78VPnBscdJLVOss1h26CwDUUPTLikq2hG6bFURALokRpzrBgmqX+6Q7t27VqivUL+sCtrZD0u+zD6mUY4RfIkz7IMGtyyVAA1uWQKyQKLx5QNHvfxo6Dg5+KAD1ShVT+rVqyN162B0V1GkkYZt++CDG8rixSWySze9Pe4XP5VvvvlG85h6hNtJJ50ug994R6et1Jb/atTAYlGjRnXtiURPbKShqJTwGD3aoUP7SoXJhWdfvo9c5I1xVh4BX+rDVRjhdsNtUv/AA8iX5EshX1b+W2aI3CMAvtQNUHKf0H5S6NXnZTn79xdJ7Xo1pZbqlfVq1tARYUWyLfczpPYjWdVeF+/aJVfp8jpr1qy3BrcePZ6ocISb0y8P1pHR3zmkgS7bUkunMFO/rFopZB7aF30i8xwwZDYR8KU+0OCWpVKlwS1LQBI+IpEAAEAASURBVBZINL584AmD21gd8q8GN21EwuCGdcyqF0ff4Hb88b+VN//xmnxXpx/ff/8D0rz5Nbqe2yl71aDOnTvLmDHfyC233yV1D6ilhjqdLqaKUfXqNWJncOvUqaOdHrEXSHl28OX7yHO2mdw+EPClPsDgdv31t0i9A+uSL8mXQr7cxwdL51AR8IkvmzW7VerWO8AuV9JA9cvaulxHseqX0D2jemCE2zHHHKXrqX6pHS8HyuOPd5Ju3bqkzE5Qv8R00oMb1ZcDD6hjp5XGrUOXfJmyitAxZAR84Usa3LJUEXwzuA0aNEi6dOkib7zxht2sAAvUXn311WXPmWZbd42Sk046SbBJwgsvvGA3MsCCtlgE/P7775dWrVplGrUNN3ToULvRQo8ePfQHrpvozmpy2WWXaY9RHbvRAhYG/8c//qELmLaUpk2blm2egAV1sYi+L4cvH7g1uA2BwU3Xb7MGN13UtXZNKS6KvsGtk9aPrVu3ykP33Ktrua2W9u0flTvuuMX2/GKkGzZMeOWVV+Ttf/xHbr2tha6tcZDWo5rlBjddRLm4KF4j3LAWCZTHsA9fvg/goLvjie5mK/fdd59ceeWVez1nitWWLVukRYsW8vrrr8uoUaMsDy9cuFAXYm5iN5wZqRvAgNcyPcDp4Eic2KwGnHj55ZdLo0aNpKSkxDZ4sO7MIYccYkfqYOOZX//612XJgUvd5g5ljiHd+FIfdBcpue76W+VA5UryJfmSfLk3IeRStwT/zpkzx24cg02y8qVbLl26VHTHczn//PNt+ldccYX89re/tWsJQ+edO3euHeF0/PHH7w1ICC4+8eX1anCrV7eONKhfVzt0E/plUbXoG9xaPHCf/OhHP5Prrvyr/Q2fOPFLu0ECRhZCv5w5c6Ya5DvJnHklZfolNiWDwa0eNiajfhnCl5FI0pfvIzQAmPAeCPhSH8I0uGHNsyof2O4VZ9iHlm7YIuyRPrZJ18aUwfbrOHRn0T2e4a4bE2DROYPt1p0fPOPEluzYVh1bY+sOT/YZ7v/+97/tM+J24bRRZ1Q5MbjiQNx4r7uTWr9wR1yIU3eRtPHj/T//+U/rT41lNhxkdunrVA4bH9LGdvHBw+VtxYoVQWev7n2okwAEeOqUUjP265nm2zlLzLLla8yGDZuNrk0R6VPXIjIbN24xP/nJiebll98wy5at0jo+wzRpcp057LAf2HwfeugR5t77O5j3PxxjPvporBn2yQQz+qvpZs6cpWb16g2Kwxatl9HGobLl+NBDD3vxnfjyfQAM8Aj4CLyS6hn8c/TRR9s65fzAX9++fcv4ynGh7uhseQvfnXY+WM4DN7pwjrt0N2jLiYgbHAf/aogr413n74ILLrDvkBb4E3IgDNJzXIk0nX/H97qQs33v5AIHIw5fD1/qw5VXN7c8Qb4kX4JbyZd7M0Yy16SjWyIWNfBbTnK6JdxuuOEGy2vgMqdbgi+DvJUP3TLIl05/Rb5wOI52+q11DPmPV3w5Yrz5atwMM/PbRaakZLVZt26T1c02btys12ie0JFnzpxnioqKzOixk8zixSvNsGGj99Avf/3rU83z/f6xh345YeJs65f6ZbgfiC/fR7goMHWHgC/1QTt0zYhPJ5rxk2aZBQuWK1duNLpGpBMzp9esWKgApA9gQmHw6ahIKXLGLx0ptodRCw03KDpBBQMGN+TNKUB4d/HFF9vGIRQQ5/fWW2+1cbm40YiE4oKwQYMbDGlOoXHGNChiLn74hfumTZv2kC2IrcsbDW5BVFLfA/+Ph40z4ybMMnPnLjOrVq1XQ9s2s23bDvuh42OP4gn5t2zZbnREpK1j/fu/rorOCqv0TZj0rRk1aqptOH84ZKw1OA4fqca20VPNlClzzZIlq3Yb2rZHHofKlB0we+SRVqkrSp5dfeBsl+X9GdzASTBWOd4BfzmewzXo7gxuiNv5gXENjUxwJa733nuvveI94oaxD3GCG11jFHHi2x03bpx1cxzsOiIQv0sX8rt7xIMDvO3ixbPLA+59PHypDzC4gSvIl+RL8mVqpkjmmqDBzXFesm4J/Q7c6PRF8BEOdLY63c+9Q8cD3rvnfOiWwd8Ap586gxvkA/8i374c3vHl+Jlm9rwlWmbrzCbVL6Gbbd1aGtkzIf920737M+bEE88wczRvCxeWmFmzF5uJk2erfvmNGTL8a/Ofj/fUL2fOXKQYrKd+GfKH4sv3ETIMTH43Ar7UBxrcslQl8YPs05GOUoQRaFCQ3IHeRig5OKDwoPE3ZMgQawBz7riiAYkGKAxjUEbQsHv44YdtGKesIDyMZvCD+6Ai5hQpuONwhj7cwy1ocAOu7nQKD67OzV2d0oY4fDh8+cCBzxA1uI2fNNvMn19i1q7doEamUrNz587In6WlO61i9/HHI8yxx55gbrv7AfPFFxPMN9PnGxjdMJrt81FT1O0b8+XY6Wpsm2eNjmvWbrSK4I4duyKPQWXLsVWr1j58HsaX7wNgBBtbqZ7BSW5kmQMPPHfLLbfYR8d54KAglznOAzeCI/Ee3OZGqy1atMg+OyMbGqnu3vE3ZHOcCN5EWMebQT+pOBFu7kAYx5W4Bo1xzk+YV1/qAxQiGNzIl+RLcCv5cm9WcLwD3sORyuCWrFuCf8BdOHDveC6oczq9UKf/WF7MtW4JLkaaOIK/AY7Pg3zp5LWePfjjG19+PfFbM2/eMrNmzQazVTtxoVvt2IFrVM+dtiN609bt5r772po//ekvZrYa2zAqZcasRQmj25hpe+mXi3Qk3KZNW6hfhvyN+PJ9hAwDk9+NgC/1gQa3LFVJ/Dj7dFSkFEFOKDNOoYAyoetU2Cmgzg1XKCQffPCBvTrFBFcY3D766CPbaMNoDfh76qmnrCLllBWknw2DW1Apcvi6vEFJ8vXw5QNHOSYMbnsOYd21a5ev0KUlF+RHgygx0m2rHZr74IPtzBFH/MzUqlXLjnSbOnWemTx5jvnmm3n2GT2UK1at1Xq51SqEUccgLaACnpDf1q1pcAtAYm+DjS04JD+D09z0e8dHQf50nAleSmVw69Chg+VKNDRh6NJ1iWyD0xnc4I6jqga3oBHNTZFycePqGrw2Mc/++MKX+1KIos4V5MvKV3jyZWrMnP6VyuCGEEFudLolro4nnW4JXTKVwU3X7827bhnkfKfDuhFukBO8jxM6rQ+Hf3yZ6NDFFCl06OLbifrp9EssO9K2UxdTo0YNu4TJhRdebpdngX6JGRNB/XKNdmhjdBwMjsh/nA7yZZxKO1p59Y8v92yP5wPNrFioAKQPYEKJ8On4+uuvrdLy9ttvW7EwxUgXhDW6OKxVGgYMGGBmzZpl0BiE7O+9955p1qyZndoEpQLvEQana2QiImdwQzwwvCFsx44dTe/eva3BDe5IB4qULn5rR4agsedGe6BR6RQY1xgMNlLh5hQbdw//wcMpfDS4BVFJfY/ySWVwS+07Wq74gd+xY6ftTdyoShHWzVi+Yo1Zumy1Wbx0pVmkU0wXL1mpBpS1BorQel2zDdNpS0t3xE4ZciVLg5tDovyqG29YLkPnAbgPvAXj1bBhw7SXe7t59913VbGeYvr3728Nb08//bTlUTQi8R4Ns169ellDXZDLHOeBGxE3vkXXwHQNUTw7XtbdzspGfgQ5LsiDFY1wCxrcwI0YlQdZcSAOGtzKy3xfd/syuO3Lf5TcyZeVLy3y5d6YZaJbQp/EmpZB3RIxOz7EvdMLBw8enHfdcvTo0bbDefbs2WVLnjiDG2SGnNB38Vvhw+FDmwc4xIEvt6gBcf36TWaZrk83aepM88Wor82Spausbom1gzGN1umXW3VE3M6d8TO2uW+CfOmQ4NUnBMiXup57NgoEQPoAJhpTvh3BnsZUU6LcqA00xnBAwUA+cKJBiAbjvgxueIdGIfwinWBD0PUQpto0YX8GNyczGq7BhmYQW5eukzUob9BfmPc+1EnkH9gUqsEN+UMj0vVEwuiGHlYY3rCOBtarW79+o8G0AIyEwxRU+EWYuB5UiFKXvGvsOU4BD7kD78CfyTwDzkv2n8rgBn+O18BdzhCHazDdVJsmwHAW5MFUPIs1MFNxouN15AP3TlZ3Db53eQ3r6gtfFnIDEmVLvqxcDSdfpsbL8Rm4JB3dErHsa9MEcCAOx4XQER2fIZ1UnJcN3dLxIK7BKbBOfw2+D3Y6W2FD/kO+zE8BJDopdtmOWmyksGbNRqtbwsi2evV6NSBvKdMv3RIl+ZHMz1TIl36WS9ylIl8aUw2VQH/UqnRgu1cc7mofQvhTrVo1WNxCSNmvJLds2SItWrSwQmklF1VU5L777hNs9x6nA/Ux7DoJvFEv1eAmjQ6pL40aNhBsW15HtyyvUaO4YIoD3x3O0tJdmqddoj2MsktvNetSVFxNqhdXl2K9AguccT7wTbZt2zZ0CHz5PsIGQjdBkM8//1wGDRokOhpZSkpKREeChC1W3tP3pT6Eum17nlAnX6YPNPkyfaxy7ZO6ZTnC5MtyLHJ9B77UpeikdNdOUeVSdcuEvgldsqhGdalRVCT6X88i6pfUL3NdHRl/BgiQLxU0JbIqH7Bc4gz7yFJ2ws5GVtIP9n66kXJZiThCkfhQJwEX6mUhj3BzVSLRE5lY6Ba7Y2EdDZwY2Rb3UW0OI1zZAxlEI/z74GiK5JEi4UuXPwl84ctCH+HmSpR86ZCo+Eq+rBiffL+lbplAnHyZ35oHHRI7wkO33KxTTLduTezECv0SG0OAT3lQv2Qd8BMB8iVHuGVgp2WQqCDgi0U9DiPcXJ1Qqi8bZar0stt5F3seHUB61R8ejnAL4MFbPxDwhS/jMMLNlTj50iGx7yv5ct/Y8E14CJAv84t9kCsxewIH3DhzIoGF+0u+dEjw6hMC5Eud8aWEVeU5mAASh7vahxD+wLCRheyEIDmTzAUCvnzgcTK4uXJM/g6BAY8EAlSIWBN8RMAXvoyTwc3VA/KlQ2LvK/lyb0zoEj4C5MtwyiCZKyEF9cvysiBflmPBO38QIF/S4OZPbaQkWUfAlw88jga3rBdmAUVIhaiACrOAsuILX8bR4FZA1SjrWSFfZh1SRpgFBMiXWQCRUWQdAfJl1iFlhFlAgHxJg1sWqhGj8BUBXz5wGtx8rSHhyEWFKBzcmWrFCPjClzS4VVxOcXtLvoxbiUcjv+TLaJRT3KQkX8atxKORX/IlDW7RqKmUMiMEfPnAaXDLqPgKNhAVooIt2khnzBe+pMEt0tUo68KTL7MOKSPMAgLkyyyAyCiyjgD5MuuQMsIsIEC+pMEtC9WIUfiKgC8fOA1uvtaQcOSiQhQO7ky1YgR84Usa3Coup7i9JV/GrcSjkV/yZTTKKW5Ski/jVuLRyC/5kga3aNRUSpkRAr584DS4ZVR8BRuIClHBFm2kM+YLX9LgFulqlHXhyZdZh5QRZgEB8mUWQGQUWUeAfJl1SBlhFhAgX9LgloVqxCh8RcCXD5wGN19rSDhyUSEKB3emWjECvvAlDW4Vl1Pc3pIv41bi0cgv+TIa5RQ3KcmXcSvxaOSXfEmDWzRqKqXMCAFfPnAa3DIqvoINRIWoYIs20hnzhS9pcIt0Ncq68OTLrEPKCLOAAPkyCyAyiqwjQL7MOqSMMAsIkC9pcMtCNWIUviLgywdOg5uvNSQcuagQhYM7U60YAV/4kga3isspbm/Jl3Er8Wjkl3wZjXKKm5Tky7iVeDTyS76kwS0aNZVSZoSALx84DW4ZFV/BBqJCVLBFG+mM+cKXNLhFuhplXXjyZdYhZYRZQIB8mQUQGUXWESBfZh1SRpgFBMiXNLhloRoxCl8R8OUDp8HN1xoSjlxUiMLBnalWjIAvfEmDW8XlFLe35Mu4lXg08ku+jEY5xU1K8mXcSjwa+SVf0uAWjZpKKTNCwJcPnAa3jIqvYANRISrYoo10xnzhSxrcIl2Nsi48+TLrkDLCLCBAvswCiIwi6wiQL7MOKSPMAgLkSxrcslCNGIWvCPjygdPg5msNCUcuKkTh4M5UK0bAF76kwa3icorbW/Jl3Eo8GvklX0ajnOImJfkybiUejfySL2lwi0ZNpZQZIeDLB06DW0bFV7CBqBAVbNFGOmO+8CUNbpGuRlkXnnyZdUgZYRYQIF9mAURGkXUEyJdZh5QRZgEB8iUNblmoRozCVwR8+cBpcPO1hoQjFxWicHBnqhUj4Atf0uBWcTnF7S35Mm4lHo38ki+jUU5xk5J8GbcSj0Z+yZc0uEWjplLKjBDw5QOnwS2j4ivYQFSICrZoI50xX/iSBrdIV6OsC0++zDqkjDALCJAvswAio8g6AuTLrEPKCLOAAPmSBrcsVCNG4SsCvnzgNLj5WkPCkYsKUTi4M9WKEfCFL2lwq7ic4vaWfBm3Eo9GfsmX0SinuElJvoxbiUcjv+RLGtyiUVMpZUYI+PKB0+CWUfEVbCAqRAVbtJHOmC98SYNbpKtR1oUnX2YdUkaYBQTIl1kAkVFkHQHyZdYhZYRZQIB8SYNbFqoRo/AVAV8+cBrcfK0h4chFhSgc3JlqxQj4wpc0uFVcTnF7S76MW4lHI7/ky2iUU9ykJF/GrcSjkV/yJQ1u0aiplDIjBHz5wGlwy6j4CjYQFaKCLdpIZ8wXvqTBLdLVKOvCky+zDikjzAIC5MssgMgoso4A+TLrkDLCLCBAvixAg1sW6gWjKCAEjDGh54YGt9CLwCsBfFGIUC95EIEgAj7wJQ1uwRLhPfmSdcBXBMiXvpZMfOXyhS99MbDEtyb4lXNf6kOY+mU1/cGoskUCQOJwV/vAP0SACFgEaHBjRQgi4ItCFJSJ90TAFwTCVIh8wYBylCNAvizHgndEIBkB8mUyIvF+9oUvfTGwxLs2+JN7X+pDmHxJg5s/9ZGSFCgCNLgVaMFmmC1fFKIMxWcwIpBTBMJUiHKaMUaeEQLky4xgY6CYIEC+jElBp5lNX/jSFwNLmrDRW44R8KU+hMmXNLjluJIxeiJAgxvrQBABXxSioEy8JwK+IBCmQuQLBpSjHAHyZTkWvCMCyQiQL5MRifezL3zpi4El3rXBn9z7Uh/C5Esa3Pypj5SkQBGgwa1ACzbDbPmiEGUoPoMRgZwiEKZClNOMMfKMECBfZgQbA8UEAfJlTAo6zWz6wpe+GFjShI3ecoyAL/UhTL6kwS3HlYzREwEa3FgHggj4ohAFZeI9EfAFgTAVIl8woBzlCJAvy7HgHRFIRoB8mYxIvJ994UtfDCzxrg3+5N6X+hAmX9Lg5k99pCQFigANbgVasBlmyxeFKEPxGYwI5BSBMBWinGaMkWeEAPkyI9gYKCYIkC9jUtBpZtMXvvTFwJImbPSWYwR8qQ9h8iUNbjmuZIyeCNDgxjoQRMAXhSgoE++JgC8IhKkQ+YIB5ShHgHxZjgXviEAyAuTLZETi/ewLX/piYIl3bfAn977UhzD5kgY3f+ojJSlQBGhwK9CCzTBbvihEGYrPYEQgpwiEqRDlNGOMPCMEyJcZwcZAMUGAfBmTgk4zm77wpS8GljRho7ccI+BLfQiTL2lwy3ElY/REgAY31oEgAr4oREGZeE8EfEEgTIXIFwwoRzkC5MtyLHhHBJIRIF8mIxLvZ1/40hcDS7xrgz+596U+hMmXNLj5Ux8pSYEiQINbgRZshtnyRSHKUHwGIwI5RSBMhSinGWPkGSFAvswINgaKCQLky5gUdJrZ9IUvfTGwpAkbveUYAV/qQ5h8SYNbjisZoycCNLixDgQR8EUhCsrEeyLgCwJhKkS+YEA5yhEgX5ZjwTsikIwA+TIZkXg/+8KXvhhY4l0b/Mm9L/UhTL6kwc2f+khJChQBGtwKtGAzzJYvClGG4jMYEcgpAmEqRDnNGCPPCAHyZUawMVBMECBfxqSg08ymL3zpi4ElTdjoLccI+FIfwuRLGtxyXMkYPRGgwY11IIiALwpRUCbeEwFfEAhTIfIFA8pRjgD5shwL3hGBZATIl8mIxPvZF770xcAS79rgT+59qQ9h8iUNbv7UR0pSoAjQ4FagBZthtnxRiDIUn8GIQE4RCFMhymnGGHlGCJAvM4KNgWKCAPkyJgWdZjZ94UtfDCxpwkZvOUbAl/oQJl/S4JbjSsboiQANbqwDQQR8UYiCMvGeCPiCQJgKkS8YUI5yBMiX5VjwjggkI0C+TEYk3s++8KUvBpZ41wZ/cu9LfQiTL2lw86c+UpICRYAGtwIt2Ayz5YtClKH4DEYEcopAmApRTjPGyDNCgHyZEWwMFBMEyJcxKeg0s+kLX/piYEkTNnrLMQK+1Icw+ZIGtxxXMkZPBGhwYx0IIuCLQhSUifdEwBcEwlSIfMGAcpQjQL4sx4J3RCAZAfJlMiLxfvaFL30xsMS7NviTe1/qQ5h8SYObP/WRkhQoAjS4FWjBZpgtXxSiDMVnMCKQUwTCVIhymjFGnhEC5MuMYGOgmCBAvoxJQaeZTV/40hcDS5qw0VuOEfClPoTJlzS45biSMXoiQIMb60AQAV8UoqBMvCcCviAQpkLkCwaUoxwB8mU5FrwjAskIkC+TEYn3sy986YuBJd61wZ/c+1IfwuRLGtz8qY+UpEARoMGtQAs2w2z5ohBlKD6DEYGcIhCmQpTTjDHyjBAgX2YEGwPFBAHyZUwKOs1s+sKXvhhY0oSN3nKMgC/1IUy+pMEtx5WM0RMBGtxYB4II+KIQBWXiPRHwBYEwFSJfMKAc5QiQL8ux4B0RSEaAfJmMSLyffeFLXwws8a4N/uTel/oQJl/S4OZPfaQkBYoADW4FWrAZZssXhShD8RmMCOQUgTAVopxmjJFnhAD5MiPYGCgmCJAvY1LQaWbTF770xcCSJmz0lmMEfKkPYfIlDW45rmSMngjQ4MY6EETAF4UoKBPviYAvCISpEPmCAeUoR4B8WY4F74hAMgLky2RE4v3sC1/6YmCJd23wJ/e+1Icw+ZIGN3/qIyUpUARocCvQgs0wW74oRBmKz2BEIKcIhKkQ5TRjjDwjBMiXGcHGQDFBgHwZk4JOM5u+8KUvBpY0YaO3HCPgS30Iky9pcMtxJWP0RIAGN9aBIAK+KERBmXhPBHxBIEyFyBcMKEc5AuTLcix4RwSSESBfJiMS72df+NIXA0u8a4M/ufelPoTJlzS4+VMfKUmBIkCDW4EWbIbZ8kUhylB8BiMCOUUgTIUopxlj5BkhQL7MCDYGigkC5MuYFHSa2fSFL30xsKQJG73lGAFf6kOYfEmDW44rGaMnAjS4sQ4EEfBFIQrKxHsi4AsCYSpEvmBAOcoRIF+WY8E7IpCMAPkyGZF4P/vCl74YWOJdG/zJvS/1IUy+pMHNn/pISQoUARrcCrRgM8yWLwpRhuIzGBHIKQJhKkQ5zRgjzwgB8mVGsDFQTBAgX8akoNPMpi986YuBJU3Y6C3HCPhSH8LkSxrcclzJGD0RiIrBzRizV2FB9kyPYHzBeJx70C3TNKIYzheFKIrYUebCRyBMhQjoOn4KIl0VrkoVH+LORpzBOFw6QbdgHqJ6T76MaslR7nwgkC++dPwSzFOhcU0wby6/UcujL3zpi4ElWKa8Dw8BX+pDvvgyJdJKKlU+9AM3OHkQASKwNwL64Zkhw8aZ8ZNmmQULlpt16zaa7dt37O0xJJfHHnsMlrays3fvvqa0dKfZsWOX2blzp9m1a9d+JVu5cqVp0qSJWbJkibnxxhvNcccdZ6ZOnapx7LBxDBgwwMaPK+J08aYTt0scafTu3dvKk0l4F0/Y19atW4ctAtMnAt4icNXVzc2ITyfmlS/79u1bxn/gwl/+8pdm2bKVlgcrwzXt2rUz4Ljly5dbDgzyatu2HWx84NZUcToORdhU76dPn27jvOmmm8zWrVutn40bNxo8g29LSkqsmwtbmQLu06ePWbFihZfcSr6sTEnSb9wQyCVfgpOOPvroPbixTZsuu/XDhG63Px0OvAXdMJlfslFOPXv2tJwFGdwZjNfxsePE/cl6/fXX76W7urDBeH2+94UvaRPwuZbkXzZf6kMu+XJ/qKI3t8oHgPQFzCpnhhEQgSwj4LvB7cknnzTffPOt2bZth9m8bZvp1KmT2bR1u9myZbt1CxrenFKTfIUy9ec//9ksWrTENG/e3Fx++eWmX7/XtWFYajZu3GJatmxpfv/735uXX37Txgl31/B0Ck1ynMnPSKNXr15ljVYXHv6idPiiEEUJM8oaHwTCUIhgcBs5cqTlJvDea6+9Zt5445+WD8GLQa4J8hJKJfjctm1ba3BbtmyV5bvJk2daDty8rdQ8+ODDZtq0WfuM03HosmUlZRznOiyQBjowwKFXXHGFdmyssLJOmTLLPsPduaEzJx3ODsqNjgwY7JBPd4KXfTjIlz6UAmXwFYFc8iUMbu3bty/jxXXrNpjrr/+bmT1nvuW1BNeUG94cpwArdz9t2jSrGwb5BdySrt7n4kl1hcENHOk4K8iX8O/4eF/vk+NEZwn8gvOhowb11GS/6TyHUWd84UvaBMIofX/T9KU+5JIv94c+DW77Q4jviUAVEfDd4Na9e3eTaBhuMxs2bDHdu/fSERqr7f3nn4+xvZvHH3+8Wb9+s1VGSkpWmz/84Q/W/dFHu1p3GNmQz4fbtDXNmv3NPP/88+bOOx8yq1atNYsXLzN33323adGihXlJG7KbN281zzzzgvWPcDDUweDXq1df88QTT1h3jDD55JMxtnc1mMahhx5qJqgCFzQI+tIwTLea+KIQpSsv/RGBfCIQhkKEEV4jRozWBtZ2y3sTJkw1ffu+bO+nTp1hR7yB33r3fs5yIAxabtQuOAn8hc4E+MH58ccjzVlnXaxGshna4bBZOXKT+fDDYeaxxx63cS5dutwaz+A3yG94bqOj5BaWrDC/+93vyuIbOvQzmwaMbV26PGu+/nq85VEYBvEM94VLSsynn44qC4ORKG+++bblUYw6vueee+y7xx7rVJYfyAzjIEaxwGi3SEfXOW4tLd1hG835LPtUaZEvU6FCNyKQQCCXfIlOAPCF40XMzmjXrrMZM2acmTJlmvnFL35hOQX64Lp1myy3gWscD37++dgyXdHxS9Prb7DvwU/Q/6BXOk5CWOigI0d+af3g2emd112X0DGRFjgLhrGnnnreGseGDfvCdvKCB1Px8ZdfTTRDv0jECdlcuogfYeDWqlWrxLVzZ8utAwcOtM+IDx0bSA+8r1PjrDs6aPAMeV2eIbfz5wyK+a6nvvClLwaWfOPP9FIj4Et9yCVfps55uSsNbuVY8I4I5AQB/Jj7PKUUBrcJOvJiw4bNZuXK9aZbN51epIayceOmmJ///GTz2WejzWtvvmlaqSKyav1Gc8MNN5j+/d+wIyrQKETYZcuWmz/96Vozb94ic801t2lD711zySVXmbFjJ5tRo8aaQYMG2ZFzAwe+btau3WCVtk2btpjBgwdbpQ1xtG7X3o6KwwiT1q0ft+4YEYKGK96XaCMUhjooOJAVDVk0DtEwjNLhi0IUJcwoa3wQCEMhgsENjTZwy6pV682LLw427/17iJkzZ7E588yLzKuvvmpHpt19932WA+EXDcilS1da4xq4EY1SjA6G3/nzl5gzzrhQDWNTbHzg0wlTppurr75TOXKp5Uhw4qKly6xhLZlDr732dgOuROcE3j3e7Vk7Og4c+89//lONfW8p5642d9zxgDWywX3GjLk2zeHDPzWrV6+1HR+DdZSea2gOHz5K3TcoT//Vcik6U373u0usca/nsy/ajhHHreDmrdtL7SiUsGse+TLsEmD6PiOQS76Ewa1du45lvDhz9kJz+vnnmy/HTbJcA47aunWb1Q1fe+Mdq79Bd8MIsSVLVpqBg1+z/AV+WqIdAgsXLtNRZ4+X8RM6Z1fqqLl7H3rETJo0w86qmDhxuuXEuXMXW10T3Lpo+Urz9NO9Na1Sm4btuNVRw92Ut5G+62gAp4HzEnycmK0BPl6wYKmVF0ZCjNJDuv8eOszGD3kRL/ROjPRF58iQIZ+Zxo0vMHPnLtH7YZbXwe9IF/4xmhiGusWLV9hnuH377XzbkQG+xkwRYBCG0c0XvvTFwOLztxsn2XypD7nky/2VZ0FtmoDFLbVQ1b7BgwiIjBgxwp5hY4F6qQY3aXRIfWnUsIE0aHCA1KlTW2rUKA5bNJt+586dZeHCxVKv3oGiw+Tl8MN/IBddcol8+eVYefedIfLEE21kw4b1cvvt90jv3j1E1w+SgQP7iQ7fl1GjJsmTPbponhpKy/sflk7tWkuXJ5+SKy67TBbNXyRr166V+o0ayqknnyxvv/2WfO97P5ATfvM/8p+PP5Jm1zSV9es2SosWD8gjre+XoUNGyIUXnCeHHfZf8s4778n8+XOlWfMb5LY775FWD94rBx3UUP75r3flqr/+ReU2Ur2oWGrVqiE1a1aX6tWLq7QIeT4LAhylUx3ymWTKtBo3biw4eRABIOALX4axqK1OKbV8953vfEd2KAf+1yHfkZ/9/Dip26C+PN6lq/Tp2VMOPri+9Os3SE477RT5/ve/J8OGjZBJk74SbZTKd797pNx2+63ydM/e+u5wOeXU/5Vb77xDOrZ7TI44/HBbweYvXCTP9nxJOnd+RFavXm05dOfOXTJmzGTp/lQXadgwwaFdO7ZTjt0iAwe8LEVFItu2bZdDvvM9Ofuc38tjnbpKh0dbadqfyOFHfF8+GzlGbrrpGrnvvofl5luby2tvvSXtWj0iBxxQS8Z/PVGWLF8h/33Yd+SZni/Ks892lbp1D5D+/QfIVVf/VebOWyDtOz8h3R/vIO+8955cdP4FcmD9eiqrkRrFxfobVcv+RhWpEGEuHE6+tNWHfzxDIA58CW679dbb5Oijf2h5UXYZueiiS+Xg/zpE7rnvfundo4fqZQ1EO0Pl3Xffl1OV94YM+Ui2bNlkS+vmm29XflwpOrJXnujeSb4eO0G2bN8i5597toyfMEFeefVN6dy+jfTvN1CuafoX5ae6Vvd78snucs45Z4lOr5c1m7ZJ146d5K233paNG1bKccedLGeeearqfNWVQwdK06ZXy9ixX8vTT78gzzzTVXXZhfLRR0OUj2+WZ5/pozrn4XLMMUer/nqH/OEPjS2nLV26TE48+RQZM3a8/PH8c+WMM07TwSciL788UP565Z+Vc0vls08/lXFffyVrlKsPP/xIufb66+TOlvfInbfcIiec8Cvrf82a9XLddTfJEUd8R3QknPznP0OkVavWcuZZp1udtGaNGlJcXKQ8Xi1vHOoLXz766KOCkwcRAAK+1Icw9MuyGrA/i1w67/UDNzjDPjRTYYvA9D1CwIc6CThQL30e4datWzc7PQCj2zBio3fvl8yXX44373/8ibnq5jt1XbYVZtKUmbZnc4z2bKKH88Nhn5gFi0vMRX+9TqcXTNDRF3N1Ydxr7NTU5s1vNx98MEKnU83RHsTb7JSpZcvXKEd00ammg+xIjB49epulOm11xrcLbRyjdMh/l559zbRZ8637c88N1CH+nXU0yBLzl79ca+WZOXOeeaJnHzudANNaV65cZ3teVTnyYupTulWfPZDpIkV/+UTAF74MowcSI9wwkhej2zBdafbsxebJJ581X301wfLTt8pT4Jv2T3Qzo8dOsiPgMFoNozg++2ys5aolS1aZhx/uqPw5SLlvtjn33D9a3gJXgf8++GCorofUxY5+w+gJy6GLEhw6evT4Mg6dMGG6Oe+88yz/lqxYazCqpGuPPgZ+wLHTp8/R0R4v6bSo23Wa6vAyDh2uU/DhNn/+0kR6Q0aaFwe9aeO58qa/mQWLllv3rl172TyC48Gt4NWeyqsYIYe8g5fxW7B587ZQRmgk13nyZTIifPYBgTjwJTZw6dChk+VF8NjixSuV81aZ6TPnmouvvN7MmrPQzoaAXvhY1+4GfIXRvDjxDjoddDv4ha730UcjdHTu6zrCdnUZL83TUW+dVR8EPyH8Cy+8anXFkhVrLB8hTZuuchN4FDokRpTh/skne1vZPv74Uzt6eOGS5Wbkp19aPkYa0CH79h1ghg8fYx55pJNNF+7Qc+fPX1bGoeA8nE88kdBLEebGG+8wkM3Fh9FucINevGLlWsuRs2cvsjM5MBtkucq+dOmqMoxWrlpnR99hnTus95avg3yZL6SZTmUQiANf7g+PrFioAKQPYNLgtr/ijtd7H+okEI+OwW2dVabatOmsjbp5trH505/+xnygDbeXBr1llZzp3y6wBjcoHSM+GW1+8pMTzRdffK0Gu291Lbam1uAGpeTDD0faqVNoAF511bVWcXLKD5QSp/xAeUIaUMqeCjT6oPDAPxqPaBSi4QtjHBqGUJigbKFxjKlPUGiidFAhilJpxUdWX/jSB4PbqFHjTefOT1ojFDoY0AhEY/COlo/YhiGe0RmxYPFy0+PpXtbQtnBhiW6M0F7Xohy42+B2ruU1cBXCtmzZSvlxhp3eBIPbf4Z+aj4ZOWYvDh0/ftoeBjdw5P33t7WGPXAsOjIeeKCdNeiBp2EoA0dOnIhwl1ojHKZQwcj2UsDghsYjuBMGN1zBqQgHXgX3wvAGd8iKqaeYYuXD+pjky/hwUJRyGge+DBrcYIyH4Qv62/xFy+yUy379XrPGNXSm9ns1oSOCr8Ah0BWf6z/YciA6ZmFwA9e0bdve6nXgJ5zztdMBBjfwE4xe0AVP0w4HGPXQgdGs2Z1m6NBR2pHRz+qR6IyFfgi/3bv3tYavjz4aaa6+5U5dxzJhcINBDu+dzjl9OjpAzrUdIDAYPvRQBzXcvWo7hN9/f7jVe5G/bjp1f/nKNZbvXSdFkN8RDjJBNvwuwNCGNe1wzlC3Y489wbz77lCdOluiu7KuVQ7dWja1NF91m3yZL6SZTmUQiANf7g8PGtz2hxDfRxYBXz5w3w1u2DodMrrzgQfaWsUGjS8Y1uD+i1+fZBUjKFJQqOB29tkXWYUFCsbMmQvt/b33tra9gOjJRHgoRj16PGsVGhjZ+vZ91fYu9ujxjI2jc+eeZSPcggY3pAElbr4qLlDWMKoEPaBnnnOpVcigFKFRiDWOuIZbZp+oL99HZtIzVLYR8KU+hGVwc/znrhMmTLMchgYgOgXg/oSuI+Qak2hwwe3u+1tZ7gMHPvtsghvfeecja0hzceHaqhXWQtps17B86aXXbNhzzklw6HvvlXPogw+2NWhUurA9ejyvIy+e0XWKxtlODRjcXnnlddtpYUebqNHNjXz78MPhNhw6Qnr2fMF2lIDD0Xh0Ddpu3Xpro3Kd5VRwK0bQIV/IDxrJGJ2CdTaxZhENbuVfmS/fR7lEvAsTAV/qQy750hncoGvBgAWjFDoQVq9eb7CxzM9+dpLlG3AHdDUY1Rwvgr/GT5pmDflwc/xy9dXXWm4EPzmjljO4uc4JjP5FeIwSnjx5lhroSsz5519q3dChiw6FhMGtjx15HDS4ffrZl6ZNmw6Wx9AxgnhGaseG02XxfM45l9iOi2bNbjXO4Ib4MGIOecWI5sYXXGDD3n3/I2X87vRcxAEZ4bekZJVp2vQu67dXL6zfibXqSnTjsTVWP3VrueWrrtLgli+kmU5lEIgDX+4Pj4Jbw00zrFzIgwj4M2fc9zXcduzYKWq00nU3ttt12XT0u0hxNVuFdOUJu/ZE8Lsyapurpn527jS65ttONdpXg+Fe16qopqeuSxcIC7/6UszORI2sVs3oehZFsisRvYyfOFke1/WL+jzVSw46EOsHqXdd76KoWpFGA0+7PSbeyC6ND5841jZya7jVqJFYw816icAf/eHxYg03X9ZUiECRxUJEX+pDGGtsgAOxJuWWLaWybUepmB3gqQQXofDBRzjAc+Bzx4eW35QH1TClXIh3yljgruq67tnutc/gF//AV8Xqhudd+LdLZJemi3XcsHYmuA5pOg4F9ybi36WywU9CpiLEs5tjbdzKv4l0y+WFrL2feV7Xyzxe/j971xokVZGls+huupuGBsFYIjYIlgldQ0PDZV0dRwPfoa4SgY9dH6OgiAyhwOqio4ZjGAH4AB2FHd9KOBAqi+sq+sMYdWV9oK7L+ELEV/hCJQzXFzA29Lvvni9vn6qs6qzqW1X3kbfqZMfte29mnpMnT+b96uTJvHkPP+wfcKsxF/UYQZnxZwYt0aDpBNzF/qLNzSOze7iZeeO+FryMW+NSXhAN1ANeApeAjZ2d3aqXMA6hIQNsaCSsymjs8rFzQPXDMBsMvOdjP9mHCMAd2H6wFQe8ATWCst599yqddunC3+h72IRs94G+n/Cuj+zS/v4+nQ+4OIL26kXQuEhn4Cn+CgPwEMHEWn1PlLBdfTwlOYgee6zBZm0gXG0a3G/Nt22plAzVi7C3rxf4PpCH78B46IJ/D3rp9wPyokz8BjS3NKnRbS3Ev1HjNcqKIwhexqFlKaNcDdQDXg6nE3G4DachSY9VA5tpI1X6ClvZZZ5Om/xPnTo1j86VBxw/yC5/NAEDvh4yFHp7aLDZA8OinwaLGJLBGMEwEEYSnGswc8iYoD8EbcwgThsY/mARg0x/cOobXzB8YIdpJx7RQBcD5H3790fW0Ya42+lDEn+tTpsxnT7Y0K55NtJATxtBg4YQjDRIgODzIZcbRYEvDCUMDLF5Lq7BOw1BDKI0tFI6ZKxFvEzC4QYM7KVBVQ9hILAQgysgD5xTGFjijIBBIPAOmORvhE24CIdbFgd9Gt/Z5mOknpAgBxsCO7s0VhG2wc+Wc7gB0whdBzEU5fgHDfqoDE0PWZAOfCaR9AAWTOi6t6dHPbruP9V3323XGHngIYepE6Yd5ecnvqBrJJz0sRLccnipsV2X52MrPkKDiQzga1wDRV1Byz/BS4tSJKoiDaxZs0Zt27atbFqX7cso8RL404vJCO34gvOMcISwoZEMQ9iBHjnPMNlA23qoPu2QA87oXJSXcXEQ1yj/jh079IcOOnbvUof8/S/VtGnTKD8whhxemi+wDRMKvs3Yox1dmNQlHsA9wjFcA/IQ9CQvCoQ0OTjTMiAd+YDlsF/94GMubaqm4zQegy98blRuIyZKiBHw0D/I2Ub1Av5CFyiDaXR5xBb5ca1tZEyeUD7kGUlOyZHN9OGZLOYaAg5KE8VJ8DIKrdYnT8HLcNtdHG7h6lO4VamBSp1kNjpbXJXiVUSOH2SXHW7+LCYMCqx0gwHVp40I3xAiA4OMIRgbOaODZyt5QAlDBEaHb7iYSkI8AugR2DjBPWYZe8jB1ztAs4K0ogROvuaRTXqg19hIRo+eFfXL1sT0rwEuP4MXBpwYFOpZSs7k+FkMIscbKEXiVYpxNjpbXBKqiHIAWaw+wEB/VYPveAMGAmaAKziAgQiMgXpIiYEl4RsPzJDu4x2wkAd4Pn5pBx4xRLqJq6CFww2Y5mNjDkNRvn9gdZu/GsOnB39/kOen+2WZMmK1Hlak9BG+AoIbCCNHNg5+zZnqQ2ALcXNYSriKmBy2AuMxoZH8RIbgpW4q+ReCBvDccB8vh50NG21x5fAMK2+UeAldAaP0ijBa7ZWhZWh6QhQTsaRLgiW9Ao7cTToPxVI624z+ZMLQON/OBD7RO+uaRwPZey20ohaOfqxk07hGCvJo8hflQw6UCyxDQLkI2lFGeEYo50cM/mf8hX0Im9HH31wW0MNZyDYrsBPXQFK60uVhxR1oeTUcqBl3/X4EHj5PyIGQ4+u/7YFJC18fgxn8bJH+F7yMVL11xVzwMtzmFodbuPoUblVqoFIjxkZni6tSvIrIAVouO9x8o8o3jmguTy/vh9kxQIPGEZ4/4NJ5yOAiE0cvyWcg5ldDcY+l+jibofCe0/wy/VdZsbIEryM0kNEDoysDo4vK942gHD/QsIHDfJAnboOGy670LAZRpZoTukINVIpxNjpbXGF5cdxHOYAsJr+PR3C6YdCEgZg/yIPTX6/lGMQ1PXCj96Ew8NSYR/F+nI9TwMDC4FF+HvjZcdV3dBViKGRCwCv2fI1XsbjcwnJ0XqKhYSxNYABb6SDHISG2npTA4M8fYOYciMyjEFtRXR9b/XpyviTOgpdJaL02y8Szw89SOTW0YaMtrhyeYeWNGi+Bb3AkcYC9BT0iQJdI0xMHNGGb0a+35zCjvyDOxxn/NVXgUx8mWzFpSk6zlhay/Qhv4VgD9vi8ib/F7gSmIsA+Rd7CYMqHNMhnBs0bGGfgKarEdMjry+r/HgCDEUwbV6cTA/4tQLofh7wD9LuBFXO53wmkxxEEL+PQcn2UIXgZcjsTQFQd6AH3cCQdSDVJiyDlV6mBSvuRjc4WV6V4FZGjX5LDjTaQ/YQ2e/3O27Wrw7kva5JRpTfIJiOIPkKQO2ilhI7HmWb6dBrO/n0uH2hy8cjrH9h023bgQwf4Ch4+eoCNxKGTjo5Ob093t9YNl2ujLYyD7GkKsqltmlrLbVkrxTgbnS0uidpHuQl4qfowBjLO4evHPq75GAjcof2KshjIOMRxdgz0MdPEVJMncM5MG4qh+fSczmUXnpGOTbp30wcP8AXnv/xlN+Frp/5aXldXry6rkKbUfSl9xZUmeBmXpmu/nErHCDZstMUlocGo8RK4yNgIrCi0tziN8c/EE45jew5n4Co+yNLRsUfjEzAKWFUMnxiPgbOgNzGT+ZplFrtmWv+cb8uaNFwfjrPhO9Jycvn2sC2uUFdx9A/Byzi0XB9lCF6G286heKjww+PCj0+lnSNclQq3cjVw7LHHYvpJH+3t7dlrxCEtSLD1P1tcEF5h50E9XHe4oc4wDmxHqTRb/sK4Qn0iHcYJjDEYWXCyYYDY2d2THRAiT7Fg8i+Wx+V4MYhcbh33ZSuFl6tXrw5UARs22uICMQs5U9QDyOHENfGFr5mG7/mMeL4u91wNLcoqDFw+BpQY1GJCQ+MqneGEwwARuGujZV7Mg+9dOAteutAK6ZXBxMtJkybl2ZeCl+G0K+NGkDMcWCY+AaNgB9rwKQi/IDUYjk8pHsPRlkovxTeqNMHLqDRbH3wFL6NrZ3G4Radb4RxQA6UcpaXSTPa2waItzqSJ6zotDre49IFy2EjxZwX9lSM8GERaLQcxiGq5daOvWylMDIp5tny2uOhrM7SEpB1uQyVKV0wOW7HyAiuMcxMp6aqJL63gZRpbzR2ZBS/daQtIUohPJka5JWk6pRG8TGe7uSK14GV0LSEOt+h0K5wDaqDUA14qzWRvGyza4kyauK5RhzSscItLH/VejhhE9d4Dqqt/KUwMinm2fLa46iStjFocbpXprVapBC9rtWXjqZfgZTx6llLc0IDgpRvtkFYpBC+jazlxuEWnW+EcUAPmElZ5pTSg0iRbajUgBlFqm84JwUvhpbwi5UQTiRAhakDwMkRl1iErEy/lldI67AB1VmXByzpr8JCrK3gZskINduJwM5Qhl8lroNJVFjY6W1wSNZQVbklo3d0yxSByt23SJlmlGGejs8UloQ9Z4ZaE1t0tU/DS3bZJm2SlVm+UqosNG21xpXhElSZ4GZVm08lX8DKd7eai1IKX4baKONzC1adwq1IDlRoxNjpbXJXiVUQuDreK1FazRGIQ1WzTxl6xSjHORmeLi71CVKAMIJPQurtlCl662zZpk0wGkGlrMZG3XA0IXparMclfTAOCl8U0U1l8BmSk1KrC4sWLNT2fq2JWBXEmk4EDsQoOQpqEBtasWaO2bdumi3799dfVEUcckRVjypQpavbs2dn7Yhfoe4X9zxZXjD7KePRL2sNNTdi7XU0YN1aNHTtKtba2qKamhiiLFd6OaoAcG2rJkiWJS+fK85G4IlImQCm8PP3009XUqVOHrZGt7W1xwzKKIMOsC+apufMWapwUvIxAwSljKXiZsgZzTFwTL1euXKkWLVqUlVDwMqsKuagRDQhe1khDJlQNwcsIFV+Zny6fCjPjOJIOpKakRZDyK9BAqXYrlWYWZet/tjiTJq5r1EE+mhCXtt0vR2Yg3W8jlyUshYlBMc+WzxaXhB5khVsSWne3TMFLd9smDZIJXqahlUTGsDQgeBmWJuuTj+BldO0eiocKhroLxnqpjhKdCoVztRoo1W6l0sxybf3PFmfSxHWNOojDLS5tu1+OGETut5HLEpbCxKCYZ8tni0tCD+JwS0Lr7pYpeOlu26RBMsHLNLSSyBiWBgQvw9JkffIRvIyu3cXhFp1uhXNADZR6wEulmextg0VbnEkT1zXqIA63uLTtfjliELnfRi5LWAoTg2KeLZ8tLgk9iMMtCa27W6bgpbttkwbJBC/T0EoiY1gaELwMS5P1yUfwMrp2F4dbdLoVzgE1YH6GuL29HZvwZQ+kBQm2waItLgivsPOgPuJwC1ur6eUnBlF6284FyUvh5erVqwOJaMNGW1wgZiFnEodbyApNOTvBy5Q3YMLim3g5adKkrG0Ju0zwMuHGkeJD14DgZegqrSuGgpfRNbc43KLTrXCuQAOVDvpsdLa4CkSqmkQcblWrsKYYiEFUU82ZaGUqxTgbnS0uicqJwy0JrbtbpuClu22TNslgi1USbNhoi6uEd7U0gpfVarC26AUva6s9k6yN4GW42q/s16dABvzwuPDjU2nnKKiO3CaogUr7kY3OFpdE1cThloTW3S1TDCJ32yZtklWKcTY6W1wS+pABZBJad7dMwUt32yZtklU6RrBhoy0uCX0IXiahdXfLFLx0t23SJpngZbgtJg63cPUp3KrUAJb44yEv97C9GuCKQYS6yCulVXaMGiIXg6iGGjPhqtQiXsoAMuFO5VjxgpeONUiKxTFflyrHxnTZvhS8THGHjEB0wcsIlFqnLAUvw234DNjRD09VYfHixZqez1Uxq4I4k8nAgVgFByGtJQ2gPybdJ6FP9EtyuKkJe7erCePGqrFjR6nW1hbV1NRQS+qWugTUADmC1ZIlSwLmji6bK89HdDUUzuVowJX+MOuCeWruvIUaJwUvy2nB2swreFmb7Zr2Wglepr0Fa1N+wcvabNe010rwklowDP8dVhLhSDqEVJ3Yq7F06VLvkUceibTcH374wTv55JO9V199NdJyXGLuQp+EPtAvZYWbSz0jWVlkBjJZ/Rcr/aOPPvIeeuihYsl58cDRSy65xNuzZ09efJpvXMFLWbGR5l4UvuyCl+HrNAhH2KSlMO6ll16K3G4NImdSeQQvk9K8lFtKA4KXpbQjaUlpQPDS82SFmwNu4xtuuEFNnDhRjRo1SvX396sLL7xQS9Xb26uee+459eabb6o5c+aoyZMnq6+++kpt2bJFnXLKKer9999XO3bsUMccc4x6+eWX1bfffqs+/PBDdeihhypyrtEKqiZFg0j16KOPqgMPPFA9+OCD6vrrr1f77ruvuvfee3UZKPess85SHR0d6o033tA8TzrpJPXNN9+o0047TUGGF154QR1//PFaPgfUFVgEVzzq9bjCjUA9r52gAwm+BuiHR1a4RdQZgI3r169XZ555pjr44IN1KcDGF198MRvHuPrjjz+qL774Qh133HHqsMMOUw888IB677331MqVK9XGjRtVZ2enxsPLL79cvfbaaxqHwXDRokVq69atigakasWKFbRatTWi2sTL1hW8rMcVboKXxfu64GVx3USRAhvzscce0yvzP/30U41xX375pbYjUR7bl8DJTZs2KbTPAQcckLVVOR32Zy0HwcvkWxe4KbZlfjsIXubrI4m7u+66Sy1cuHDYomGLXnbZZWrmzJk6L2zKO+64Q4/dhyVOWQbBS2qwMLyd9IB7OJIOIVUn9mpghRsNDj2ssLj//vuzq9AQjxnGzz77LJvOKyt6enr07CLyIOAMWvAAL17JdtVVV+lVGLiHfnC+6aabPKx4YzrQYraSZzOxagPXZGTp/FyGJkjRPxf6JNQFvdfLCrfrrrvOI4eu19LS4vX1DQwefd7AwECKek60osoMZDT6ZWzctWuXd+6552osxCq5ClbyAAAM0UlEQVQNrOylQWQWFxnfnnzySY1vjL28wo3TGfdMbEQZNEGi6Rgvo6lN/Fxdwct6WuEmeDl8Pxe8HF5HYeVg+xE2J/CNMY6x0HxTwlzhhnQcu3fvrps3KQQvw+p1wfjgd3nt2rXe1Vdf7Z133nkeLU7QB2xLsS9zOhS8zOmi0ivGQZo8yL7FwGNoxkTwBuadccYZeozH8bA5MebDGelnn322vn/33Xf1PdI4HeN40IE326+IA50tH/NC3rQFwUvyBYTRaFCkC8pEB3U9mAYLHip+CHGNwPc86MODxQ8lHmDzoeQHGnSghwFk0uH6nnvuQXJevI4Y/Mc8QMsyIAnxLAs/3HfeeacuHwNYdtiZvFy7dqFPQifol7XucKNVkN5BBx3k/fa315Kj4wsyvLu8zs4efXR392UNI9f6SBLyiEFUvdYZRx9++OHsa03AL+CWGcw4XONgjAS+gQ875wodbsyLHXPgC9qbb745i8O4Rz7IkRZcNPVjXruCl/XgcBO8NHte6WvBy9L6qSYV2LVq1SqNgcBC077ka2AcB8ZOpJkON05nW5VtRsZfHoxyvlo4C17G24rTpk3zZsyYQQsG/o22fnjcg12Jo7c353iLVyI3SxO8rK5dTJuQMY4dcDwRAVxDwNm20AVjZU5n7IO9yTZiIT/gJePtW2+9lZ3oKMzH5WrmKfsneCkOt9i7LBsgMHT44eE4CMNOLh5QFhou/FDCsCnkAVrTIAIPrGZDMOMxgGTvOc4on4FFZ6Z/eNAff/xx/eCDDwLnMcvVCY7+c+UBr3WHGwaPqOO6deu8rq5eOrrJ4dbp/fxzp9fR0ent6ewip7E43fgxEYOINVH5mTGTDRvGN2ATh8I4xi2Oxwpe07gC5mEPN05n7DVXHYM3TzywIcVxzJ/LT9vZFbysdYeb4GV5T4bgZXn6CpobeIfJhvvuu0/be6ADhgHXYF+yrQk8xKpe02ZEGtuDoOOBIedh7AQtJn0Zr5G3VoLgZTwtSdvdeEcddRT9Nq/VDrY93b00kdulbcw9e/yJXXG65dpC8DKniyBXjHmw62APmrjH9BzHuMiOMx47F9qMbJciHQeCiZe4R/yGDRuGrHCj1/nzJo6Rj51wkJUDymDZUb7rQfBSHG6x9lHaY83DK560L5sHUHzmmWd0+Xig5s6dq5fjP/HEE3q1BB5s5IWx8v3333vTp0/3YKjjwcf1Tz/9pGn4Yca50OEGHrTHkDae4JnH8ljQY4UGHlAs/0cZoC0EA9DSO+haFlbSJ598ouWG/KBDeS4HVx7wWna4bd682TvyyCO9zZvf9TrJ2bZq1R+9K664yqO9Aj3oH+eFCy/33np7CxlJ3V4XOd56e33nm8t9J0rZxCCqTrvAHcZR2nctywwGCLCtq6tL4xYcaohD3p07d+rBJVaisXEU1OEGnAYOAxOBozfeeOMQowxypAUXsworuHAFL2vZ4SZ4WdDpAtwKXgZQUplZYPvRHmzaPrz77ru1jQkWcJydc845+h6YB+cb7XWpcRXpph3JNiPjKQZ/sEvZzkR+YCbtF+zBrgUOA3NrJQheRt+StMeqR3tUe3/60zPe9u3feJdeOj/Pvrzmmmupj87P2ZfkjOvrq+8tTAQvg/VLEwOBT08//bQmxNmcTEUkxwHP3n77bY/2N9fOOdu4G/lNhxs7yWBH8jXnKeZwoz3b9fgJGIMDY2/IhPE7BzjhML5nbIWN63JAPVwISdqXobyDyZ0iaWXCseF6gAcd3nE8OPyw4owHB/G02Xe2CmzIoF7mg4b8++yzj6bBNQLzYhrOz6vZ8LDC4EE8VmyAJ8p76qmn9IOMB98EA/DEzCevbsM9QAT07N1HnMvBlQe8lh1u2FNg9er/0K+Obt681Zs9e/aQLrFt2zbd3/7nz+94O3Z06JlJvApQr/tuiEE0pIuUHcE4ar5SCibAQTxvJpYVxjFGFjrcmOf27dvzjBsYWcBP8MUBOuAgG2UoS14pLbsJixIkaRAVFSqkBMHL8hUpeFm+zoJSALvMV0pBB2wDzsFOhM0IvMQAEHHAUhygw8QH4nDNNPQBmmw6eHFexkrE1Upwxb6sZbzEpD8m0WAvwtlGH0Aa0n0Qh3742qa3tX2JVW99tH+w2JdDVBVrhCvPR6lK8yrfjz/+WI93kRdxGOPijEkFYBiusdev7ZXSwoUu4GFzuCEfj50L+QE/2abk1WzAXbZJOQ55OPBWJ4yxHO/q2ZX+kCRehuKhgiJdUCZAV0J4GmDQCI9jvJxc6JOoMfqlbQ+3tBsEkB8fSPjww8/1Ev9Zs+Z6r7zyirWRly1bRhvdzvW+/vr/vO9/3ElOt/o0iqAzGUBau4hEJqwBV/CymEEkeFl/g0jBy4RBQYovqgHBy6KqCSUBz/4hhxzibdr0rre7q0evbCvGGPblr399sbYvd+z8WU8A16vTTezLYr3EHo8JA0wIYLzLC0x4AiHIRxNsDjcsnAHfQmcY7jEexIF0nsw1HW6IM/Ph2szHtYC8LDucc64H1/EyDv1lUAg1flUBn3tF4LO+SeAfPg8dQnUSkNy9ImnPDjVx4kQ1b94894QLKJErnyFGvySHm5qw9zg1fuxoNXbsKNXa2qIaG0cErIm72dra2tQPP+zUz93++++rtm7dqsaNGzdEYFoVpH71q2PVhg0vqba2FjVur9GqtaWZdNBAn3WvGoKGlOdyxOLFS9TSpUsSF9GV5yNxRYgAWgOu9IdZF8xTF/9mAeHIGMFLwUsleCkA5aIGXMLLufMWkl052sDLVrKtMmRbZVxUXSCZMJYbP368+vzzr1VLS5NavvxmspuWWmlN+xK25V7j2lRDQ2OefZlmXVgrXSQS/XLJErEvi6hHohPSgHt4OUpNGDc2Ox5vamqIXDPicItcxVJAUhpw5YcnqfrHVS4t4Vc9Pb16gFzK4V0vBk9ceq+2HJpxUnhGJIgGoAHBy3j6geBlPHoOuxTBy7A1mm5+wMsPPvgg8Uq8884Hasr+f6eavQbV3NynensVOZoG1IgRfYnLVo0AsCXXr1+v6AMJZF/2qRUrfq9/o4rxhH3Z2vpX5Gjr0/VvaGggHYyg+/wz4nA0NjZm0zgOeTl/OXFMx7SQheOYD87F4iBLJjNay4V8+bJlsvXw+Xdl8w3lN1o98cQ6df7552TzDOVXXA6fv6+f4eRFOh9D5RihnaN4RiSIBqAB9AUX+gMmdP0JCnG4VdUzAXKlBvxVMRfi1GnAlQcc/fK//vtN7ZAa196mxoyhFW40Y9fQkP4Vbr/4xd+q//3zJjVmdJv6pzPPUA8++IDab7/9hvQV2nSUwPZWtfz3f1Bto5rV3hPaaRZyjDYsMBNbT4G+HKyWLbsp8Sq78nwkrggRQGvAlf4wkwyiORfP1zgpeDkULxsasHKlfjqt4GX9tHWaagq8pD0ZExf52utuUGf980zVOrpFtY1uVe2tzbQirFENEE4olV6gyHgD6rijj1IfffS5ampqVLffTvYjrXKzBbYvb1p+u8JvxvjxY7JvUJBfSI8LMTbMHYgbMO79NHqLVcehjFze/ry8PeBD+egFf4q38wEt88rxAe8BosPZ4D/gx5FXkeJB58vFZ8QhmPc5nkSrZea6KHJSPkX98kzNi/OBlumZF+4RzDL5mvMwfX9/v86Lf+Y1faAiG4+L7u7uvHs8IxJEA9CAK/alONxC6o+uOdzWrl2rZs6cmVc7eueaZh/Oz4sLctPZ2aluu+02NX/+fJ398MMPVyeeeCLN+qygWZ1WRZs+Kvqaj1qwYIGiL0MGYVk0D5d15ZVX0o/c7Yr2BMjmpU0fFer17LPPDqkblntXW3a2oBAuXHnA0S+f2/Cm2mvQ2TaaDKORLSNVQyb6JawhqLEEC09d9C+XqFOP/kc1Y8Z09emnn6nVq++lY3UeDZb7T5kyRa3643r1N5Mmq+bWkdog2otegWhqJscj6SfNhmFeZQPc3HLrzerWW5YFyBltFleeD9SS9s5QJ5xwgtqyZUu20rSvRhbfspEBL+gLfOrUU09VkydPVldccYV6/vnn1aZNm9SECRMUfXVPYzDOGzdu1PgZkK01G8qaNWuWoq+UDsFEE+/xmr6JpWBmpluZxxjpSn+gPdzURXMWqHbCSUxOCF4KXgpe5gNBmLZlLy2JWr58eda2hH1qYmNctiXtl5TFY5QJZ1ZYvwf52gvnziW8nHPxAjWGtupoJxtT42Vzs2oYkV5nG1oIfqbTZ56t/nXu5erII3+pfve7a9RFF81SRx99dF4D4jccYx+2L8fQli0TaEK3Ddu2jKRVbJmhE9swOcFfm5553Cq/gZ2PACcVX1fOrXJKOCVvucXumKyca/mUrjwf5UsuFFFowJX+kKTD7f8BAAD//wDodvUAAEAASURBVO2dB7wcVfn+T25JbyT8xUpAUOQDCIrID1SqCtKLNCGUQKihSFMQkISSEHqQLoZIFQSUIi2QBkgLhAQwhCSkQXovN7kl83+fs/fsnbt3d+/evbM778w8k89mZ2dO/Z4zz33Pe87MdPBkM+3crr76apuC+25nckVH79ChgwmgOkXnnxnxkUceMcOHDzdPPPGE2WabbczkyZNN//79078zw+f7fc0115g333zTIE1su+66q+nWrVs6LZz7+c9/boYMGWKuvPLKfEm1es7l9fTTT5ubb745nW/fvn3TcV3dXnvtNbPpppumj2vaQX8Mu0+CB/rlK6+9b3r16mF69+hqunfvYjp1rjZVlRWacLW5LFCOp556zjz67OPmkXv/ZhoaPHPmmWeZn/1sZ3PccceZfv36mdmzZ5tTTz3V7L7HYWa3XXcxlVVVplvXTqZPnx6mT+8epqqq2lRWdhBGbc4+shGGDr3eDBt2fejl13J9AMSSJUvMvvvuay699FJz/PHHt/jdFlh+nd18883NhRdeaO655x7zxhtvSN/8mfnss8/M0UcfbTp27GjGjx9vunTp0pbkm4X16+DLL7+cV++hq5tttpk5/fTTm6Wh5YeW/nDCiaebAQPOMt17dKNeUi8N9bKlQjjdCcK2HDdunDAemrYtob+TJk0yOA67tVy25X333Wc+/PBDc8stt5g5c+ZYjX7ooYfMD3/4w7Rmu78PLYmU/4g2vezWvavZpGc3GRd0tvZlZUWltT3LTyaYHDGWu/POu8zn8+ebYVdcaaZOnW722WdX21edffn888+bgw8+2Fw5+I60fblJ726mT9+epnuXzo32ZYVwyD3MLXwEDCMV6bRurIY1DkW+N9wwVD60L9vaC50NCvvRbQMGDDAPPPCA+5n1G2PgnXbayfjHx/6ATj8xFoI9mtRNi172F/vytNMHyXi8q+nbu5f97iJaUV1dWfqmkQu03duf//xnD5+wN6EVdhGa5f/www97Yix4U6dOtcflgoNaezLwS4fbe++97bEzzzzTW7dunbd27Vpvv/32s8cQVhxo3kcffZT+jfTefvttGwb7Li2E23333W14JI48cf4nP/mJDYvzSB/5nHfeeTY9nP/Xv/5lw6Ec2FBm5IuPDBBteiiPiJE97/5zdVu8eLE7pO5bQ58EFLB85bWJ3vsfTPOmz/zKW7Boubd69TqvpmZ9pD/r1q331qyp8bbddhdv1KgnvAULlkpf/cw79thTvK9/fQtb78026+dd8ofrvP+8/I73yivve6+Pm+S9/d5Ub+bM+d6yZauFQ430y2hzaGs7Xn75n1RcK1quD8CAjkCPoCvYnA5Ct9x2xBFH2D7l16OxY8faY7jG3HExktLHxBiymgdtdGk77TrmmGOsJkLbnOYee+yxNjy00oU76KCDbHr33nuvPbfVVltZPYT2Oq1Eni58Lr1HXZCG1k1Lfzi+/0CrE9RL6iW0lXrZUjFa0xrEyLQtcQz64zTLaavTVeivsy2hl+W2Lf32sbNfYfticxrtymwPhvyfKr0c+6H33sTPvGnT53kLFy7zVq5ca22zNWvWyXc0P7CRp02b5VVUVHhvvz/Z+/LLJd7rr7/dzL7ceedfePePfKaZfTnpoxk27NKlq9L2JWzMQj5r19aI7VHcJzfnmsa2aPqG3Vv8Z50dP4BP5mfVqrXeH/94echXRip7LddHoTAybVDEgzY6HcyVzmmnndZifOwP6+xE6FuSNy394QSxL8dO+Mj7cPLn3pw5i0Qr13i1tfVlaZpAPFQAqQEmDAlNW6ZRhMEhjBo3IHMDML8xgTCIhw3fqBMuVIR1A0qEP/TQQ+UPz7H2uIt/9tln29/OsYbwyAtpIL47DkeaM2hcmn5hcXlh0Ov2kYd/c3Wjw81PJfs++L/6+kRv4qTPvS++WODBEKip2eBt2FBvL3Rc7FH8oPw1NbUenBqo44MP/kMMncXW6Js0ebr33/9+agfOL49+3zocx4wXZ9vbn3off/yF99VXSxsdbbWR59CWtgOzK664MntHKfNRDZrtqpxp7LjBl18LoVtOw9wExV133WWPOT2DXmGQ5nTWhYdzDXGgY/i+5JJL0o41xHHhkYdL2+nvxIkT7TH0cRhPbiICZffroNt3+p5L712dtX1r6Q9wuEErqJfUS+pldpUoVGucbQiNw3bHHXfYb6dt0DPolLMDXfgwbEv/3wCn587h5gatKLeWTZ1efjjNmzHrK/kbt9JbK/YlbLP16+si+0mVv9a75Za/eLvssrc3U+o2d+5C7/MZX3ofTZkh9uUn3ugxH3gvvdrcvpw2bZ4wWGUdZ0gDGtKeDxgifqEsHXd8t/ezbsMGr+WnTo61/KxdX+vhc8UVV6i4RLRcH4XC8OuPi/PMM8+k7UFoIyZb3XgaYZyOOvvR6RbCOK1y2uUmQJwWIz5sSYT1h4ceu2POFq2trU3boP6wSCMqm5b+EKbDrQMaSxqwXRuWCmJz3/ZHCP9pvKX0oosuMkcddZRdbrpy5Uq7VF5WmJnvfve7Rowac+utt5qf/vSndjk/bj+98847zXPPPSfLHHuZGTNmmL/97W/2trxRo0alb+0E2nPOOceIk8zcfvvtcvvNABvuwAMPlNv6GuxS/KPllqmBAwfacwiHW6kuvvhie3uVGFfmF7/4hb11C8dxCypu+0M6+C0iYPNyt5Qi7yOPPNLeeoW0RFxseVG3E0880XTt2tW2NuJrWjKrZQkr+uXo1yeavpv2Mn3ktlIsZcUS1qoqLHVvfXl6CJdSQVlCOqAe9fUbbR997rmXzFcLFxrTIMcaaswZZw4ytRvqbZ+Um0ZNdacq06VTR9NVbnnoIbc/dO7cUW4nBYOCsotFIDAbPHiw/YRdIS3XBziIMWNvKd16663NDjvsYOrq6qz+QasOOOAAc/7555uTTz7Z7L///ulbnMSQMfPmzTPTpk0za9askdubnzInnXSSkcmI9K377pbSr3/96wZ6Jo42c/fdd5vLL7/c4HYUMU6t9kHTrrvuOvPCCy8Y3BqK25oQHpqMWwYQx93Sj3wWSj+HbrpbuxAG8XLp/Z577ml19d133zU777yzbXrcXoq/DVpuydfSH7Dk/9SB55jevbtTL6mX1MssfyigO7m0Jpdt+eijjxoZzBnYoc62hIbW19e3uKVUBofm2WefLblt6TQVt2O5vwG4bVTuzLB2rKy0s7fh19TUWBsDfw9OOOEEuf2nOguV8h7Sppe9ekEvu4tudmu0L3GLVLuHd+WFmpHbxo2e2JKeGfP6OPP8iy+YTlVV8vfym6an2NH7/vJXZn1Nrdm4caNYl032ZU9h0F1szOrqqpLYlwEMmaWWbTN625In7MshQwZnkCz/Ty3XR6E19+sPbqvH5r/d/uOPPzayCMXeYgrbENqJ8TLG2cOGDTM9e/a0NuC3vvUtG2bChAn2kU9I9+fyuCeZPDDQMaQNNjIJbN566y3z6aefmieffNIsXbrUhofNiW3QoEFGVhzbPKZPn25efPFFO96fO3euwVj/P//5j/n+979vw0bhPy39gbeUipoEsUmnCyKZwNKAh9t5vpGo/zYpuQjtrCK82dhcWHneUAvPeLYVblixIRde+lYoeMLFWWdXpDkvOzzp/jzdag947V3+ztuOW6LgiceGY5jx5Ao3i6Pd/6FfisMtlCWs7S58KwmIseOJw83O5GFJ/RJZvYdbGrCCbd68RbI6c6F8Ftgl/gsXr/CWL19jZx4xY4i4SdyuuuoqFdXWMuMEGNlmF50OiVPNzu5Bt7BBp3BNudtFoWt+Pcu2wg3aCI1EPGgbtBO/kTZ+u5lE/4ym02SUzZUF+eC2LKeb/jBu361w82svyo04vKUUJPJvYc5A5i9Z+89SL9vOkHrZklk+rXFamGlbyoDNO+uss2xiTkPxjXDQQMRzccWhZ49BL8tlW7pVzSiTs2HdCjcU2mkwdFXDpuXvZ9z1sq6uwa7oWrFijTdv/hLvlTFvyhjpKWtTzpmz0K56g73p7EvcOgqbNIn2JepMvSxOHbLZoE4bnQ3qxsnQRegUNndLqdNOjPlff/319NjfaS30zYWBlmEft+5D6/x6DhsU6bsP4vtXwrnjTt+Lq235Y1Ev7QqV9oMHSA0w0RE1bf6LCOVyBgWOY3MDMP9F6AZzzjmGOuVyuCGeG0Qizcy4MKLwTA6kgbxcmnS4Wfxl+w/84+pwA0RZVWlvicVy9hUr1nqLl66wz6mbv2iZh8+ixSvtffL22RgSBs42xEnqRoOoZctnGjvOWeUcYdA3GB1Ow9xxZ+zgvNO5bA43p40ujEsH39BGNzECg8qljTRxvFiHWy69b1l7HUc0/A0HiTgPIFE/6iUoFL5RL1uyctrknPu5tMZvW2Ifeum0D1qIwZwbVOK8Cy8vYyi7bemf7Mh0uLlyQZtxe5WGjXpZ+laAAwl6CZsR9iMexwL7Es412Jb4xjE8u8zZl3jERxKdba41qJeORNu+M21QxHaaJC+RsbYgbEvnQMM3NmeD+o/7bVB3HBrtdAw2J47D3sSWqefuGDQa4/jbbrvN2qk2cET/o17S4VbSrusGgbho3AcXmn/LvK8bF6oLiwsNAz7/RY5zctuT5x747fLAxesGlUjfGSzZXprQmsPNCQTEAOV1s5/+crt8XVnx7Qaq/nBh7mu5wMEmzg43v1G0RmYX8RBKvBABz9FIGUOyqq3R0YbZShhQNIjCvDJSeWu5PlAaZ+z49SRTd/CcyUydcTN/0EmEhwbNnz/f6ibCyi359hi00ekatMsNOvHtjCCEz/bShHwON6ezKFs2TfTrPfb99cO+/3zYPUJLf4i7w4162baezgFkS16taQ1iZNqWOOY01NmWSMc566BHsC1xDjaiy6OUtqVfD2GrQo+xOV31n8/8e2ADhvgf9bI88KGXqbsoNtiXBOAuCdiWeFbdsmWpZ7U5+xLhkjyZixahXhbXL50NCt1zm1vR5mzE0aNHpycioIvYnMPNaRbiw950k7jO7szUVITHimOXtguPYzjnbFTYtMjX6Z9LD7odpY16SYdblPprwWX1X6hu8OkXkYITinhALRc4jMY4O9zQTdwgMvVg2Q12thFvYcJbTNfJm+Yw65h0R5u7nGgQORI6vv2TCv5JCx2lK18ptOhl3B1uaFHqZeH9mnpZOKtSh6Rt2USYetnEotR70Mva2gY7cYuVbHg7J1a14RvONtiX8izCRE/kujagXjoSbft2Dje/k9+tQENKbgLCP1mB4wiDOHCEuUnV7bbbLn3MOcjcBIh/LO6OyTPX0+Gx4tiVwTnh+NIEkA5mC9O+5EsTpGfHcZszZ459kQLqhgfQikioeNBsOVlreUhj00sTepq+vXulX5pQXY2H2sZnEzm0L1EQ48h+y0+7VVQYU1Ehj7WVtyNE+SURQbWUGOp8aUJQMANIR2YY7UNr8SKEPn36GJmxTL8IJoDkI5OEFr0M9aG2ZWwt6mVhsKmXhXEqVyjalinS1Mty9bhUPtDLhoaUbblRDsng1Z6AbUn7sqktqJdNLLinhwD10mqWGxYX3zAAic192x8h/IfBPESZGwmAAPpj2H0S5UiKww11dVvmdUhHmyNjDA2iJhbc00NAi14mxeHmb3nqpZ9G833qZXMe/KWDAPUynHZwWum+YVvSvmxqC+plEwvu6SFAvaTDTU9vZEkCJ6DlAk+iwy3wxoxRgjSIYtSYMaqKFr1MosMtRt0o8KpQLwNHygQDIEC9DAAikwicAPUycKRMMAAC1Es63ALoRkxCKwEtFzgdblp7SDjlokEUDnfmmp+AFr2kwy1/OyXtLPUyaS0ejfpSL6PRTkkrJfUyaS0ejfpSL+lwi0ZPZSmLIqDlAqfDrajmi20kGkSxbdpIV0yLXtLhFuluFHjhqZeBI2WCARCgXgYAkUkEToB6GThSJhgAAeolHW4BdCMmoZWAlgucDjetPSScctEgCoc7c81PQIte0uGWv52SdpZ6mbQWj0Z9qZfRaKeklZJ6mbQWj0Z9qZd0uEWjp7KURRHQcoHT4VZU88U2Eg2i2DZtpCumRS/pcIt0Nwq88NTLwJEywQAIUC8DgMgkAidAvQwcKRMMgAD1kg63ALoRk9BKQMsFToeb1h4STrloEIXDnbnmJ6BFL+lwy99OSTtLvUxai0ejvtTLaLRT0kpJvUxai0ejvtRLOtyi0VNZyqIIaLnA6XArqvliG4kGUWybNtIV06KXdLhFuhsFXnjqZeBImWAABKiXAUBkEoEToF4GjpQJBkCAekmHWwDdiEloJaDlAqfDTWsPCadcNIjC4c5c8xPQopd0uOVvp6SdpV4mrcWjUV/qZTTaKWmlpF4mrcWjUV/qJR1u0eipLGVRBLRc4HS4FdV8sY1Egyi2TRvpimnRSzrcIt2NAi889TJwpEwwAALUywAgMonACVAvA0fKBAMgQL2kwy2AbsQktBLQcoHT4aa1h4RTLhpE4XBnrvkJaNFLOtzyt1PSzlIvk9bi0agv9TIa7ZS0UlIvk9bi0agv9ZIOt2j0VJayKAJaLnA63IpqvthGokEU26aNdMW06CUdbpHuRoEXnnoZOFImGAAB6mUAEJlE4ASol4EjZYIBEKBe0uEWQDdiEloJaLnA6XDT2kPCKRcNonC4M9f8BLToJR1u+dspaWepl0lr8WjUl3oZjXZKWimpl0lr8WjUl3pJh1s0eipLWRQBLRc4HW5FNV9sI9Egim3TRrpiWvSSDrdId6PAC0+9DBwpEwyAAPUyAIhMInAC1MvAkTLBAAhQL+lwC6AbMQmtBLRc4HS4ae0h4ZSLBlE43JlrfgJa9JIOt/ztlLSz1MuktXg06ku9jEY7Ja2U1MuktXg06ku9pMMtGj2VpSyKgJYLnA63opovtpFoEMW2aSNdMS16SYdbpLtR4IWnXgaOlAkGQIB6GQBEJhE4Aepl4EiZYAAEqJd0uAXQjZiEVgJaLnA63LT2kHDKRYMoHO7MNT8BLXpJh1v+dkraWepl0lo8GvWlXkajnZJWSupl0lo8GvWlXtLhFo2eylIWRUDLBU6HW1HNF9tINIhi27SRrpgWvaTDLdLdKPDCUy8DR8oEAyBAvQwAIpMInAD1MnCkTDAAAtRLOtwC6EZMQisBLRc4HW5ae0g45aJBFA535pqfgBa9pMMtfzsl7Sz1MmktHo36Ui+j0U5JKyX1MmktHo36Ui/pcItGT2UpiyKg5QKnw62o5ottJBpEsW3aSFdMi17S4RbpbhR44amXgSNlggEQoF4GAJFJBE6Aehk4UiYYAAHqJR1uAXQjJqGVgJYLnA43rT0knHLRIAqHO3PNT0CLXtLhlr+dknaWepm0Fo9GfamX0WinpJWSepm0Fo9GfamXMXS4RaPrsZTlIuB5XrmyypkPHW450STyhBaDCP2SGwn4CWjQSzrc/C3Cfeol+4BWAtRLrS2T3HJp0UstDpbk9gRdNdfSH8K0LzvIH4x2eyQAEpv7tj/4HwmQgCVAhxs7gp+AFoPIXybuk4AWAmEaRFoYsBxNBKiXTSy4RwKZBKiXmUSS/VuLXmpxsCS7N+ipvZb+EKZe0uGmpz+yJDElQIdbTBu2yGppMYiKLD6jkUBJCYRpEJW0Yky8KALUy6KwMVJCCFAvE9LQBVZTi15qcbAUiI3BSkxAS38IUy/pcCtxJ2PyJECHG/uAn4AWg8hfJu6TgBYCYRpEWhiwHE0EqJdNLLhHApkEqJeZRJL9W4teanGwJLs36Km9lv4Qpl7S4aanP7IkMSVAh1tMG7bIamkxiIosPqORQEkJhGkQlbRiTLwoAtTLorAxUkIIUC8T0tAFVlOLXmpxsBSIjcFKTEBLfwhTL+lwK3EnY/IkQIcb+4CfgBaDyF8m7pOAFgJhGkRaGLAcTQSol00suEcCmQSol5lEkv1bi15qcbAkuzfoqb2W/hCmXtLhpqc/siQxJUCHW0wbtshqaTGIiiw+o5FASQmEaRCVtGJMvCgC1MuisDFSQghQLxPS0AVWU4teanGwFIiNwUpMQEt/CFMv6XArcSdj8iRAhxv7gJ+AFoPIXybuk4AWAmEaRFoYsBxNBKiXTSy4RwKZBKiXmUSS/VuLXmpxsCS7N+ipvZb+EKZe0uGmpz+yJDElQIdbTBu2yGppMYiKLD6jkUBJCYRpEJW0Yky8KALUy6KwMVJCCFAvE9LQBVZTi15qcbAUiI3BSkxAS38IUy/pcCtxJ2PyJECHG/uAn4AWg8hfJu6TgBYCYRpEWhiwHE0EqJdNLLhHApkEqJeZRJL9W4teanGwJLs36Km9lv4Qpl7S4aanP7IkMSVAh1tMG7bIamkxiIosPqORQEkJhGkQlbRiTLwoAtTLorAxUkIIUC8T0tAFVlOLXmpxsBSIjcFKTEBLfwhTL+lwK3EnY/IkQIcb+4CfgBaDyF8m7pOAFgJhGkRaGLAcTQSol00suEcCmQSol5lEkv1bi15qcbAkuzfoqb2W/hCmXtLhpqc/siQxJUCHW0wbtshqaTGIiiw+o5FASQmEaRCVtGJMvCgC1MuisDFSQghQLxPS0AVWU4teanGwFIiNwUpMQEt/CFMv6XArcSdj8iRAhxv7gJ+AFoPIXybuk4AWAmEaRFoYsBxNBKiXTSy4RwKZBKiXmUSS/VuLXmpxsCS7N+ipvZb+EKZe0uGmpz+yJDElQIdbTBu2yGppMYiKLD6jkUBJCYRpEJW0Yky8KALUy6KwMVJCCFAvE9LQBVZTi15qcbAUiI3BSkxAS38IUy/pcCtxJ2PyJECHG/uAn4AWg8hfJu6TgBYCYRpEWhiwHE0EqJdNLLhHApkEqJeZRJL9W4teanGwJLs36Km9lv4Qpl7S4aanP7IkMSVAh1tMG7bIamkxiIosPqORQEkJhGkQlbRiTLwoAtTLorAxUkIIUC8T0tAFVlOLXmpxsBSIjcFKTEBLfwhTL+lwK3EnY/IkQIcb+4CfgBaDyF8m7pOAFgJhGkRaGLAcTQSol00suEcCmQSol5lEkv1bi15qcbAkuzfoqb2W/hCmXtLhpqc/siQxJUCHW0wbtshqaTGIiiw+o5FASQmEaRCVtGJMvCgC1MuisDFSQghQLxPS0AVWU4teanGwFIiNwUpMQEt/CFMv6XArcSdj8iRAhxv7gJ+AFoPIXybuk4AWAmEaRFoYsBxNBKiXTSy4RwKZBKiXmUSS/VuLXmpxsCS7N+ipvZb+EKZe0uGmpz+yJDElQIdbTBu2yGppMYiKLD6jkUBJCYRpEJW0Yky8KALUy6KwMVJCCFAvE9LQBVZTi15qcbAUiI3BSkxAS38IUy/pcCtxJ2PyJECHG/uAn4AWg8hfJu6TgBYCYRpEWhiwHE0EqJdNLLhHApkEqJeZRJL9W4teanGwJLs36Km9lv4Qpl7S4aanP7IkMSVAh1tMG7bIamkxiIosPqORQEkJhGkQlbRiTLwoAtTLorAxUkIIUC8T0tAFVlOLXmpxsBSIjcFKTEBLfwhTL+lwK3EnY/IkQIcb+4CfgBaDyF8m7pOAFgJhGkRaGLAcTQSol00suEcCmQSol5lEkv1bi15qcbAkuzfoqb2W/hCmXtLhpqc/siQxJUCHW0wbtshqaTGIiiw+o5FASQmEaRCVtGJMvCgC1MuisDFSQghQLxPS0AVWU4teanGwFIiNwUpMQEt/CFMv6XArcSdj8iRAhxv7gJ+AFoPIXybuk4AWAmEaRFoYsBxNBKiXTSy4RwKZBKiXmUSS/VuLXmpxsCS7N+ipvZb+EKZe0uGmpz+yJDElQIdbTBu2yGppMYiKLD6jkUBJCYRpEJW0Yky8KALUy6KwMVJCCFAvE9LQBVZTi15qcbAUiI3BSkxAS38IUy/pcCtxJ2PyJECHG/uAn4AWg8hfJu6TgBYCYRpEWhiwHE0EqJdNLLhHApkEqJeZRJL9W4teanGwJLs36Km9lv4Qpl7S4aanP7IkMSVAh1tMG7bIamkxiIosPqORQEkJhGkQlbRiTLwoAtTLorAxUkIIUC8T0tAFVlOLXmpxsBSIjcFKTEBLfwhTL+lwK3EnY/IkEDWHm+d5ttHcN8qPzX3bH638lxkXwbMdayWZWJ7WYhDFEi4rFXkCYRpEDp7TKvft1z7/vguf7dvF9Z8rNK4/Tua+S9efVrZjmfGi+pt6GdWWY7nLQaBceuk0xl8nvwb5j8dh39U3anXUopdaHCxx6ItxqIOW/lAuvczaZiIq7d7kAvfw4UYCJNCSgFx43ujXJ3ofTv7cmzNnkbdy5Rqvtra+ZcAQjwwZMgRetmafX//61978+Uu8uroGr76+wZswYYJ3xhlneGvXrvU2btxoP/4iT5061TvwwAO9NWvWeA0NDfaDfRz79NNP08dwDvEL3ZDuscce6y1evNimkS3vQtPSEO6qq67SUAyWgQRUEjih/0Bv7ISPyq6Xb7zxRjP9c3o4duzbVgOhg4sWLUprkdOhTC17+OGHm6UzcOBAb9WqdTaNbNrn1zeklS3MgAEDvMGDB6c1dPXq1d5+++1nPyiT09vMsrTWwCgr0s1Vl9bil+M89bIclJlHVAmUUi+XLFnibbXVVs307M9/Ht5oE9Zn1apMjoXoW2acQn+PGDGimXZl6h/s2oceeihdzszzmflAZ3fccUdrr9bXp+qXTY8z42n6rUUv6RPQ1CvCL4uW/lBKvWyNMladtHsDSC0w210ZJkACAROIgsMNVYZhsWDBUm/wdUO9mpr13rp16+33+vW13vr1deJ0Sw0GEQ7GiDNI3GDtf//7n3fwwQd7H3/8ubdhQ739YD/zGJyNcOC5eK19I91jjjnGW7hwYXrgGzUjyN+ltBhE/jJxnwS0EAjTIIIWQdcwqHz11XFW/6CF69dv8NZt2GAnSqA9TRrY5CBzOoYB3j//+bTVzLWinUOHDvVOPfU8b+WadTa+01EXPpe+OY1DuGuuucZq4FdfLbHpTp8+x/vVr35lj2FSxOltpia7PHJ9o6xwuMGZmJpYaaqPlv5AvdTSEiyHRgKl1Es43K699lqrLzU1tTJZvNobMOA8b8bM2VaHUrZck+PN6Qw4uf1C9M2Fbes3HG7QvCb9al4WaBs0Ltf5zPxcWOgpbF58ENevxZlx8v0Oo79o0Uv6BMJofb15aukPpdTL1ujT4dYaIZ4ngXYSiILDDUYDjAoM6IYMGe4tX77aW7p0lTd69Bve3nsfLCspDvZeemmch9UaK1assQPSM8881858Xn31jdYo+eST6d4FF1ziPfbYY7IKrsY67B5//HF7bNL/Pre/J0z4r42z556/smlh5ce4ce94p59+urf77rt7WFWH3z/84Q9tuDfeeN8eA0MMMJesXCWD4Nr0wBfljtqmxSCKGjeWNxkEwjKInAZiEHnlsGHeK6+Mtho4ceLHVgP32ecQcXzd7B199NFWJ8eM+a/VsN12281qFCYrMDgbNepJ7x9PPmk1cNWqtd6sWV/a+J99Nt178813mq0WwYQENM/p2zxZrXbigNPSYaCFSPOOO+72fv/733tvvPG2TfflMWO9O+8c6R111FEySbLIauuRRx5pdfOiiy7ynCZff/2N6fRxDGXbbLPNPGg10ka++Lzy6nhxKDYfYGrpbdRLLS3BcmgkUEq9xF0F11wzVBxPtd7q1TX27owhQ4Z577wzUSZW/+ftsMMOVj+gYStXrrVhYMs5XXnzzeb2m1/fMKnhVv8iD9h8iIt8xo9/16aB32518CmnDEzn5bT2ttvut87A119/y2ohtNnpG7TOlePd9z7yXnsrlSaOuXyRPuLg2JVXXpn6Fu3HZLNbqYz0oNPQYUyWyK1xNtz48ePtb5TX1RnlduGck67cfUaLXmpxsJSbP/PLTkBLfyilXmavedPRWD3DDfcIcyMBPwENfQLPgJBbSk3fTXuavr17mV69upouXTqb6upKf1FD3RdJMOK7MosWLTf33fc3c+bZA40cMB9OnmKuGjzY/OuJx8306dPNgw8+bm666Rpzzz33mG984xvm4MMONcOuu9Hs8KMfmp122sm8/MKL5oOPp5irr7jCPvPtjtvvM9/7Xj+z556/MPXeRnPN9cPNtVddZpYtW2ZGjXrcDL/5WjPl40/MqSedYsaOHWPuuON2mQSoMpdddrGZOXOWeX/iJLP7z3czQ/58vbntthtMjx49TGVlB1PVsdJUVVTZ/YqKilDZtTVz+cNjZOa1rdECD6/h2gi8UkywXQQ09ImwnrEBDcRHFkyYW2650ez0o13k8yMzd/Ycc/YFvze3Db/RfOc73zS///1lZsSI4WbGjBnm5JMHmFdHv2Te+3CSGTvuDXPt1VeaF156yXTsUG323/9Xpr5ho/Vo3X3nXeYXv9jTTJv2uTn44P1M7002Ma+Oed2sX73ebLfdtubqq4ea228fLnk3mM9FZ3f7v5+IHo41Tz/9oujttebhh/9h+vX7lnlZ4lx2yR/M6FdfN9tv9wMzbNit5uabh5pPPplqZHBs0x469GbTo28Pc9H555k/Xz3Y/OmPl5mlS5cbGWSaM88923zn65uZ0ePGy/nzzbP//peZNWu2OeecQVJ3I3+TKkxFVZWprqwQba1o03M729Xx8kSmXuaBw1OhEoi7XsoKN3PGGWeZbbbZxjSIltWsX2+8qo5m4IAB5g8X/8lcfvlFZueddzLPvvSyWbl0penSqbOZPXumufTSi4w4rcyML2aY6k5dzTXWfhtmlixZZsa/+ZY58fijzd///piZNOljM1z07bbbRpiTTzzRfPObXzdvvvm2tS/vuusv5gnYnXO+Mr8/b5B5/t/PmlNPPcVMmfI/KYNntt92W/PAg6PMaSedZN5/f6LV4mef/bf5av5889/33jEXi/7dfvsIs/nm/cQ2/bG54orrzK23Xmv69u0jduwj5pubf9O8+NwLZscdfyTaeJLVv5EjR5rfHX+8mTtvvpkgen7Y4YeYGdOnmTfemGAGDRpkbrnjLrPlt79jDjnkAPPiiy+IXbuvpHuN2Wuvn5lf/3pfc8opp5qrrx1idhBtrqyoNNVVlaKhxpTTRtWklxquj1AFgpmnCaAvaOgPYdmXFkST7634PbnAPXzC3qRCYReB+SsioKFPAgf6pfZnuKGcmJHD7UmDB9/gLV66wpu/aJn34ujxXv/+58uzi1bILVYT7P6XXy6WMENltcZEb8mSld4DDzwms37Xe+9+8JH3l7+OlJnCYXY13L33Piq6MNy7664Hvbffn+zde+9DMhN4rjd73kJv8pTPvP5nne/N/WqR9/Lr42y6Cxcut+kgvYWLV9g4d9z/d++diZO9Q48/3vts+lxbpiVLVslz4tbZ5f64nSBqq9w4A4nexk0bAS16GeYMJLQEqxiuuuoG7+WXX/UWLFru/VdWR0B/ZsyY5+FWzkMPTe07PVywYJnVPoT5fOZcb+TIx70HH3zKahh0DBp34okXeG+9NdHqJv4euM/IR/9pde6Q352S1rc99vhl+vwJZ57vzZm3yBs+4h5v2ow53hkXXua9/faH3k033e1h5d1hh53gTZUyXXHFUO+550dbPUb+0GNo+K233m1X6aHsKPc7Eyd54ye8Z3V5UaN2//nP11ldRVmxshm30GKVnxZdpV5qUwqWBwSSoJd4PuR18oiRZctWW42YP3+pfezIh1OmenvKs3mni02GOyFmzvzSu/nmlNZgBZzTtylTpnnvvTfZ6hS08f77H/EeevgJD9pj7b5GG/DGm++xq4aRFvTLxcc38oHtd/kV19rj0NJ58xaL1q3ybr/9bqtZuBMDx1E+3BUBuxN6hm/kOW7c283SRLo33HaHtUGh40gLtuwtt9wjjy5Z5n3xxVeyCm5QOg40EmXY66CD7F0fK1asljs9VttwuAPEX96//vVRq71Y8Ye7MfD3pJxaSr2kPmkkkAS9bI17IB4qgNQAE6LHjQQcAQ19EmVBv4yCww1GAZ6Tds0111kDCwM2GEUwZGTlm/fSa2M9DAAxgMSADgM8OOXgYMMAFQPTv9z3oHW2nX/+n6zB8vLLYzw4zXAudUvqIG/27PkeDLbjzzjPmzV3gfcfeVYS9r8UZx/SgWMOtwy8++6Hsv+gGGyTvOOOO9n77LMvvPkLl1rjCLes4vkaYS3bd32smG8aRMVQY5xSE9Cil2E63MAYmoKB2ujRr9lBGCYS4NjCIGza9NkenGMYPEIbMRiEhr3yyljvgAMO8P73+WwPAy440uCsw8AS8XA76pgxE7y99jrIxoW2YjLj73//h3WgOX2DXo4YcaeNi/OYoEB8OM7mzJlvtfH662+3A01MYqAs06bN8u655xHv2WdfsfGQP3QU+cMxh2845RAWWoqXQECzMbDEYNSGFb3FABWDSDyvjg63llebluujZcl4JAwCWvpDKfXSOdzgCINefPnlEnGMLfWmTvtCJiEGpLUMk6LX3HiL1RBoGz7QyOEj7m2csBhgHVbQyYce+odNy9l90M9h4jjDxAI0CPqVcpgtt3Yg8rT5ikZBy9KaJftuQsFNfsA2HT/h3bS+QedgT44Z846dlEAd8MHE8uzZC9I2KuxYfKCX+HaTwyibSw86DD1GuRcvWWHtUExk4G8DJj8WSdnh8HOMlixdGYqW0r4MQw2YZ2sEkqCXrTEIxEMFkBpg0uHWWnMn67yGPgniUXG4oawwsK699no78MKsHwyZk046R94QurzZjCRm/G6SgeHUqTPtQBNGCJxqd9w70vvvfz/0fvCDn3i/+c3hcn6WGC8jrfMM+wcccISsHBnj/U1mOeFkw2o3Z3jN+2qxNZTuu+9haxRhcHiPOPCcww0Dy4ViZGG2Fc/YwINtMTiO2kaDKGotlozyatHLUg4gC2lJTDzgeWcvvTbGrt54//0pdlA1a9Z87/MZs+1qNwwmMQEBbf/oo0/tYA6DOwzWMCB84JEn7f6iJcvlmZjDvFNOOVeem/aZdbhhpQR0D4O3Bx98zK4UPvbYk6yWQhtvE13FQA/nscoCq0huuukv8iy4r6x2Ik846pwuQoOx6u2GG26zzjc4AZscbndZLYV2wuEGjcZqD39ZERblxiAZz5zDix7wHKJyrsrI1y7Uy3x0eC4sAknQS7/DDZOgcCbBqTR73gKrZViNBt2AgwyTDNAS6B8cZ3Dy3yf6Bs2B9kD3MCExePC1dtIV9p+zAeFwg+ZBhxB+D5m8gFPvT3+6Xl44c7732mv/9e6+e6R1wME+hEMMYW+55V7r+HrlFbkTo3G1HBxkTtOcw23q1Blij/7G2qFwGF5++XVSzke90047x/vPf8ZYJyLqd/PNd8okyXLr9EPZ4AS8/Y67bDnmzl1o46FMKBt0Fo426Ds+n8kx2L3PPfeah7CLhQFWC5fbTqVehqUIzDcfgSToZb764xwdbq0R4vnIEtBygUfN4YZbCFauXGMHm87htkRm9NwsIm4pxQq3/Q85xg44nfHjHG6YCcRAEYYJjJt77hkpD9mdZA21l18eY+P0739m2thyDre54nCDoYQZTqwMwQqOv8jqOBhqMG7wwUAVqzDcbU90uBV/eWq5PoqvAWMGSUBLf1DjcHtprHXuY1B1+OH97csPZsyYa51vWNmAQR4Gkttvv5N1jmEFmluBAc13H6wQxoQFVolgUIjj2267i6z0eEZefPCAPJB7up2cwAq5jz+e6u2w867p88ccc6I9n3K4zberfBEOKzbgZEs56mZZbT3ooMPt5MewYSO81AqRFeKoSzncMNBFWbESxd1SikExVtGhPKnbUVfJA8vX2Zcn0OHW8srScn20LBmPhEFAS38opV46h5u7pRROKWjcsmWrvEmTPvW2225Xqx/WNhMnk7PVnPZ9OPl/6UkAhIETrn//k62+jRjxV2sDwqnlHG5IG7qE1cNIA5O2U6Z8Lg66hd6BBx5hj2EiAlqbcrjdY1ch+x1uE954V/TvOusIhC2JdMaPf8dO7Lpy7b//Yd6nn84UZ97ZaYcb0sOKOdQVkxy4fRThf/+HK6xjbtq0uVKXuXYfx1FGhF0od11A43HsrrsetWWFww13hYQxMUyHWxhqwDxbI5AEvWyNQaxemoCH00uFRfe4kYCxD2jU8JDGKLw0wfUXWdUgD+7eaDZsqJOH5DbYh2anHviaeqmCC3f77XeYvffZ13xv6+/KNYeHwsq1Jx95Pqx88D+uw9T1KO8RNRVyba5ctdI888xz8nDvL03Dxgqz58/3NLvutovp0BhfAsmDZuWh3XjKrG9DfFzXnicpy6mO8rKJjh3xwgS+NMGHqc27uDY0XB9tLjgjlISAlv4Q6kNthSy0Rha5mdraOlNXV2/3oW8dOlTIfoOESOnT++9/YB589Ckz7JorRLPwggE5I+HsDloImiU/oWfQNUiiHLHK6En6G+Uh5HgQObaKxpcUIGmJJh952UJDqhwoDzS4skryQPqyIb79NKa/cNFCeQj5g6ZBXrpQ36GTOerQQ8z3ttna2NfJNGoq6oCyIH3/ZsuEPKQOVlc7Vptq5Ccvp8HfrrA3MdTVvGSGehl2b9CTfxL0EvZgHezB9bXyAph6C7+qUl5YVV0tegGd8qxGioPeyJpYOZ+y0eR/G9Yea7TvcGT58pXyApiHzLq1q0VLq+RFMj8XG/CnzXTK2oCSeINonNVfm69ol2gkPtichkHTKkW3UhtySIkbjmODjssT1Gz4lPKmtBPai3NWEyVN6Cr0Dy85wDGcgzYjTr3YwQ11CL/R6qGLUyH6KCVKa6QNV4+/Fyl7uGPnatNVXo4GXtDScr04gXppm57/KSOQBL1sDTkdbq0R4vmyEnjwwQflTT+ntDlPvF3o5JNPbhZPywUeJYcbDCi8KQ/ONhgd2GBgYHO/U/vG1NbVmloJ20HCwdlWiU+HlHFhI8h/cJKlBowYhzalU4eBoRhpMGJgiHSo6mA6Vcnb8aqrGsMh71R4GFcYgGJDWpViwHQQw8gNCstlyNgCBPAfDaIAIDIJSyCOehm2ww1goUu1MtDcKAMobNAuyFemBjbIYLAWOtY4OSFiZgeAbtAmLjWJjUGZDO7kn3NiYVAGjZUb4hFFJh1wDgPHJicbFA96hw0SXCUTDEgHZUE58ME+4mNDUAwS68Qp6MmbVq22ipOuY1W1qRJ9tbop4RuTTEVKxbRhkRbKUCFv16sSfXVl9QUMZZd6GQr2WGa6995727f/trVymu3LUuql3x6EtkAjRBhMR/lgs04pr0EcYw0yQYEJ2pS9CP1DXHnih9WblK6k9AzHGiQOJhSw36RTVaI70MEqq2mIjzRtWNl3tiW00+kwNApa5WxFWyj5z2kiwsJ2RB6wReWXLY/VT9FmaDLsR4SHPjrNS+lrKm7KmYh4TVrtbGIccxosu5aH5GbTxeRFx44drfZaGxdwyrBRL8sAmVm0mYCW8Xgp9bI1KHS4tUaI58tKoNiLMlu8bMfKWpnGzPAHWV6aYPpu2tP07d3L9OrV1XSRma9qWamlbYMBAWMDq9w2WvtAjAcZDOK4f8PADytAamvtsFBOwfDBJ7XqzIVFtJSh0mRswMjaUFtr6mrdbKAYO8KiM1ZWiMNNzLaUYSeJuHwrxVDCht9YaYL8YMQ5A8mejMh/NIgi0lARKGaxGpctXrZjYSAI0yBy9YXO1IvTCk4xr0I0JyWGsmJN9u3ATQZ9kDQ5Ly8YMPXi5MJxDNowaEw53DAwlPiN2plyZMH5Bh1DVAziUoNYHMPfCXygv4jjPigTBmzQO4TDhvhN6aYOIj078MUqC/lggImydO7csVErZYWeaKeLl0pJtNcOQlP6ivNV8sF4upyDRFeWbN/Uy2xUeKwYAri+Mvt/Ielk08ZsxwpJK+gwpdRLsGqyB0WrRPRSWpTSKzi0MEErSmdtRthlcF6lHG4pB1TLY3DQycQAtFU+SKNSbMfOneCcgtNLFAn6Jql6op9OD1N6lKKHONhSjrIKazOmjqT+h32KDRoIfUs53FLn8D/ip7Q35WxDeWFXIpbs2T4CfUdcaws3ZpjS6FTdUxqcShPlwNaUbupvAezZFI/GAKlgJf2fellSvEy8SAJJ0MvW0NDh1hohni8rgWIvymzxsh0ra2UaM8Mf6ag43FBkGCeN9kVOXDCCGjbWyy1M1iyyA0EMCGVtvl2anysiDDgxs0y93LJaW19n86kUPnA+VsttCqlVGCmDxqXhDGQYONgw6ARTGDIpA6hxFJo6rf5/GkTqmygyBSxW47LFy3YsDBClHEC2pT7W2dboXMsWz2qZvTUpNSgUNRL9ksGaCJOswW02aEP8jRj8uZEZfovIYmWw7NmBrNOy1HGIXZNzTFKzKzzkYHpD/ojjNjj3MDjEREh9o4B3lAFsZ7m1CWn5B6wujvv2a2sqHFZzlG+Q6MqR7Zt6mY0KjxVDANeLsyfaEj+bNmY71pY0gwpbar3MtAed3YXygyWkxtqDsmoNkw5Ox3Aeq9P8xxAeji446TA5UC82JJxi1WI7YmIATi/oTsphl3L2bewA75pMNjSu6LVpyCQINkwGI2zm5nTRtTXK599suSUaknHldXalC5cqq1+nJWxjGRDGlQNOSH9+TtPFdSgOxOY8XNql/KZelpIu0y6WQFL0Mh8fOtzy0eG5shMo9qLMFi/bsbJXSDLEH+MoOdyckeK+UX637/jht0xOivOs8ZYpMURShpIYMVkMoKZ48mwOGaTieSB43hA2GFkwTCoqcEtBS+PJxc38doZS5nHtv2kQaW+h6JSvWI3LFi/bsTBIlHoAWWidoHF+3cumgxhsQs8wiYDBmxssplZYNDnMXJ5+HxYGmkgf6Vqnm/3GQA6hm2suTjWedkm1+E7dnpVaPZJ61pyxK4ZTt2ilJihaRMpyIFWe1N+tLKfLfoh6WXbksc0w2zVcSGWzaWO2Y4WkFXSYUuul00D3DYZOI1AXHMcHWpg61+TccsecvrlwcOLV2+edpcKm7lbA3RFwoDUn1KSTNjd7EsewuVvs7Y9W/nPlTwVLaXOqHo23yjbGxzF/WOhxSpOdJqbCN5WrSb8zj+HvgZ9VK0UM5DT1MhCMTCRgAknRy3zY6HDLR4fnykJgyy23NCeddJLNq1OnTvLA/g3pfEeNGmW++OKL9O9cO9ku5mzHcsUv5XH8wY2Sw60QFjBIUp9U6JRRkRo85jIwnBGDbzs4bLRixHyzRlbKOHFGTfZSIG6u9LPH0HeUBpG+NolSifLpZe/evc0FF1zQanWyaWO2Y60mVIIApR5ABlVkv541SploU379Qt7QLxe3rWXxa59fC7GPMrjVKPLLJo25j9StqG6AmvrOzNeVx59+ZpiwflMvwyIfj3z9etmzZ0+zatWqdMWol2kU7dpx+lFIItl1CquDm26ZdzpUSLoubL68W0snXxqtxc2Xb75088VrzznqZXvoMW6pCNC+FLIiJu3e5AL38Al7C6g6YVcjcfnna7d85/ygsvW/bMf8ccq1jzqIw837cPLn8jrzRd7KlWs8ee5PubJXmY8MDD3/R2UhS1Qovra9RGATkmw+TSxU87KFy3YsDKQn9B/ojZ3wEfWyCPh+TXX7RSSjKgr1UlVzRK4w1EudTeb0yX3rLGX0SkW9jF6bJaHEtC/trGj7mxogNcDM94e1/bVkCqUikK/d8p3zlydb/8t2zB+nXPuoAx1u5aKtPx8aRPrbSHMJ82lioZqXLVy2Y2FwoMMtDOp686Re6m2bKJSMehmFVmIZgyJAvQyKJNMJkgDtSzrcguxPTKtIAnvttRfuf7EfWfKf3scxnCtky3YxZztWSFpBh0E96HALmmp006NBFN2201DyfHo5cuTIgoqYTRuzHSsosYAD0eEWMNCIJ0e9jHgDhlx8v15++9vfbmZfUi9DbhxmHzgB6mXgSJlgAARoX9LhFkA3YhJBEij2oswWL9uxIMtaaFp0uBVKKhnhaBAlo53LUctiNS5bvGzHylGHzDzocMskkuzf1Mtkt3+QtYctVsyWTRuzHSsm7fbGoV62l2C84lMv49WecakN9ZIOt7j05djUo9iLMlu8bMfCAEWHWxjU9eZJg0hv20StZMVqXLZ42Y6FwYMDyDCo682Teqm3baJWMjrcotZiLG9bCVAv20qM4ctBgPYlHW7l6GfMoxUC/iX/vKW0FVg8HXkCNIgi34ShViCfXvIWqVCbhpmXgAD1sgRQE5SkXy95S2mCGj6hVaVeJrThlVebDjc63JR30WQUL9+sY75zfjrZLuZsx/xxyrXPFW7lIh2NfGgQRaOdtJYynyYWqnnZwmU7FgYDrnALg7rePKmXetsmCiWjXkahlVjGoAhQL4MiyXSCJED7kg63IPsT0yqSQD6DKN85f3bZLuZsx/xxyrWPOvClCeWirT8fGkT620hzCfNpYqGaly1ctmNhcKDDLQzqevOkXuptmyiUjHoZhVZiGYMiQL0MiiTTCZIA7UvP6wCg8gepXdvVV19t47vvdiXWjsgdOnTAE1HbkQKjhkFgyy23NCeddJLNulOnTmbDhg3pYowaNcp88cUX6d+5dtD3MvtftmO54pfyOPqlONxM3017mr69e5levbqaLl06m+rqylJmy7SVEpA/PGbw4MGhl07L9RE6iIgVIJ9e9u7d21xwwQWt1ihb22c71mpCJQjQ/8TTzWmnD7I6Sb0sAeCIJUm9jFiDKSuuXy/lkSVm1apV6RJSL9MouBMTAtTLmDRkzKpB+1IaNAgPJjyX+IS9BVSdsKuR6PyL7UfZ4mU7FgZc9EuucAuDvM48OQOps12iWKpiNS5bvGzHwmDCFW5hUNebJ/VSb9tErWTFjhGyaWO2Y2HwoF6GQV1vntRLvW2T5JJRL3lLaZL7v8q6F3tRZouX7VgYlabDLQzqevOkQaS3baJWsmI1Llu8bMfC4MEBZBjU9eZJvdTbNlErGR1uUWsxlretBKiXbSXG8OUgQPuSDrdy9DPm0QYCxV6U2eJlO9aGogQWlA63wFDGIiEaRLFoRhWVKFbjssXLdiyMStLhFgZ1vXlSL/W2TdRKRodb1FqM5W0rAeplW4kxfDkI0L6kw60c/Yx5tIHAyJEj8RC+Nn8QL3PTcoHT4ZbZMsn+TYMo2e0fZO3jqJd0uAXZQ6KfFvUy+m2opQZ77bVXm21L2G+a7UvqpZbepaMc1Esd7cBSNCegZTwepl7ypQny1zTsbdy4cWaTTTYxP/zhD0tWlHXr1pmnn37a7LHHHmbzzTcvWT6aEtbykEa+NEFTrwi/LPKHhy9NCL8ZWpRgyZIl5ssvvzQ77rhji3OZB+bMmWMmT55s9ttvP3n5SXXm6Uj+1qKXfGlCJLtPyQpNvSwZ2rwJQ9+gc7k0btasWfYFBKW0W/MWMOST1MuQG4DZZyVAvcyKhQdDJkC9lAZo7oMs7hc8l/iEvQVUnbJXY8iQId7DDz9c0nxlMOmJ4eS98cYbJc1HU+Ia+iR4oF/ypQmaeka4ZeEMZLj8c+U+depU7+9//3uu082OQ0fPPPNMTyYymh2P8g8tehnmDGSU2y+uZadehtOysEnzadzYsWNLbreGU/PCcqVeFsaJocpLgHpZXt7MrTAC1EveUlpYTylxKDjcbrnlFusQ23vvvdO5YTAHgwcOG+cocwO92tpaa+wgLjZ8H3744Tas30h65pln0secw+2jjz6yx5CuzE56GGjCeDr66KPt8RtvvNE79thjvbVr13pw1CE9fEdt03KBJ9HhtnHjRs//iVrfKWV5aRCVji4Gibje/BMY0Eb/Maer0Focx3k3IbHVVlt58+bNs5rn9HDGjBlpHUb42bNnWz3262zpalS+lLXoZRIdbn6txD63JgLUyyYW5diDjbnZZpt5l1xyidU96KWzI6F/TveOOOKItK46TfVuI0ToAAApMElEQVSfL0dZw8yDehkm/VTe1MqWbUC9bMmER8InQL2kwy38XiglwIDPOb7uvffetHMNx2HcYMDnzudzuCEunGcI6xx0MJpgDOE3jCF8X3fddWkHGvLABw43Z0g548kNLHE+ipuWCxzck7LC7U9/+pO39dZbe507d/bq6zc2fuqt8y2KfagUZaZBVAqqntU2aNjKlSvthAG0EI43TDTIrVFpXXT6hkEk9NBpq1vh5s473fNrI8Jfc8016bwQNi6bFr1MksONetn61UO9bJ1RUCGc/egmGZxN6LTQTUxAB/0r3HAeH0zSuondoMqkNR3qZXlbBn9r8ff80ksv9X73u995DQ0N9uMmK8pbGr25US/1tk2SS0a9pMOt7P3fb7DAQMFqM2esoDDutxv0wbDBajYYPvhjg9/Yz7bCDQaQPx7277rrLltH/3F/pZEm8kdcfLsNx11ZkCe2O+64w+YPgyoKK960XOBJcLi9/vrr3vbbb+9dfPFl4vT9Qgzv9V5NTa39bNhQnzaMXP9K8jcNova3vtPRhx56KL2aDfoF3fJv/mPYx8dpIfQN6WA1LwaamQ43l5ZzzCFdxL3++uvTOozfCIdyREUX/Xz8+1r0MgkON+qlv+fl36de5ufTnrPQrvvvv99qILTQb1+6fWic25x24pzf4ebOO1vV2YxOf53jzoWLwzf1sryt+LOf/cw75JBDZMHAbfLoh396sCvxqatrcryVt0Q6c6Ne6myXpJeKeul5fGmCeEPKtS1cuNDcfPPN5pe//KV58803zW677Wb2339/Iysm7EsTBg0aZN59913z8ssvm/PPP9+cfvrp5txzzzX/93//Zy677DL7MO8tttjCiJFkRowYYWRFm1m+fLm58sorbRqHHnqo+d73vmcuvPBCc8IJJ5gddtjB/PWvf7W/a2pq0sc//fRTI6vXTFVVlZkyZYrZaaed7MsU5FYqc/zxx1scCxYsMM8++6yZPn26wcMOu3btavdlYGnkD58ZPXq0zUNWh5QLX5vz0fKQxri/NEFmHM3MmTOlH15lvrP5Fua10a/J78/NypWrTM+ePc2ee+5tfrTzj0xVRQcDFhXyjQ37SdzkDw9fmtCOhsfDvKGB0FHo2MCBA01dXZ2R1UJWI52GZR77y1/+YvXy4osvtloITe3WrZuB7kIrsEF/f/vb36a1Elr3yCOPGOgu9pEmtBeajDLIowBMly5djAxaTb9+/SKhi7aiWf7Topdxf2kC9TJL58tziHqZB06Rp8RxZu677z48w9l06tTJyO3zZtNNNzUvvPCCef75563GQQuhcTfccIORyVarffX19dY+ve222wz2YTMi7qOPPmreeecdm8aLL75ocN7p5QMPPGC+9rWvmbfffttqbVxe2kW9LLLztTHaY489Zv7973+bP/zhciO3Ops33vqvmTVzmrUv+/XbwhxwwEHm/31tU1Ppsy+TalsCLfWyjR2MwctCgHopmIPwusJziU/YW0DVKWk13IyfGDLpFWU45lZHFHJLKW6Bwi1SiIO42PCNFRv+GUgcx2oMHMOMI/jg2x1zq0QQN9tsJZ7R4WYqkZYL4y87jmvdNPRJsAH3uN5SOmrUKO83v/mNrLis99aur/WOPPJob+jQoZ68wcx2C3zvu+++3iOPPCGr3mpsGLfiTWu/KXW5OAPZfsLQLOgQVt26Db+xkgK3lEIboV04hv1st5Tilvl8K9yc9kH33AoNHMt2SynKERVddLwyv7XoZZxXuFEvM3td67+pl60zKiYEVvRide8999xjV/ciDWcT+m8pXbp0qbUZcR765+xIZw86mxP6B0115xEe53CXhdNrHIvLRr0sfUuij22zzTZ2FdukSalnT/vty+eee872N799CVs0yc92o16Wvl8yh7YToF7yltK295p2xnAGDQwX5yTDt3tpApxcbnOGjN+AwTmEx8O9EQf77lg2h5t72C0GjHieG/KFUw9pYiD6r3/9yw4mZcWaHTDaxBr/gyGG8rqNt5Q6Em37Buu4OtzwYPmRI/9hbx2dNOlj7+STT24BB043MHjr3Q+95cvXWMcbnG5JNYpoELXoIm0+4HTUf0spEoEeoq9h8Oe2zGNOVzMdbi5N99IEaCU2d5sU0sUH8XDOOeGQF28pdbTb/x1nhxv1su39g3rZdmaFxoB2+W8pRTxoG3QOdqJ7BvCAAQPsMWgpPogHe9NprYuDF9G480jL7TutxLG4bBxAlr4lZfW5dfbCXjzrrLO9cePGtcgUx9AP33znA2tfrlu33j47mPZlC1RlPaDl+ihrpZlZTgJa+kOY9iVXuOXsHjzhXz0SRRpaLnAYA9kcblE3CFB+vCDhf/+bKQ639V7//qd5EyZMyNpVMCv5u9+d5s2du9BbvHSFfcYbXqoQdQZZK5vnIOrLAWQeQDwVGgEtepnLIIq6VlAv2961qZdtZ8YY5SFAvSwtZ1z7P/7xj7133vnI3hlx4YWX5MwQ9uVxx51q7cvlK1bbCWDalzlxleWEluujLJVlJq0S0NIfctmXrVYggAB8hpt4Q7i1JIDnyuF5CXiOXFQ3LfeMNz3Drbfp06u76dWrqzz3qbM8Q68iqmjT5cYzsJYsWQHHvfnBD7Y2H3/8sendu3f6vNuRVUHy3Ku95BlXY+W5WZ1N7026my6dOwmDSnmWGyYok7NdffVgM2TI4NArrOX6CB0EC2AJaOkPeIbbqQPPER3pQb2kXhrqJQVKIwFNenna6YPEruzu08suYlulnpmrkV0hZYJN2adPH3ke8FzTuXO1GTbserGbhmSN6rcvYVtu0rubqayson2ZlVZ5Dmq5PspTW+bSGgEt/SHMZwTT4dZaL+H5yBLABa5hGzx4sMFF3qVLJzEcOpqOHatMdVVV+uUBGspYbBluuGGYWbp0halvaDBb9Pu2WbRokdSxc4vkVqxYYb797S3Mb486zlRXV5luXVMsKioqYsGhRYXzHBg/fpzZZ5998oQo3ykt10j5asycchHQ0heefuY58+Mf/1Qe5l5NvaReGuplriuWx8MkAL3U8HD+Z5971fxk1z1NJ7GrOnWuMFUdKsTGNKahYmOYeNqdtwxOzXXiYFu9eq2R57LJizhuyvmyKb992UVs7K5dO4udWSm2Je3LdjdEOxLQYlO0owqMGhAB9AUN/YEOt4AaFH/8MCvCjQRAQMsFjn75ymvvywxkD9O7R1fTvXsXMYyqTVVltFe44VL78Y93N08+87j5lqyG/MMf/ihvjDzJ/PznP2/RAYcNGyZvMfvEnDXoAuts69NHVq/ICpaqqmqZicRMbIsosT0wdOj1drY27ApquT7C5sD8UwS09IcTZHJiwICzTPce3aiX1EtDvaRCaSSgSS9PPfVs0617V3v3RC+xLzvL3QOVYl9qcAgW23YYy33ve98Vh/u7drXzDTcMNTffPDxrcn77Eqvb+vTtaXp07WJXudG+zIqs5Ae1XB8lrygzKIiAlv5Ah1tBzdV6II0ON3nDkzn++OPtq9T9NZCHyBp56YGseupiD9fU1JgLL7zQyIsMzGGHHeYPmt5/5JFHzAknnGB/Ywk1Xq+OWz/lmVBG3lxqXnvtNfta9nSENu68+eabRh5wb8v72WefmT333NMsXLgwnYo8JNe+nhv5+Td5gK6N4z+mYV/LBY5++fLo980mPbuZHtbh1tl0lFm4yg6VGjC1owyeOeXcM80Be+xvDjnkQDN9+gwzcuTd8hnZLE301S222MLc/7enTb9vb246dekotwr0MJvILRDVsoqlUvgYkxyP2w3DrzfDxXgMe9Nyffg5+DXOf1weym1+9rOfpQ9B96BXTz/9tMxmd00fdzt+3YXWjhgxQm5NmWnkofVm8uTJ9taUK6+80gVv8zf0+qabbjJnn3226du3r12xOGbMmGbpoN8jnMvTnYTGo56Ip2nT0h/kGRvmlAHnmJ7dO1MvqZeGepldJfwa5w+Ry7ZEGOhgdXW1P7jd9+uu09py2pYuT385XCFpXzoS2b+hlwNOPcf0kEd19BQbs7voZsdO4nCriLZNhQndw0442lxw2vlm991/ai6//A/mlFP6mz322KMZiPHjx9uxirMve8gjW/r06Wm6yR0ltC+boSrrDy32RFkrzcxyEtDSH+hwy9lEbTuh0eHmr8GRRx5pnWr+gaP/fGv7fmNEXpdtfvrTn9r05G2i7Xa4yRv6zL777msuvfTStMPt9ttvN/JK92bFcgNdjQPGZgWVH1oucPTLuK5we+qp58yjzz5uHrn3b6ahwTNnnnmWOEZ2Nscdd5zp16+fgdPh1FNPNbvvcZjZbdddTGVV6nZSrnC7PrO7lv23lusjW8Xvu+8+8+GHHzablMgWLtcx/2DUTUZgEsGtvsSzYNrjcMvUwYEDB8qqxWFpJxrO4xmYmLSAw83paq7yajiupT/EeYUb9bLtPZ0r3FpnFqRtCW384x//aM477zxTDtvS2bWwFeSlS2b48OHmiSeeMNtss42dHOnfv3/6d+skyhdCm15ihRsmdfGMXNxBUVmB5+NG1+mGFW533nmX+Xz+fDPsiivN1KnTZWJrV1nxOjRtXz7//PPm4IMPNlcOviNtX3KFG++gKJ8KMKdCCWjRSzrcCm2xVsJFzeGGQdknn3xi/vGPf9jVaU8++aRd4TZlyhS7emPLLbe0Bo+8kt088MADdlUEVrhhAAeHxrbbbmv3f/CDH8gfo6k2jbvvvju94g0rKXr27GnOOuss60TDwHP16tXm1VdflaXZN6dX0mEGce3ateaMM86whGFwIQ863FrpcAWeTjncJpo+m8gtpb2721tKMfsW9ZcmYAZSXiRldtllDzHQL5G+u6+siFwiBtEwM3bsGLNgwSxxOvQzJ558utl7n1/Ks0UqTVWnKvt8ja/17WVZ4HluSVvyj+v+uuuuLbD3lC6Ylj+A2WqY6XDDajY4yLCKzD04GcegUdA/HHMrbzEZsf3226dX3c4Xg/25554zo0aNsrqK37/97W+tLmKSASvesCrkiy++MJdccon55z//aYvUo0cPc+ONN5rzzz/f5utWxh166KFmxx13tGGgqRgcYrWb3+GGQSTSO+qoo+hwy9bAeY7B4XbqabLCTVYDUy+pl9TLPBdL46lMh1s22xJBoXvQNGdb4phzdDnbEg+qlzfKWVu0HLal/+4O2KF+h9ucOXPsxJ1bAYfyatm0/P20eim3lOLuiV69uple8u1uKTVGjLSIbrAv589fJH/fv2veeneS+c43vmk++2y6ue++e9P25c47/8KcOehC861vfjNtX+JRJf9v0172mcm0L8NrfC3XR3gEmLOfgJb+QIebv1XasR9Fh1tdXZ0dLPqNDjjcMDh84YUXzHe/+115ns0Ac8UVV5j333/f3lJ67733mrlz59oVFDBEsGrj/vvvN7feeqv53e9+Zx577DF7DIPABnmYvXO4fec737EDVAxcN910U3PxxRcbpIW4GDT6V2JgNQgGoVihgW3rrbc2xxxzjB1Uomww8HA7bPfu3c3JJ5/crltZ29HkeaNqucDRL199faKsfull3yLVs2dX63TCMzaivsHhNnv2LLm1+Tp5yHlP80txuv3g+9uaiqoqs6GmzqyvrTP1dfVyw2gHU9Wx0nSVWx0wA4sVbniWXYXMwspzbRO1DR48RHgNDr3OWq6PbCCyOdwwSYBbSLFhQOl3uD300ENWG9955x2rZzfccIN1uH3jG98wX//61833v/9989e//lWeMTjQPP744/b2VKxAe++996wmQk8PPPBAq4dwuOE3wkOfzz33XPPoo49ap9tBBx1kB6jOeedW+kIPoZHQxPr6evsIAZThW9/6ltVVnNthhx1s2ffee++0rtoDSv7T0h8wgDxN3lLq3rpHvaReUi/zi0Q2h1umbYkU4HDDxKqzLaFxmIDAajI43GAPQtuwuu2ZZ54pmW2ZOZkLPYce463nF110kZ2owC33cAZCUzGhAptV06ZNL3E76SYyodtLnn3ZVWysCnl5QpTfAA+HG7a3333f/GXEfeaXv9rD7Pfr/Y2YnKZm/QZTs26DWVuzQcY4G43UNG1fboLHlQgHvHSH9mWKYRj/a7k+wqg782xJQEt/CNPhhpcMtHuT2TAPn7A3aeKwi5A3/yOOOMITB1k6jBgRnhg49ve6des8cXB5YuR4OC6r0zy5zdOeE4ebjScr0fAnyHvllVdsWITBMXxkpYX31FNPNYuH42LI2HQQFuliwzGcw+biygo5m4Y7jt/iqLNh/P9lls1/Ttu+hj4JJmiz0a9P9D6c/Lk3Z84ib+XKNZ68dcnbKN6qKG8ovzh0vQ0b6r2amvW2XpddNsTr1287r1OnTt606fO8Tz+d5U2ZMtP75JNZ9vfcuQu9xUtXeGvXrvfq6zdGnkFb2w/MZCVWW6OVJLyW6yNb5aCL0EPoIjboJnTQbU6HoFO4vpyuQjNPO+20tOYhDejl4YcfbrVRJhLsN+L7dRDxoJGjR4+2+bq8XXquDMhLBoEtNNrl6coHHYXeZ+qqO6/xW0t/kGcSeWMnfES9FP2kXlIvC9GKQmxLaBr0zW9bOl2FXvltS5lcLattCT2G5vvtUdQbWoty4by2TZ9ezhBeC60dtmFDnbWtYG9E+ePsy3Xr1nuDhw735PmD3rbb7uIdfPBR3vSZX1n78uOPv2hmXy5fsVrs0VralyFfMFquj5AxMPtGAlr6Qy77shwNFYiHCiA1wMQfZs1bIUZRIQ43GElIC/XFvjNS4HCD4w2DPGw4Todb+D0C7ZTN4RZ+ydpfAhhzcJzBwFmzZp23ZOkqb+HCZd5XXy315s1bZA3A2bMXeF9+ucRbuHiFt3z5GnG21VgnHeImcaPDrfVWD9LhJqvVvK222so60rDvJh+gjW4gF7TDzU1Y0OHWeltnhgjTIMosS9C/qZdtJ0q9bJ1ZIbZlIQ43Z0+W07b0TzY7W9bZsHKLaVqvW6dQ3hAaxjyocdz1sq6uwVsnDsQVK9Z4c79a7L0y5k0Z2zxlbco5cxbaSQnYm86+hHMuiZO5rvdTLx0JfmsiQL2UxTdBNAhAaoAZJ4cb6gLjA8YIZhsxIMRvZwhhtYebqXRGygcffGDP47cbQNLhFkQPb18aaLO4OtxABrOQWLG3dn2tGEVr7Qq2BYuWe/MXLbOfRYtX2llXONoQBiviECepGw2i1lu+rQ43tyIN2gdtdPqH49j/yU9+YvXTHYejDZMbfg2112mAK9xQDjrcWm/rzBBxHkCirtTLzBbP/5t6mZ8PzrbF4ea3LaGPbmWZsy3hdMMEBbSyHLYl8kPeWM3m8nMON7fCDce1bRrGPGASZ73EBIVb5Qb7calM6OIOCTjXYF/iG8dWrVprJ3JhX8bh7pH29HXqZXvoMW6pCFAv6XArVd/Kmm4hRpF/hdstt9xiDRE4zbDB6HBGkX9A6oyUxYsX2xUbCIOVbvIA8IJXuMlzPOwKEMSFETZp0qSct5QijP/jVolkrXSIB7Vc4GAVZ4eb3yhaI7OLuGV22bLVYrCvajSGZFVbo6MNs5UwoJK6ug2XAw2i1kXBr28IjUFZvltKER6ah2vto48+auZww6SF016/ww166eJA8+B8K/SWUjdIRH7Yl+eyNdNEVw7ncMNv9/GvQm6dRPlCaNHLOA8g0ZrUy7b1aepl67ycvrmQsMmgidjcCjJonLul1NmW0CLooN+2hEZikhfxSmVbyvPa0nroNBRldeVwWolv2pcgk3tLgl6m7qLY4K1evc7eJQHbcsmSlWJnrko72jCRi3BJnsxFL6Fe5r5WeCY8ArQvPa8D8MsftXZteBgeNvdtf4Twn/aXJhSKRBxs9oHg7oHchcZbvny5+fWvf23EiDJ4QcL48ePtyxb22WefQpOIVTgtD2lEvxSHm+m7aU/Tt3cveRh4V3kQcGdTXV0ZG96QEXzElybfGxu/U9JSIS+HqJJPRYW8OkFY4JPkTf7wmMGD+dKEIPpAe95ihxcsDBo0yL6Nb+XKlfatoniBDF60kMRNi16G+lDbMjU89bJw0NTLwlm1FnLcuHHyFvGh9o33eClBoRtty5akqJctmZTqCPRSFruZOnlBgicf+d/I4FWy62AqKivFvpRv2pcWP/WyVL2Q6baHAPVS1EqEjA639vQixlVLQMsFngSHm+sEbiCJ3+LPbzwsb5GSV5Em3dHmGNEgciT4rYmAFr1MgsPNtTv10pHI/U29zM2GZ8IjQL0sL3u/Vm7cmMobxyrF2caJ3Ka2oF42seCeHgLUSzrc9PRGliRwAlou8CQ53FwjwhDyb3S2NdGgQdTEgnt6CGjRyyQ53FzrUy8diZbf1MuWTHgkfALUy3DawGml+6azrXk7UC+b8+AvHQSol3S46eiJLEVJCGi5wJPocCtJg8YkURpEMWnImFVDi14m0eEWs64UaHWol4HiZGIBEaBeBgSSyQRKgHoZKE4mFhAB6iUdbgF1JSajkYCWC5wON429I7wy0SAKjz1zzk1Ai17S4Za7jZJ4hnqZxFbXX2fqpf42SmIJqZdJbHX9daZe0uGmv5eyhEUT0HKB0+FWdBPGMiINolg2a+QrpUUv6XCLfFcKtALUy0BxMrGACFAvAwLJZAIlQL0MFCcTC4gA9ZIOt4C6EpPRSEDLBU6Hm8beEV6ZaBCFx5455yagRS/pcMvdRkk8Q71MYqvrrzP1Un8bJbGE1Msktrr+OlMv6XDT30tZwqIJaLnA6XArugljGZEGUSybNfKV0qKXdLhFvisFWgHqZaA4mVhABKiXAYFkMoESoF4GipOJBUSAekmHW0BdicloJKDlAqfDTWPvCK9MNIjCY8+ccxPQopd0uOVuoySeoV4msdX115l6qb+NklhC6mUSW11/namXdLjp76UsYdEEtFzgdLgV3YSxjEiDKJbNGvlKadFLOtwi35UCrQD1MlCcTCwgAtTLgEAymUAJUC8DxcnEAiJAvaTDLaCuxGQ0EtBygdPhprF3hFcmGkThsWfOuQlo0Us63HK3URLPUC+T2Or660y91N9GSSwh9TKJra6/ztRLOtz091KWsGgCWi5wOtyKbsJYRqRBFMtmjXyltOglHW6R70qBVoB6GShOJhYQAeplQCCZTKAEqJeB4mRiARGgXtLhFlBXYjIaCWi5wOlw09g7wisTDaLw2DPn3AS06CUdbrnbKIlnqJdJbHX9daZe6m+jJJaQepnEVtdfZ+olHW76eylLWDQBLRc4HW5FN2EsI9IgimWzRr5SWvSSDrfId6VAK0C9DBQnEwuIAPUyIJBMJlAC1MtAcTKxgAhQL+lwC6grMRmNBLRc4HS4aewd4ZWJBlF47JlzbgJa9JIOt9xtlMQz1Msktrr+OlMv9bdREktIvUxiq+uvM/WSDjf9vZQlLJqAlgucDreimzCWEWkQxbJZI18pLXpJh1vku1KgFaBeBoqTiQVEgHoZEEgmEygB6mWgOJlYQASol3S4BdSVmIxGAloucDrcNPaO8MpEgyg89sw5NwEtekmHW+42SuIZ6mUSW11/namX+tsoiSWkXiax1fXXmXpJh5v+XsoSFk1AywVOh1vRTRjLiDSIYtmska+UFr2kwy3yXSnQClAvA8XJxAIiQL0MCCSTCZQA9TJQnEwsIALUSzrcAupKTEYjAS0XOB1uGntHeGWiQRQee+acm4AWvaTDLXcbJfEM9TKJra6/ztRL/W2UxBJSL5PY6vrrTL2kw01/L2UJiyag5QKnw63oJoxlRBpEsWzWyFdKi17S4Rb5rhRoBaiXgeJkYgERoF4GBJLJBEqAehkoTiYWEAHqJR1uAXUlJqORgJYLnA43jb0jvDLRIAqPPXPOTUCLXtLhlruNkniGepnEVtdfZ+ql/jZKYgk16WUS+bPOuQlAM8PewrQvO3iytReAg+i+25tesfHh2AigOsVmz3jKCGgxiOhwU9YxQi6OJoMobM0OuSmYvY+AFr0M0yDy4eCuEgLUSyUNwWI0I0C9bIaDP5QQ0KKXSnCwGCTQjECY9iUdbs2agj/iRECLQUSHW5x6VfvrosUg0nJ9tJ8oUwiCgJb+EKZBFARHphEsAeplsDyZWjAEqJfBcGQqwRLQopfB1oqpkUAwBMK0L2PncAumSZhKXAhoWPFIh1tcelMw9dBiEKFfciMBPwENehmmQeRnwX0dBKiXOtqBpWhJgHrZkgmPhEtAi16GS4G5k0B2AmHal7FyuGXHy6MkEC4BOtzC5a8tdxpE2lqE5dFEIEyDSBMHliVFgHrJnkACuQlQL3OzSeIZ6mUSW511LpRAmHpJh1uhrcRwJFAkATrcigQX02g0iGLasKxWIATCNIgCqQATCZQA9TJQnEwsZgSolzFr0HZWh3rZToCMHmsCYeolHW6x7lqsnAYCdLhpaAU9ZaBBpKctWBJ9BMI0iPTRYImol+wDJJCbAPUyN5sknqFeJrHVWedCCYSpl3S4FdpKDEcCRRKgw61IcDGNRoMopg3LagVCIEyDKJAKMJFACVAvA8XJxGJGgHoZswZtZ3Wol+0EyOixJhCmXtLhFuuuxcppIECHm4ZW0FMGGkR62oIl0UcgTINIHw2WiHrJPkACuQlQL3OzSeIZ6mUSW511LpRAmHpJh1uhrcRwJFAkATrcigQX02g0iGLasKxWIATCNIgCqQATCZQA9TJQnEwsZgSolzFr0HZWh3rZToCMHmsCYeolHW6x7lqsnAYCdLhpaAU9ZaBBpKctWBJ9BMI0iPTRYImol+wDJJCbAPUyN5sknqFeJrHVWedCCYSpl3S4FdpKDEcCRRKgw61IcDGNRoMopg3LagVCIEyDKJAKMJFACVAvA8XJxGJGgHoZswZtZ3Wol+0EyOixJhCmXtLhFuuuxcppIECHm4ZW0FMGGkR62oIl0UcgTINIHw2WiHrJPkACuQlQL3OzSeIZ6mUSW511LpRAmHpJh1uhrcRwJFAkATrcigQX02g0iGLasKxWIATCNIgCqQATCZQA9TJQnEwsZgSolzFr0HZWh3rZToCMHmsCYeolHW6x7lqsnAYCdLhpaAU9ZaBBpKctWBJ9BMI0iPTRYImol+wDJJCbAPUyN5sknqFeJrHVWedCCYSpl3S4FdpKDEcCRRKgw61IcDGNRoMopg3LagVCIEyDKJAKMJFACVAvA8XJxGJGgHoZswZtZ3Wol+0EyOixJhCmXtLhFuuuxcppIECHm4ZW0FMGGkR62oIl0UcgTINIHw2WiHrJPkACuQlQL3OzSeIZ6mUSW511LpRAmHpJh1uhrcRwJFAkATrcigQX02g0iGLasKxWIATCNIgCqQATCZQA9TJQnEwsZgSolzFr0HZWh3rZToCMHmsCYeolHW6x7lqsnAYCdLhpaAU9ZaBBpKctWBJ9BMI0iPTRYImol+wDJJCbAPUyN5sknqFeJrHVWedCCYSpl3S4FdpKDEcCRRJIOdw+MJtu2tP06d3T9OrV1XTp0tlUV1cWmSKjRZkADaIotx7LXmoCziDq3asb9bLUsCOQPvUyAo3EIoZGgHoZGnqVGVMvVTYLC6WEAPRy4Onn2nF4ucfjgTjcbrzxZotywYKFZv36WrO+ts7U1dYbz/OUIGYxSCA8At/5dj/z6/0PMn379DCb9O4hF3o307lzJzrcwmuSUHOeOPED89RTT5sNG0QrqZehtgUz10dgj1/sa7bdbjvTq2dX6qW+5il7iaiXZUfODCNEgHoZocYqQ1Gpl2WAzCwiS8Dq5fZiX/Yov30ZiMOtpqbWwl+9eq1ZvmqtWbO6xtSs32AaGjZGtlFYcBIIikBFhwrTsVOV6d27u9mkZzfTrVsX06lTtamq4gq3oBhHKZ36+gZxttWZtWtrqJdRajiWtSwEKisrTBeZkOjeowv1sizEdWdCvdTdPixduASol+Hy15Z7Si9rxb5cT/tSW+OwPKETCFMvA3G41cpqNmyr4WirqTFrajaYOhlQNnh0uIXeu1iA0Al0MB1kNVuV6dm9i9xK2sV0795JnG1VBhc+t+QRwEREfX29WbNmA/Uyec3PGrdCoFImKKplQqJ7l07Uy1ZYJeE09TIJrcw6FkuAelksuXjGo17Gs11Zq2AIhKmXgTjc6uoaLIm6ujoZQIqjraHewAmXuqW0QzCUmAoJRJKAZzrIJVBZWWk6duwoA8hq2a8SB1yFqaigwy2STdrOQm/cuNHU1W20Okm9bCdMRo8ZAehlB9FKTEhUUS9j1rrFVId6WQw1xkkGAeplMtq58FpSLwtnxZBJIxCuXgbicNu4MfWstpTjDas3Nhpc9HyGW9I6M+ubjQAGkPikXpJQYW8lha8Nx7gljwB0UeRRdBITFdTL5PUA1jgfAegiJiOqqjAhQb3MxyoJ56iXSWhl1rFYAtTLYsnFMx71Mp7tyloFQyBMvQzE4eYca/jGexLcdzB4mAoJRJ8AfGu40Ju+6WyLfqsWX4OURlIviyfImHEm0KSTTjepl3Fu79bqRr1sjRDPJ5kA9TLJrd+y7tTLlkx4hAQcgbD0MhCHm6sEv0mABEiABEiABEiABEiABEiABEiABEiABEgg6QTocEt6D2D9SYAESIAESIAESIAESIAESIAESIAESIAEAiVAh1ugOJkYCZAACZAACZAACZAACZAACZAACZAACZBA0gnQ4Zb0HsD6kwAJkAAJkAAJkAAJkAAJkAAJkAAJkAAJBEqADrdAcTIxEiABEiABEiABEiABEiABEiABEiABEiCBpBOgwy3pPYD1JwESIAESIAESIAESIAESIAESIAESIAESCJQAHW6B4mRiJEACJEACJEACJEACJEACJEACJEACJEACSSdAh1vSewDrTwIkQAIkQAIkQAIkQAIkQAIkQAIkQAIkECgBOtwCxcnESIAESIAESIAESIAESIAESIAESIAESIAEkk6ADrek9wDWnwRIgARIgARIgARIgARIgARIgARIgARIIFACdLgFipOJkQAJkAAJkAAJkAAJkAAJkAAJkAAJkAAJJJ0AHW5J7wGsPwmQAAmQAAmQAAmQAAmQAAmQAAmQAAmQQKAE6HALFCcTIwESIAESIAESIAESIAESIAESIAESIAESSDoBOtyS3gNYfxIgARIgARIgARIgARIgARIgARIgARIggUAJ0OEWKE4mRgIkQAIkQAIkQAIkQAIkQAIkQAIkQAIkkHQCdLglvQew/iRAAiRAAiRAAiRAAiRAAiRAAiRAAiRAAoESoMMtUJxMjARIgARIgARIgARIgARIgARIgARIgARIIOkE6HBLeg9g/UmABEiABEiABEiABEiABEiABEiABEiABAIlQIdboDiZGAmQAAmQAAmQAAmQAAmQAAmQAAmQAAmQQNIJ0OGW9B7A+pMACZAACZAACZAACZAACZAACZAACZAACQRKgA63QHEyMRIgARIgARIgARIgARIgARIgARIgARIggaQToMMt6T2A9ScBEiABEiABEiABEiABEiABEiABEiABEgiUAB1ugeJkYiRAAiRAAiRAAiRAAiRAAiRAAiRAAiRAAkknQIdb0nsA608CJEACJEACJEACJEACJEACJEACJEACJBAoATrcAsXJxEiABEiABEiABEiABEiABEiABEiABEiABJJOgA63pPcA1p8ESIAESIAESIAESIAESIAESIAESIAESCBQAnS4BYqTiZEACZAACZAACZAACZAACZAACZAACZAACSSdAB1uSe8BrD8JkAAJkAAJkAAJkAAJkAAJkAAJkAAJkECgBOhwCxQnEyMBEiABEiABEiABEiABEiABEiABEiABEkg6ATrckt4DWH8SIAESIAESIAESIAESIAESIAESIAESIIFACdDhFihOJkYCJEACJEACJEACJEACJEACJEACJEACJJB0AnS4Jb0HsP4kQAIkQAIkQAIkQAIkQAIkQAIkQAIkQAKBEqDDLVCcTIwESIAESIAESIAESIAESIAESIAESIAESCDpBOhwS3oPYP1JgARIgARIgARIgARIgARIgARIgARIgAQCJUCHW6A4mRgJkAAJkAAJkAAJkAAJkAAJkAAJkAAJkEDSCfx/m1xFdrCu/f8AAAAASUVORK5CYII=;" vertex="1" parent="1">
          <mxGeometry x="200" y="380" width="1244" height="376" as="geometry" />
        </mxCell>
        <mxCell id="FhLRkZk7MeBzpykhbY_E-5" value="«bundary»&lt;br&gt;&lt;b&gt;Gestione Personale FE&lt;/b&gt;" style="html=1;dropTarget=0;whiteSpace=wrap;" vertex="1" parent="1">
          <mxGeometry x="40" y="800" width="180" height="90" as="geometry" />
        </mxCell>
        <mxCell id="FhLRkZk7MeBzpykhbY_E-6" value="" style="shape=module;jettyWidth=8;jettyHeight=4;" vertex="1" parent="FhLRkZk7MeBzpykhbY_E-5">
          <mxGeometry x="1" width="20" height="20" relative="1" as="geometry">
            <mxPoint x="-27" y="7" as="offset" />
          </mxGeometry>
        </mxCell>
        <mxCell id="FhLRkZk7MeBzpykhbY_E-8" value="«bundary»&lt;br&gt;&lt;b&gt;Gestione Clienti FE&lt;/b&gt;" style="html=1;dropTarget=0;whiteSpace=wrap;" vertex="1" parent="1">
          <mxGeometry x="40" y="920" width="180" height="90" as="geometry" />
        </mxCell>
        <mxCell id="FhLRkZk7MeBzpykhbY_E-9" value="" style="shape=module;jettyWidth=8;jettyHeight=4;" vertex="1" parent="FhLRkZk7MeBzpykhbY_E-8">
          <mxGeometry x="1" width="20" height="20" relative="1" as="geometry">
            <mxPoint x="-27" y="7" as="offset" />
          </mxGeometry>
        </mxCell>
        <mxCell id="FhLRkZk7MeBzpykhbY_E-10" value="«bundary»&lt;br&gt;&lt;b&gt;Autenticazione FE&lt;/b&gt;" style="html=1;dropTarget=0;whiteSpace=wrap;" vertex="1" parent="1">
          <mxGeometry x="40" y="1040" width="180" height="90" as="geometry" />
        </mxCell>
        <mxCell id="FhLRkZk7MeBzpykhbY_E-11" value="" style="shape=module;jettyWidth=8;jettyHeight=4;" vertex="1" parent="FhLRkZk7MeBzpykhbY_E-10">
          <mxGeometry x="1" width="20" height="20" relative="1" as="geometry">
            <mxPoint x="-27" y="7" as="offset" />
          </mxGeometry>
        </mxCell>
        <mxCell id="FhLRkZk7MeBzpykhbY_E-12" value="«control»&lt;br&gt;&lt;b&gt;Gestione Personale BE&lt;/b&gt;" style="html=1;dropTarget=0;whiteSpace=wrap;" vertex="1" parent="1">
          <mxGeometry x="360" y="800" width="180" height="90" as="geometry" />
        </mxCell>
        <mxCell id="FhLRkZk7MeBzpykhbY_E-13" value="" style="shape=module;jettyWidth=8;jettyHeight=4;" vertex="1" parent="FhLRkZk7MeBzpykhbY_E-12">
          <mxGeometry x="1" width="20" height="20" relative="1" as="geometry">
            <mxPoint x="-27" y="7" as="offset" />
          </mxGeometry>
        </mxCell>
        <mxCell id="FhLRkZk7MeBzpykhbY_E-14" value="«control»&lt;br&gt;&lt;b&gt;Gestione Clienti BE&lt;/b&gt;" style="html=1;dropTarget=0;whiteSpace=wrap;" vertex="1" parent="1">
          <mxGeometry x="360" y="920" width="180" height="90" as="geometry" />
        </mxCell>
        <mxCell id="FhLRkZk7MeBzpykhbY_E-15" value="" style="shape=module;jettyWidth=8;jettyHeight=4;" vertex="1" parent="FhLRkZk7MeBzpykhbY_E-14">
          <mxGeometry x="1" width="20" height="20" relative="1" as="geometry">
            <mxPoint x="-27" y="7" as="offset" />
          </mxGeometry>
        </mxCell>
        <mxCell id="FhLRkZk7MeBzpykhbY_E-16" value="«control»&lt;br&gt;&lt;b&gt;Autenticazione BE&lt;/b&gt;" style="html=1;dropTarget=0;whiteSpace=wrap;" vertex="1" parent="1">
          <mxGeometry x="360" y="1040" width="180" height="90" as="geometry" />
        </mxCell>
        <mxCell id="FhLRkZk7MeBzpykhbY_E-17" value="" style="shape=module;jettyWidth=8;jettyHeight=4;" vertex="1" parent="FhLRkZk7MeBzpykhbY_E-16">
          <mxGeometry x="1" width="20" height="20" relative="1" as="geometry">
            <mxPoint x="-27" y="7" as="offset" />
          </mxGeometry>
        </mxCell>
        <mxCell id="FhLRkZk7MeBzpykhbY_E-18" value="«data»&lt;br&gt;&lt;b&gt;Gestione Personale DB&lt;/b&gt;" style="html=1;dropTarget=0;whiteSpace=wrap;" vertex="1" parent="1">
          <mxGeometry x="680" y="800" width="180" height="90" as="geometry" />
        </mxCell>
        <mxCell id="FhLRkZk7MeBzpykhbY_E-19" value="" style="shape=module;jettyWidth=8;jettyHeight=4;" vertex="1" parent="FhLRkZk7MeBzpykhbY_E-18">
          <mxGeometry x="1" width="20" height="20" relative="1" as="geometry">
            <mxPoint x="-27" y="7" as="offset" />
          </mxGeometry>
        </mxCell>
        <mxCell id="FhLRkZk7MeBzpykhbY_E-20" value="«data»&lt;br&gt;&lt;b&gt;Gestione Clienti DB&lt;/b&gt;" style="html=1;dropTarget=0;whiteSpace=wrap;" vertex="1" parent="1">
          <mxGeometry x="680" y="920" width="180" height="90" as="geometry" />
        </mxCell>
        <mxCell id="FhLRkZk7MeBzpykhbY_E-21" value="" style="shape=module;jettyWidth=8;jettyHeight=4;" vertex="1" parent="FhLRkZk7MeBzpykhbY_E-20">
          <mxGeometry x="1" width="20" height="20" relative="1" as="geometry">
            <mxPoint x="-27" y="7" as="offset" />
          </mxGeometry>
        </mxCell>
        <mxCell id="FhLRkZk7MeBzpykhbY_E-22" value="«data»&lt;br&gt;&lt;b&gt;Autenticazione DB&lt;/b&gt;" style="html=1;dropTarget=0;whiteSpace=wrap;" vertex="1" parent="1">
          <mxGeometry x="680" y="1040" width="180" height="90" as="geometry" />
        </mxCell>
        <mxCell id="FhLRkZk7MeBzpykhbY_E-23" value="" style="shape=module;jettyWidth=8;jettyHeight=4;" vertex="1" parent="FhLRkZk7MeBzpykhbY_E-22">
          <mxGeometry x="1" width="20" height="20" relative="1" as="geometry">
            <mxPoint x="-27" y="7" as="offset" />
          </mxGeometry>
        </mxCell>
        <mxCell id="FhLRkZk7MeBzpykhbY_E-24" value="" style="rounded=0;orthogonalLoop=1;jettySize=auto;html=1;endArrow=none;endFill=0;sketch=0;sourcePerimeterSpacing=0;targetPerimeterSpacing=0;exitX=0;exitY=0.5;exitDx=0;exitDy=0;" edge="1" target="FhLRkZk7MeBzpykhbY_E-26" parent="1" source="FhLRkZk7MeBzpykhbY_E-12">
          <mxGeometry relative="1" as="geometry">
            <mxPoint x="330" y="835" as="sourcePoint" />
          </mxGeometry>
        </mxCell>
        <mxCell id="FhLRkZk7MeBzpykhbY_E-25" value="" style="rounded=0;orthogonalLoop=1;jettySize=auto;html=1;endArrow=halfCircle;endFill=0;entryX=0.5;entryY=0.5;endSize=6;strokeWidth=1;sketch=0;entryDx=0;entryDy=0;exitX=1;exitY=0.5;exitDx=0;exitDy=0;" edge="1" target="FhLRkZk7MeBzpykhbY_E-26" parent="1" source="FhLRkZk7MeBzpykhbY_E-5">
          <mxGeometry relative="1" as="geometry">
            <mxPoint x="240" y="835" as="sourcePoint" />
          </mxGeometry>
        </mxCell>
        <mxCell id="FhLRkZk7MeBzpykhbY_E-26" value="" style="ellipse;whiteSpace=wrap;html=1;align=center;aspect=fixed;resizable=0;points=[];outlineConnect=0;sketch=0;" vertex="1" parent="1">
          <mxGeometry x="285" y="840" width="10" height="10" as="geometry" />
        </mxCell>
        <mxCell id="FhLRkZk7MeBzpykhbY_E-30" value="" style="rounded=0;orthogonalLoop=1;jettySize=auto;html=1;endArrow=none;endFill=0;sketch=0;sourcePerimeterSpacing=0;targetPerimeterSpacing=0;exitX=0;exitY=0.5;exitDx=0;exitDy=0;" edge="1" target="FhLRkZk7MeBzpykhbY_E-32" parent="1" source="FhLRkZk7MeBzpykhbY_E-14">
          <mxGeometry relative="1" as="geometry">
            <mxPoint x="270" y="965" as="sourcePoint" />
          </mxGeometry>
        </mxCell>
        <mxCell id="FhLRkZk7MeBzpykhbY_E-31" value="" style="rounded=0;orthogonalLoop=1;jettySize=auto;html=1;endArrow=halfCircle;endFill=0;entryX=0.5;entryY=0.5;endSize=6;strokeWidth=1;sketch=0;exitX=1;exitY=0.5;exitDx=0;exitDy=0;" edge="1" target="FhLRkZk7MeBzpykhbY_E-32" parent="1" source="FhLRkZk7MeBzpykhbY_E-8">
          <mxGeometry relative="1" as="geometry">
            <mxPoint x="240" y="1000" as="sourcePoint" />
          </mxGeometry>
        </mxCell>
        <mxCell id="FhLRkZk7MeBzpykhbY_E-32" value="" style="ellipse;whiteSpace=wrap;html=1;align=center;aspect=fixed;resizable=0;points=[];outlineConnect=0;sketch=0;" vertex="1" parent="1">
          <mxGeometry x="285" y="960" width="10" height="10" as="geometry" />
        </mxCell>
        <mxCell id="FhLRkZk7MeBzpykhbY_E-33" value="" style="rounded=0;orthogonalLoop=1;jettySize=auto;html=1;endArrow=none;endFill=0;sketch=0;sourcePerimeterSpacing=0;targetPerimeterSpacing=0;exitX=0;exitY=0.5;exitDx=0;exitDy=0;" edge="1" target="FhLRkZk7MeBzpykhbY_E-35" parent="1" source="FhLRkZk7MeBzpykhbY_E-16">
          <mxGeometry relative="1" as="geometry">
            <mxPoint x="270" y="1075" as="sourcePoint" />
          </mxGeometry>
        </mxCell>
        <mxCell id="FhLRkZk7MeBzpykhbY_E-34" value="" style="rounded=0;orthogonalLoop=1;jettySize=auto;html=1;endArrow=halfCircle;endFill=0;entryX=0.5;entryY=0.5;endSize=6;strokeWidth=1;sketch=0;exitX=1;exitY=0.5;exitDx=0;exitDy=0;" edge="1" target="FhLRkZk7MeBzpykhbY_E-35" parent="1" source="FhLRkZk7MeBzpykhbY_E-10">
          <mxGeometry relative="1" as="geometry">
            <mxPoint x="250" y="1090" as="sourcePoint" />
          </mxGeometry>
        </mxCell>
        <mxCell id="FhLRkZk7MeBzpykhbY_E-35" value="" style="ellipse;whiteSpace=wrap;html=1;align=center;aspect=fixed;resizable=0;points=[];outlineConnect=0;sketch=0;" vertex="1" parent="1">
          <mxGeometry x="285" y="1080" width="10" height="10" as="geometry" />
        </mxCell>
        <mxCell id="FhLRkZk7MeBzpykhbY_E-36" value="" style="rounded=0;orthogonalLoop=1;jettySize=auto;html=1;endArrow=none;endFill=0;sketch=0;sourcePerimeterSpacing=0;targetPerimeterSpacing=0;exitX=0;exitY=0.5;exitDx=0;exitDy=0;" edge="1" target="FhLRkZk7MeBzpykhbY_E-38" parent="1" source="FhLRkZk7MeBzpykhbY_E-18">
          <mxGeometry relative="1" as="geometry">
            <mxPoint x="590" y="845" as="sourcePoint" />
          </mxGeometry>
        </mxCell>
        <mxCell id="FhLRkZk7MeBzpykhbY_E-37" value="" style="rounded=0;orthogonalLoop=1;jettySize=auto;html=1;endArrow=halfCircle;endFill=0;entryX=0.5;entryY=0.5;endSize=6;strokeWidth=1;sketch=0;exitX=1;exitY=0.5;exitDx=0;exitDy=0;" edge="1" target="FhLRkZk7MeBzpykhbY_E-38" parent="1" source="FhLRkZk7MeBzpykhbY_E-12">
          <mxGeometry relative="1" as="geometry">
            <mxPoint x="600" y="870" as="sourcePoint" />
          </mxGeometry>
        </mxCell>
        <mxCell id="FhLRkZk7MeBzpykhbY_E-38" value="" style="ellipse;whiteSpace=wrap;html=1;align=center;aspect=fixed;resizable=0;points=[];outlineConnect=0;sketch=0;" vertex="1" parent="1">
          <mxGeometry x="605" y="840" width="10" height="10" as="geometry" />
        </mxCell>
        <mxCell id="FhLRkZk7MeBzpykhbY_E-39" value="" style="rounded=0;orthogonalLoop=1;jettySize=auto;html=1;endArrow=none;endFill=0;sketch=0;sourcePerimeterSpacing=0;targetPerimeterSpacing=0;" edge="1" target="FhLRkZk7MeBzpykhbY_E-41" parent="1" source="FhLRkZk7MeBzpykhbY_E-20">
          <mxGeometry relative="1" as="geometry">
            <mxPoint x="600" y="965" as="sourcePoint" />
          </mxGeometry>
        </mxCell>
        <mxCell id="FhLRkZk7MeBzpykhbY_E-40" value="" style="rounded=0;orthogonalLoop=1;jettySize=auto;html=1;endArrow=halfCircle;endFill=0;entryX=0.5;entryY=0.5;endSize=6;strokeWidth=1;sketch=0;exitX=1;exitY=0.5;exitDx=0;exitDy=0;" edge="1" target="FhLRkZk7MeBzpykhbY_E-41" parent="1" source="FhLRkZk7MeBzpykhbY_E-14">
          <mxGeometry relative="1" as="geometry">
            <mxPoint x="560" y="990" as="sourcePoint" />
          </mxGeometry>
        </mxCell>
        <mxCell id="FhLRkZk7MeBzpykhbY_E-41" value="" style="ellipse;whiteSpace=wrap;html=1;align=center;aspect=fixed;resizable=0;points=[];outlineConnect=0;sketch=0;" vertex="1" parent="1">
          <mxGeometry x="605" y="960" width="10" height="10" as="geometry" />
        </mxCell>
        <mxCell id="FhLRkZk7MeBzpykhbY_E-42" value="" style="rounded=0;orthogonalLoop=1;jettySize=auto;html=1;endArrow=none;endFill=0;sketch=0;sourcePerimeterSpacing=0;targetPerimeterSpacing=0;" edge="1" target="FhLRkZk7MeBzpykhbY_E-44" parent="1" source="FhLRkZk7MeBzpykhbY_E-22">
          <mxGeometry relative="1" as="geometry">
            <mxPoint x="590" y="1085" as="sourcePoint" />
          </mxGeometry>
        </mxCell>
        <mxCell id="FhLRkZk7MeBzpykhbY_E-43" value="" style="rounded=0;orthogonalLoop=1;jettySize=auto;html=1;endArrow=halfCircle;endFill=0;entryX=0.5;entryY=0.5;endSize=6;strokeWidth=1;sketch=0;exitX=1;exitY=0.5;exitDx=0;exitDy=0;" edge="1" target="FhLRkZk7MeBzpykhbY_E-44" parent="1" source="FhLRkZk7MeBzpykhbY_E-16">
          <mxGeometry relative="1" as="geometry">
            <mxPoint x="600" y="1100" as="sourcePoint" />
          </mxGeometry>
        </mxCell>
        <mxCell id="FhLRkZk7MeBzpykhbY_E-44" value="" style="ellipse;whiteSpace=wrap;html=1;align=center;aspect=fixed;resizable=0;points=[];outlineConnect=0;sketch=0;" vertex="1" parent="1">
          <mxGeometry x="605" y="1080" width="10" height="10" as="geometry" />
        </mxCell>
        <mxCell id="FhLRkZk7MeBzpykhbY_E-45" value="«controller»&lt;br&gt;&lt;b&gt;Database&lt;/b&gt;" style="html=1;dropTarget=0;whiteSpace=wrap;" vertex="1" parent="1">
          <mxGeometry x="1000" y="800" width="180" height="330" as="geometry" />
        </mxCell>
        <mxCell id="FhLRkZk7MeBzpykhbY_E-46" value="" style="shape=module;jettyWidth=8;jettyHeight=4;" vertex="1" parent="FhLRkZk7MeBzpykhbY_E-45">
          <mxGeometry x="1" width="20" height="20" relative="1" as="geometry">
            <mxPoint x="-27" y="7" as="offset" />
          </mxGeometry>
        </mxCell>
        <mxCell id="FhLRkZk7MeBzpykhbY_E-47" value="" style="rounded=0;orthogonalLoop=1;jettySize=auto;html=1;endArrow=none;endFill=0;sketch=0;sourcePerimeterSpacing=0;targetPerimeterSpacing=0;" edge="1" target="FhLRkZk7MeBzpykhbY_E-49" parent="1">
          <mxGeometry relative="1" as="geometry">
            <mxPoint x="1000" y="845" as="sourcePoint" />
          </mxGeometry>
        </mxCell>
        <mxCell id="FhLRkZk7MeBzpykhbY_E-48" value="" style="rounded=0;orthogonalLoop=1;jettySize=auto;html=1;endArrow=halfCircle;endFill=0;entryX=0.5;entryY=0.5;endSize=6;strokeWidth=1;sketch=0;exitX=1;exitY=0.5;exitDx=0;exitDy=0;" edge="1" target="FhLRkZk7MeBzpykhbY_E-49" parent="1" source="FhLRkZk7MeBzpykhbY_E-18">
          <mxGeometry relative="1" as="geometry">
            <mxPoint x="900" y="870" as="sourcePoint" />
          </mxGeometry>
        </mxCell>
        <mxCell id="FhLRkZk7MeBzpykhbY_E-49" value="" style="ellipse;whiteSpace=wrap;html=1;align=center;aspect=fixed;resizable=0;points=[];outlineConnect=0;sketch=0;" vertex="1" parent="1">
          <mxGeometry x="925" y="840" width="10" height="10" as="geometry" />
        </mxCell>
        <mxCell id="FhLRkZk7MeBzpykhbY_E-50" value="" style="rounded=0;orthogonalLoop=1;jettySize=auto;html=1;endArrow=none;endFill=0;sketch=0;sourcePerimeterSpacing=0;targetPerimeterSpacing=0;exitX=0;exitY=0.5;exitDx=0;exitDy=0;" edge="1" target="FhLRkZk7MeBzpykhbY_E-52" parent="1" source="FhLRkZk7MeBzpykhbY_E-45">
          <mxGeometry relative="1" as="geometry">
            <mxPoint x="980" y="965" as="sourcePoint" />
          </mxGeometry>
        </mxCell>
        <mxCell id="FhLRkZk7MeBzpykhbY_E-51" value="" style="rounded=0;orthogonalLoop=1;jettySize=auto;html=1;endArrow=halfCircle;endFill=0;entryX=0.5;entryY=0.5;endSize=6;strokeWidth=1;sketch=0;exitX=1;exitY=0.5;exitDx=0;exitDy=0;" edge="1" target="FhLRkZk7MeBzpykhbY_E-52" parent="1" source="FhLRkZk7MeBzpykhbY_E-20">
          <mxGeometry relative="1" as="geometry">
            <mxPoint x="900" y="1000" as="sourcePoint" />
          </mxGeometry>
        </mxCell>
        <mxCell id="FhLRkZk7MeBzpykhbY_E-52" value="" style="ellipse;whiteSpace=wrap;html=1;align=center;aspect=fixed;resizable=0;points=[];outlineConnect=0;sketch=0;" vertex="1" parent="1">
          <mxGeometry x="925" y="960" width="10" height="10" as="geometry" />
        </mxCell>
        <mxCell id="FhLRkZk7MeBzpykhbY_E-53" value="" style="rounded=0;orthogonalLoop=1;jettySize=auto;html=1;endArrow=none;endFill=0;sketch=0;sourcePerimeterSpacing=0;targetPerimeterSpacing=0;exitX=-0.001;exitY=0.864;exitDx=0;exitDy=0;exitPerimeter=0;" edge="1" target="FhLRkZk7MeBzpykhbY_E-55" parent="1" source="FhLRkZk7MeBzpykhbY_E-45">
          <mxGeometry relative="1" as="geometry">
            <mxPoint x="980" y="1085" as="sourcePoint" />
          </mxGeometry>
        </mxCell>
        <mxCell id="FhLRkZk7MeBzpykhbY_E-54" value="" style="rounded=0;orthogonalLoop=1;jettySize=auto;html=1;endArrow=halfCircle;endFill=0;entryX=0.5;entryY=0.5;endSize=6;strokeWidth=1;sketch=0;exitX=1;exitY=0.5;exitDx=0;exitDy=0;" edge="1" target="FhLRkZk7MeBzpykhbY_E-55" parent="1" source="FhLRkZk7MeBzpykhbY_E-22">
          <mxGeometry relative="1" as="geometry">
            <mxPoint x="900" y="1100" as="sourcePoint" />
          </mxGeometry>
        </mxCell>
        <mxCell id="FhLRkZk7MeBzpykhbY_E-55" value="" style="ellipse;whiteSpace=wrap;html=1;align=center;aspect=fixed;resizable=0;points=[];outlineConnect=0;sketch=0;" vertex="1" parent="1">
          <mxGeometry x="925" y="1080" width="10" height="10" as="geometry" />
        </mxCell>
        <mxCell id="FhLRkZk7MeBzpykhbY_E-57" value="&lt;font style=&quot;font-size: 10px;&quot;&gt;DipendentiMgmt&lt;/font&gt;" style="text;strokeColor=none;fillColor=none;align=left;verticalAlign=top;spacingLeft=4;spacingRight=4;overflow=hidden;rotatable=0;points=[[0,0.5],[1,0.5]];portConstraint=eastwest;whiteSpace=wrap;html=1;" vertex="1" parent="1">
          <mxGeometry x="247" y="813" width="100" height="30" as="geometry" />
        </mxCell>
        <mxCell id="FhLRkZk7MeBzpykhbY_E-58" value="&lt;font style=&quot;font-size: 10px;&quot;&gt;DipendentiMgmt&lt;/font&gt;" style="text;strokeColor=none;fillColor=none;align=left;verticalAlign=top;spacingLeft=4;spacingRight=4;overflow=hidden;rotatable=0;points=[[0,0.5],[1,0.5]];portConstraint=eastwest;whiteSpace=wrap;html=1;" vertex="1" parent="1">
          <mxGeometry x="560" y="813" width="100" height="30" as="geometry" />
        </mxCell>
        <mxCell id="FhLRkZk7MeBzpykhbY_E-59" value="&lt;font style=&quot;font-size: 10px;&quot;&gt;ClientiMgmt&lt;/font&gt;" style="text;strokeColor=none;fillColor=none;align=left;verticalAlign=top;spacingLeft=4;spacingRight=4;overflow=hidden;rotatable=0;points=[[0,0.5],[1,0.5]];portConstraint=eastwest;whiteSpace=wrap;html=1;" vertex="1" parent="1">
          <mxGeometry x="260" y="931" width="100" height="30" as="geometry" />
        </mxCell>
        <mxCell id="FhLRkZk7MeBzpykhbY_E-60" value="&lt;font style=&quot;font-size: 10px;&quot;&gt;ClientiMgmt&lt;/font&gt;" style="text;strokeColor=none;fillColor=none;align=left;verticalAlign=top;spacingLeft=4;spacingRight=4;overflow=hidden;rotatable=0;points=[[0,0.5],[1,0.5]];portConstraint=eastwest;whiteSpace=wrap;html=1;" vertex="1" parent="1">
          <mxGeometry x="578" y="931" width="100" height="30" as="geometry" />
        </mxCell>
        <mxCell id="FhLRkZk7MeBzpykhbY_E-61" value="&lt;font style=&quot;font-size: 10px;&quot;&gt;AutenticationMgmt&lt;/font&gt;" style="text;strokeColor=none;fillColor=none;align=left;verticalAlign=top;spacingLeft=4;spacingRight=4;overflow=hidden;rotatable=0;points=[[0,0.5],[1,0.5]];portConstraint=eastwest;whiteSpace=wrap;html=1;" vertex="1" parent="1">
          <mxGeometry x="242" y="1052" width="100" height="30" as="geometry" />
        </mxCell>
        <mxCell id="FhLRkZk7MeBzpykhbY_E-62" value="&lt;font style=&quot;font-size: 10px;&quot;&gt;AutenticationMgmt&lt;/font&gt;" style="text;strokeColor=none;fillColor=none;align=left;verticalAlign=top;spacingLeft=4;spacingRight=4;overflow=hidden;rotatable=0;points=[[0,0.5],[1,0.5]];portConstraint=eastwest;whiteSpace=wrap;html=1;" vertex="1" parent="1">
          <mxGeometry x="560" y="1052" width="100" height="30" as="geometry" />
        </mxCell>
      </root>
    </mxGraphModel>
  </diagram>
</mxfile>
